M48
;GenerationSoftware,Autodesk,EAGLE,9.6.2*%
;CreationDate,2023-12-12T20:31:19Z*%
FMAT,2
ICI,OFF
METRIC,TZ,000.000
T4C0.813
T3C1.016
T2C1.700
%
G90
M71
T2
X10010Y10160
X13970Y10160
X17930Y10160
T3
X46990Y46990
X41910Y6350
X17780Y54610
X15240Y54610
X26670Y6350
X24130Y6350
X39370Y6350
X44450Y46990
X41910Y46990
X49530Y46990
X46990Y12700
X44450Y12700
X41910Y12700
X49530Y12700
X74930Y12700
X36830Y6350
X34290Y6350
X31750Y6350
X29210Y6350
X92710Y54610
X90170Y54610
X92710Y11430
X90170Y11430
X90170Y31750
X92710Y31750
X90170Y29210
X92710Y29210
X90170Y26670
X92710Y26670
X90170Y24130
X78740Y40640
X24130Y48260
X26670Y48260
X55880Y34290
X58420Y34290
X60960Y34290
X55880Y40640
X58420Y40640
X60960Y40640
X55880Y46990
X58420Y46990
X60960Y46990
X76200Y34290
X78740Y34290
X81280Y34290
X76200Y40640
X74930Y6350
X81280Y40640
X76200Y46990
X78740Y46990
X81280Y46990
X26670Y40640
X29210Y40640
X35560Y40640
X38100Y40640
X63500Y12700
X55880Y12700
X58420Y12700
X60960Y12700
X77470Y12700
X69850Y12700
X72390Y12700
X49530Y6350
X41910Y54610
X59690Y54610
X57150Y54610
X54610Y54610
X52070Y54610
X49530Y54610
X46990Y54610
X44450Y54610
X46990Y6350
X64770Y6350
X62230Y6350
X59690Y6350
X57150Y6350
X54610Y6350
X52070Y6350
X90170Y21590
X64770Y54610
X82550Y54610
X80010Y54610
X77470Y54610
X74930Y54610
X72390Y54610
X69850Y54610
X67310Y54610
X69850Y6350
X87630Y6350
X85090Y6350
X82550Y6350
X80010Y6350
X77470Y6350
X72390Y6350
X25400Y54610
X92710Y24130
X92710Y21590
X90170Y19050
X92710Y19050
X90170Y16510
X92710Y16510
X90170Y13970
X92710Y13970
X90170Y52070
X92710Y52070
X90170Y49530
X92710Y49530
X90170Y46990
X92710Y46990
X90170Y44450
X90170Y41910
X22860Y54610
X27940Y54610
X30480Y54610
X33020Y54610
X35560Y54610
X38100Y54610
X20320Y54610
X92710Y34290
X90170Y34290
X92710Y36830
X90170Y36830
X92710Y39370
X90170Y39370
X92710Y41910
X92710Y44450
T4
X24130Y13970
X26670Y13970
X21590Y20320
X29210Y20320
M30