G04 EAGLE Gerber RS-274X export*
G75*
%MOMM*%
%FSLAX34Y34*%
%LPD*%
%INBottom Copper*%
%IPPOS*%
%AMOC8*
5,1,8,0,0,1.08239X$1,22.5*%
G01*
%ADD10C,1.879600*%
%ADD11C,2.550000*%
%ADD12C,1.524000*%
%ADD13P,1.429621X8X22.500000*%
%ADD14C,1.270000*%

G36*
X223278Y11177D02*
X223278Y11177D01*
X223279Y11177D01*
X223647Y11198D01*
X223987Y11217D01*
X223989Y11217D01*
X223990Y11217D01*
X224373Y11282D01*
X224690Y11336D01*
X224691Y11336D01*
X224693Y11337D01*
X225057Y11442D01*
X225374Y11533D01*
X225376Y11534D01*
X225377Y11534D01*
X225695Y11667D01*
X226032Y11806D01*
X226034Y11807D01*
X226035Y11807D01*
X226333Y11972D01*
X226656Y12151D01*
X226657Y12152D01*
X226658Y12153D01*
X226961Y12368D01*
X227237Y12563D01*
X227238Y12564D01*
X227239Y12565D01*
X227535Y12830D01*
X227768Y13038D01*
X227769Y13039D01*
X227770Y13040D01*
X228031Y13334D01*
X228242Y13570D01*
X228243Y13571D01*
X228244Y13572D01*
X228441Y13850D01*
X228654Y14151D01*
X228655Y14153D01*
X228656Y14154D01*
X228797Y14411D01*
X228998Y14775D01*
X228999Y14776D01*
X229000Y14777D01*
X229132Y15099D01*
X229271Y15433D01*
X229271Y15435D01*
X229271Y15436D01*
X229364Y15760D01*
X229467Y16118D01*
X229468Y16119D01*
X229468Y16121D01*
X229531Y16493D01*
X229586Y16820D01*
X229586Y16822D01*
X229586Y16823D01*
X229607Y17207D01*
X229625Y17532D01*
X229625Y17533D01*
X229625Y17535D01*
X229604Y17906D01*
X229585Y18243D01*
X229585Y18244D01*
X229584Y18246D01*
X229520Y18623D01*
X229465Y18945D01*
X229464Y18946D01*
X229464Y18948D01*
X229356Y19319D01*
X229267Y19630D01*
X229266Y19631D01*
X229266Y19632D01*
X229133Y19951D01*
X228993Y20287D01*
X228993Y20289D01*
X228992Y20290D01*
X228824Y20593D01*
X228648Y20911D01*
X228647Y20912D01*
X228647Y20913D01*
X228428Y21220D01*
X228235Y21491D01*
X228234Y21492D01*
X228233Y21493D01*
X227766Y22016D01*
X210781Y39000D01*
X209041Y43201D01*
X209041Y53063D01*
X209041Y53068D01*
X209041Y53072D01*
X209021Y53424D01*
X209001Y53775D01*
X209001Y53779D01*
X209000Y53783D01*
X208940Y54134D01*
X208882Y54477D01*
X208881Y54481D01*
X208880Y54485D01*
X208778Y54837D01*
X208685Y55161D01*
X208683Y55165D01*
X208682Y55170D01*
X208546Y55496D01*
X208412Y55820D01*
X208410Y55824D01*
X208408Y55827D01*
X208238Y56134D01*
X208067Y56443D01*
X208065Y56446D01*
X208062Y56450D01*
X207850Y56749D01*
X207655Y57024D01*
X207652Y57027D01*
X207649Y57031D01*
X207182Y57553D01*
X193532Y71203D01*
X193396Y71324D01*
X193268Y71452D01*
X193131Y71561D01*
X193001Y71677D01*
X192852Y71783D01*
X192710Y71896D01*
X192562Y71989D01*
X192420Y72090D01*
X192260Y72178D01*
X192106Y72274D01*
X191949Y72350D01*
X191796Y72434D01*
X191628Y72504D01*
X191464Y72582D01*
X191299Y72640D01*
X191138Y72707D01*
X190963Y72757D01*
X190791Y72817D01*
X190621Y72855D01*
X190453Y72904D01*
X190274Y72934D01*
X190096Y72974D01*
X189923Y72994D01*
X189751Y73023D01*
X189569Y73033D01*
X189388Y73053D01*
X189214Y73053D01*
X189039Y73062D01*
X188858Y73052D01*
X188676Y73052D01*
X188502Y73032D01*
X188328Y73022D01*
X188149Y72992D01*
X187968Y72971D01*
X187798Y72932D01*
X187626Y72902D01*
X187451Y72852D01*
X187274Y72811D01*
X187106Y72752D01*
X186941Y72705D01*
X186781Y72638D01*
X186612Y72579D01*
X182847Y71019D01*
X175753Y71019D01*
X169200Y73734D01*
X163990Y78944D01*
X163987Y78946D01*
X163986Y78948D01*
X163742Y79165D01*
X163458Y79419D01*
X163456Y79420D01*
X163454Y79422D01*
X163184Y79614D01*
X162877Y79831D01*
X162875Y79832D01*
X162872Y79834D01*
X162557Y80008D01*
X162254Y80175D01*
X162251Y80176D01*
X162249Y80178D01*
X161918Y80314D01*
X161595Y80448D01*
X161593Y80449D01*
X161590Y80450D01*
X161253Y80547D01*
X160911Y80645D01*
X160908Y80645D01*
X160905Y80646D01*
X160543Y80707D01*
X160208Y80764D01*
X160206Y80764D01*
X160203Y80765D01*
X159837Y80785D01*
X159497Y80804D01*
X159494Y80803D01*
X159491Y80804D01*
X159140Y80783D01*
X158786Y80763D01*
X158783Y80763D01*
X158780Y80763D01*
X158437Y80704D01*
X158084Y80644D01*
X158081Y80643D01*
X158078Y80642D01*
X157746Y80546D01*
X157399Y80446D01*
X157396Y80445D01*
X157394Y80444D01*
X157070Y80309D01*
X156741Y80173D01*
X156739Y80172D01*
X156736Y80170D01*
X156428Y80000D01*
X156118Y79828D01*
X156115Y79826D01*
X156113Y79825D01*
X155825Y79620D01*
X155537Y79415D01*
X155535Y79413D01*
X155533Y79412D01*
X155010Y78944D01*
X149800Y73734D01*
X143247Y71019D01*
X136153Y71019D01*
X129600Y73734D01*
X124584Y78750D01*
X124223Y79621D01*
X124093Y79891D01*
X123968Y80162D01*
X123939Y80211D01*
X123914Y80263D01*
X123755Y80515D01*
X123600Y80772D01*
X123565Y80818D01*
X123535Y80867D01*
X123348Y81100D01*
X123166Y81337D01*
X123126Y81378D01*
X123090Y81423D01*
X122878Y81635D01*
X122671Y81850D01*
X122627Y81886D01*
X122586Y81927D01*
X122353Y82113D01*
X122123Y82304D01*
X122074Y82335D01*
X122029Y82371D01*
X121776Y82530D01*
X121526Y82693D01*
X121475Y82719D01*
X121426Y82750D01*
X121156Y82880D01*
X120890Y83014D01*
X120836Y83034D01*
X120784Y83059D01*
X120503Y83157D01*
X120222Y83261D01*
X120166Y83275D01*
X120111Y83294D01*
X119820Y83360D01*
X119530Y83432D01*
X119473Y83439D01*
X119417Y83452D01*
X119119Y83485D01*
X118824Y83524D01*
X118766Y83525D01*
X118709Y83531D01*
X118410Y83531D01*
X118111Y83536D01*
X118054Y83531D01*
X117996Y83531D01*
X117700Y83497D01*
X117402Y83469D01*
X117345Y83457D01*
X117288Y83450D01*
X116997Y83384D01*
X116705Y83322D01*
X116650Y83304D01*
X116594Y83291D01*
X116311Y83192D01*
X116028Y83099D01*
X115976Y83075D01*
X115922Y83056D01*
X115652Y82925D01*
X115381Y82801D01*
X115332Y82771D01*
X115280Y82746D01*
X115028Y82587D01*
X114772Y82432D01*
X114726Y82397D01*
X114677Y82366D01*
X114444Y82180D01*
X114207Y81997D01*
X114166Y81957D01*
X114121Y81921D01*
X113910Y81710D01*
X113695Y81502D01*
X113658Y81458D01*
X113618Y81417D01*
X113432Y81183D01*
X113241Y80953D01*
X113210Y80904D01*
X113174Y80860D01*
X113026Y80623D01*
X112858Y80366D01*
X112841Y80337D01*
X111621Y78746D01*
X110204Y77329D01*
X108613Y76109D01*
X106877Y75107D01*
X106449Y74929D01*
X106449Y101600D01*
X106449Y128271D01*
X106877Y128093D01*
X108613Y127091D01*
X110204Y125871D01*
X111621Y124454D01*
X112841Y122863D01*
X112858Y122834D01*
X113022Y122583D01*
X113181Y122331D01*
X113217Y122286D01*
X113248Y122238D01*
X113439Y122007D01*
X113625Y121774D01*
X113666Y121734D01*
X113703Y121689D01*
X113918Y121482D01*
X114129Y121271D01*
X114174Y121235D01*
X114216Y121195D01*
X114453Y121013D01*
X114687Y120827D01*
X114735Y120797D01*
X114781Y120762D01*
X115037Y120607D01*
X115290Y120449D01*
X115342Y120424D01*
X115391Y120394D01*
X115663Y120270D01*
X115932Y120140D01*
X115987Y120121D01*
X116039Y120097D01*
X116323Y120004D01*
X116605Y119905D01*
X116661Y119893D01*
X116716Y119875D01*
X117008Y119814D01*
X117300Y119748D01*
X117357Y119741D01*
X117413Y119729D01*
X117710Y119702D01*
X118008Y119669D01*
X118065Y119669D01*
X118123Y119663D01*
X118421Y119669D01*
X118720Y119669D01*
X118777Y119676D01*
X118835Y119677D01*
X119132Y119716D01*
X119428Y119750D01*
X119484Y119763D01*
X119541Y119770D01*
X119832Y119843D01*
X120122Y119909D01*
X120177Y119928D01*
X120233Y119942D01*
X120513Y120047D01*
X120795Y120146D01*
X120846Y120171D01*
X120900Y120191D01*
X121168Y120326D01*
X121436Y120456D01*
X121484Y120486D01*
X121536Y120512D01*
X121786Y120676D01*
X122039Y120836D01*
X122084Y120872D01*
X122132Y120903D01*
X122361Y121094D01*
X122595Y121281D01*
X122636Y121321D01*
X122680Y121358D01*
X122887Y121573D01*
X123098Y121785D01*
X123134Y121830D01*
X123174Y121872D01*
X123355Y122109D01*
X123541Y122343D01*
X123572Y122392D01*
X123607Y122437D01*
X123760Y122693D01*
X123919Y122947D01*
X123944Y122999D01*
X123974Y123048D01*
X124090Y123301D01*
X124223Y123579D01*
X124584Y124450D01*
X129600Y129466D01*
X136153Y132181D01*
X138785Y132181D01*
X138790Y132181D01*
X138794Y132181D01*
X139147Y132201D01*
X139497Y132221D01*
X139501Y132221D01*
X139505Y132222D01*
X139856Y132282D01*
X140199Y132340D01*
X140203Y132341D01*
X140207Y132342D01*
X140559Y132444D01*
X140883Y132537D01*
X140887Y132539D01*
X140892Y132540D01*
X141216Y132675D01*
X141542Y132810D01*
X141546Y132812D01*
X141549Y132814D01*
X141856Y132984D01*
X142165Y133155D01*
X142168Y133157D01*
X142172Y133160D01*
X142471Y133372D01*
X142746Y133567D01*
X142749Y133570D01*
X142753Y133573D01*
X143275Y134040D01*
X158625Y149391D01*
X162826Y151131D01*
X172720Y151131D01*
X172723Y151131D01*
X172726Y151131D01*
X173073Y151151D01*
X173431Y151171D01*
X173434Y151171D01*
X173437Y151171D01*
X173777Y151230D01*
X174134Y151290D01*
X174136Y151291D01*
X174139Y151291D01*
X174484Y151391D01*
X174818Y151487D01*
X174821Y151489D01*
X174824Y151489D01*
X175148Y151624D01*
X175476Y151760D01*
X175479Y151762D01*
X175481Y151763D01*
X175793Y151935D01*
X176100Y152105D01*
X176102Y152107D01*
X176105Y152108D01*
X176402Y152319D01*
X176681Y152517D01*
X176683Y152519D01*
X176685Y152521D01*
X176953Y152761D01*
X177212Y152992D01*
X177214Y152995D01*
X177216Y152996D01*
X177454Y153264D01*
X177686Y153524D01*
X177688Y153526D01*
X177690Y153528D01*
X177887Y153808D01*
X178098Y154105D01*
X178100Y154108D01*
X178101Y154110D01*
X178254Y154387D01*
X178442Y154729D01*
X178443Y154732D01*
X178445Y154734D01*
X178576Y155052D01*
X178714Y155387D01*
X178715Y155390D01*
X178716Y155393D01*
X178810Y155721D01*
X178911Y156072D01*
X178912Y156075D01*
X178912Y156077D01*
X178970Y156421D01*
X179030Y156774D01*
X179030Y156777D01*
X179031Y156780D01*
X179069Y157480D01*
X179069Y180074D01*
X180809Y184275D01*
X184918Y188383D01*
X184918Y188384D01*
X202356Y205821D01*
X202358Y205824D01*
X202362Y205827D01*
X202596Y206090D01*
X202830Y206352D01*
X202833Y206356D01*
X202836Y206359D01*
X203037Y206644D01*
X203243Y206933D01*
X203245Y206937D01*
X203247Y206941D01*
X203408Y207233D01*
X211060Y214885D01*
X220740Y214885D01*
X227585Y208040D01*
X227585Y198360D01*
X219932Y190708D01*
X219631Y190541D01*
X219628Y190539D01*
X219624Y190536D01*
X219325Y190324D01*
X219050Y190129D01*
X219047Y190126D01*
X219043Y190123D01*
X218521Y189656D01*
X203790Y174925D01*
X203788Y174922D01*
X203784Y174919D01*
X203550Y174656D01*
X203316Y174394D01*
X203313Y174390D01*
X203310Y174387D01*
X203109Y174102D01*
X202903Y173813D01*
X202901Y173809D01*
X202899Y173805D01*
X202728Y173495D01*
X202559Y173189D01*
X202557Y173185D01*
X202555Y173181D01*
X202421Y172857D01*
X202286Y172531D01*
X202285Y172527D01*
X202284Y172523D01*
X202187Y172184D01*
X202089Y171846D01*
X202089Y171842D01*
X202088Y171838D01*
X202025Y171467D01*
X201970Y171144D01*
X201970Y171140D01*
X201969Y171135D01*
X201931Y170435D01*
X201931Y156841D01*
X201941Y156659D01*
X201941Y156477D01*
X201961Y156304D01*
X201971Y156129D01*
X202001Y155950D01*
X202022Y155770D01*
X202061Y155599D01*
X202090Y155427D01*
X202140Y155253D01*
X202181Y155075D01*
X202239Y154910D01*
X202287Y154743D01*
X202357Y154575D01*
X202417Y154403D01*
X202493Y154246D01*
X202560Y154084D01*
X202648Y153925D01*
X202727Y153762D01*
X202821Y153614D01*
X202905Y153461D01*
X203010Y153313D01*
X203107Y153159D01*
X203216Y153022D01*
X203317Y152880D01*
X203438Y152745D01*
X203552Y152603D01*
X203676Y152479D01*
X203792Y152349D01*
X203928Y152228D01*
X204057Y152100D01*
X204194Y151991D01*
X204324Y151875D01*
X204472Y151769D01*
X204615Y151656D01*
X204762Y151564D01*
X204905Y151463D01*
X205064Y151375D01*
X205218Y151278D01*
X205378Y151202D01*
X205529Y151118D01*
X205689Y151052D01*
X205850Y150975D01*
X209675Y149391D01*
X218776Y140289D01*
X218777Y140288D01*
X218778Y140287D01*
X219061Y140034D01*
X219308Y139814D01*
X219309Y139814D01*
X219310Y139813D01*
X219631Y139585D01*
X219889Y139402D01*
X219890Y139402D01*
X219891Y139401D01*
X220220Y139219D01*
X220512Y139058D01*
X220514Y139057D01*
X220515Y139056D01*
X220833Y138925D01*
X221171Y138785D01*
X221172Y138785D01*
X221173Y138784D01*
X221518Y138685D01*
X221855Y138588D01*
X221856Y138588D01*
X221858Y138587D01*
X222219Y138526D01*
X222558Y138469D01*
X222559Y138469D01*
X222560Y138469D01*
X222909Y138449D01*
X223269Y138429D01*
X223270Y138429D01*
X223272Y138429D01*
X223607Y138449D01*
X223980Y138470D01*
X223982Y138470D01*
X223983Y138470D01*
X224295Y138523D01*
X224682Y138589D01*
X224684Y138590D01*
X224685Y138590D01*
X225021Y138687D01*
X225367Y138787D01*
X225368Y138788D01*
X225370Y138788D01*
X225702Y138926D01*
X226025Y139060D01*
X226026Y139061D01*
X226027Y139061D01*
X226322Y139225D01*
X226648Y139405D01*
X226649Y139406D01*
X226651Y139407D01*
X226895Y139581D01*
X227229Y139818D01*
X227230Y139819D01*
X227231Y139820D01*
X227462Y140027D01*
X227760Y140293D01*
X227761Y140294D01*
X227762Y140295D01*
X227998Y140560D01*
X228234Y140825D01*
X228235Y140826D01*
X228236Y140827D01*
X228450Y141130D01*
X228646Y141406D01*
X228646Y141407D01*
X228647Y141409D01*
X228816Y141715D01*
X228989Y142030D01*
X228990Y142031D01*
X228991Y142033D01*
X229124Y142356D01*
X229261Y142689D01*
X229262Y142690D01*
X229262Y142691D01*
X229345Y142981D01*
X229458Y143373D01*
X229458Y143375D01*
X229458Y143376D01*
X229515Y143713D01*
X229576Y144076D01*
X229576Y144077D01*
X229577Y144079D01*
X229601Y144526D01*
X237396Y152321D01*
X237465Y152359D01*
X237468Y152361D01*
X237472Y152364D01*
X237771Y152576D01*
X238046Y152771D01*
X238049Y152774D01*
X238053Y152777D01*
X238575Y153244D01*
X244402Y159071D01*
X250751Y165420D01*
X257100Y171770D01*
X278556Y193225D01*
X278558Y193228D01*
X278562Y193231D01*
X278802Y193500D01*
X279030Y193756D01*
X279033Y193760D01*
X279036Y193763D01*
X279242Y194055D01*
X279443Y194337D01*
X279445Y194341D01*
X279447Y194345D01*
X279611Y194643D01*
X279787Y194961D01*
X279789Y194965D01*
X279791Y194969D01*
X279919Y195280D01*
X280060Y195619D01*
X280061Y195623D01*
X280062Y195627D01*
X280159Y195966D01*
X280257Y196304D01*
X280257Y196308D01*
X280258Y196312D01*
X280318Y196668D01*
X280376Y197006D01*
X280376Y197010D01*
X280377Y197015D01*
X280415Y197715D01*
X280415Y208040D01*
X287260Y214885D01*
X296940Y214885D01*
X303785Y208040D01*
X303785Y197218D01*
X303689Y196887D01*
X303689Y196883D01*
X303688Y196879D01*
X303628Y196522D01*
X303570Y196185D01*
X303570Y196180D01*
X303569Y196176D01*
X303531Y195476D01*
X303531Y188330D01*
X301791Y184129D01*
X298407Y180745D01*
X298406Y180745D01*
X292057Y174396D01*
X292057Y174395D01*
X272987Y155325D01*
X272985Y155323D01*
X272983Y155321D01*
X272743Y155053D01*
X272512Y154794D01*
X272510Y154792D01*
X272508Y154789D01*
X272296Y154490D01*
X272100Y154213D01*
X272098Y154210D01*
X272097Y154208D01*
X271924Y153895D01*
X271755Y153589D01*
X271754Y153587D01*
X271753Y153584D01*
X271618Y153258D01*
X271483Y152931D01*
X271482Y152928D01*
X271481Y152926D01*
X271382Y152582D01*
X271286Y152246D01*
X271285Y152244D01*
X271284Y152241D01*
X271220Y151856D01*
X271167Y151544D01*
X271166Y151541D01*
X271166Y151538D01*
X271146Y151169D01*
X271127Y150833D01*
X271127Y150830D01*
X271127Y150827D01*
X271147Y150475D01*
X271167Y150121D01*
X271168Y150118D01*
X271168Y150116D01*
X271228Y149767D01*
X271287Y149419D01*
X271288Y149416D01*
X271288Y149413D01*
X271387Y149072D01*
X271485Y148735D01*
X271486Y148732D01*
X271487Y148729D01*
X271621Y148405D01*
X271758Y148077D01*
X271759Y148074D01*
X271760Y148071D01*
X271931Y147764D01*
X272103Y147453D01*
X272104Y147451D01*
X272106Y147449D01*
X272311Y147160D01*
X272516Y146873D01*
X272517Y146871D01*
X272519Y146868D01*
X272987Y146346D01*
X273283Y146049D01*
X266700Y146049D01*
X266697Y146049D01*
X266695Y146049D01*
X266347Y146030D01*
X265989Y146009D01*
X265986Y146009D01*
X265983Y146009D01*
X265643Y145951D01*
X265287Y145890D01*
X265284Y145889D01*
X265281Y145889D01*
X264936Y145789D01*
X264602Y145693D01*
X264600Y145692D01*
X264597Y145691D01*
X264273Y145556D01*
X263944Y145420D01*
X263941Y145418D01*
X263939Y145417D01*
X263627Y145245D01*
X263321Y145075D01*
X263318Y145074D01*
X263316Y145072D01*
X263019Y144861D01*
X262740Y144663D01*
X262738Y144661D01*
X262735Y144659D01*
X262467Y144419D01*
X262209Y144188D01*
X262208Y144187D01*
X262206Y144185D01*
X262205Y144184D01*
X262204Y144183D01*
X261966Y143916D01*
X261734Y143656D01*
X261732Y143653D01*
X261730Y143651D01*
X261525Y143362D01*
X261322Y143075D01*
X261320Y143072D01*
X261319Y143070D01*
X261151Y142766D01*
X260978Y142451D01*
X260976Y142448D01*
X260975Y142446D01*
X260840Y142118D01*
X260705Y141792D01*
X260705Y141790D01*
X260704Y141787D01*
X260609Y141457D01*
X260509Y141108D01*
X260508Y141105D01*
X260507Y141102D01*
X260447Y140741D01*
X260390Y140405D01*
X260390Y140403D01*
X260389Y140400D01*
X260351Y139700D01*
X260351Y133117D01*
X260286Y133182D01*
X260284Y133184D01*
X260282Y133186D01*
X260026Y133414D01*
X259754Y133656D01*
X259752Y133658D01*
X259750Y133660D01*
X259472Y133857D01*
X259173Y134069D01*
X259171Y134070D01*
X259169Y134072D01*
X258854Y134245D01*
X258550Y134413D01*
X258547Y134414D01*
X258545Y134416D01*
X258214Y134552D01*
X257892Y134686D01*
X257889Y134686D01*
X257886Y134688D01*
X257548Y134784D01*
X257207Y134883D01*
X257204Y134883D01*
X257201Y134884D01*
X256840Y134945D01*
X256505Y135002D01*
X256502Y135002D01*
X256499Y135002D01*
X256133Y135022D01*
X255793Y135041D01*
X255790Y135041D01*
X255787Y135041D01*
X255436Y135021D01*
X255082Y135001D01*
X255079Y135001D01*
X255076Y135000D01*
X254733Y134942D01*
X254380Y134881D01*
X254377Y134881D01*
X254374Y134880D01*
X254042Y134784D01*
X253695Y134684D01*
X253692Y134683D01*
X253690Y134682D01*
X253372Y134550D01*
X253037Y134411D01*
X253035Y134409D01*
X253032Y134408D01*
X252732Y134242D01*
X252414Y134066D01*
X252411Y134064D01*
X252409Y134063D01*
X252121Y133857D01*
X251833Y133653D01*
X251831Y133651D01*
X251829Y133649D01*
X251306Y133182D01*
X246126Y128001D01*
X246004Y127994D01*
X245667Y127975D01*
X245666Y127975D01*
X245664Y127975D01*
X245303Y127913D01*
X244965Y127856D01*
X244964Y127855D01*
X244962Y127855D01*
X244609Y127753D01*
X244280Y127659D01*
X244279Y127658D01*
X244278Y127658D01*
X243952Y127523D01*
X243622Y127386D01*
X243621Y127385D01*
X243620Y127385D01*
X243304Y127209D01*
X242999Y127041D01*
X242998Y127040D01*
X242996Y127039D01*
X242651Y126794D01*
X242418Y126629D01*
X242417Y126628D01*
X242416Y126627D01*
X242121Y126363D01*
X241887Y126154D01*
X241886Y126153D01*
X241885Y126152D01*
X241633Y125869D01*
X241413Y125622D01*
X241412Y125621D01*
X241411Y125620D01*
X241212Y125339D01*
X241001Y125041D01*
X241000Y125040D01*
X240999Y125038D01*
X240838Y124746D01*
X240656Y124417D01*
X240656Y124416D01*
X240655Y124415D01*
X240530Y124112D01*
X240384Y123759D01*
X240384Y123757D01*
X240383Y123756D01*
X240298Y123459D01*
X240187Y123074D01*
X240187Y123072D01*
X240187Y123071D01*
X240125Y122702D01*
X240069Y122372D01*
X240069Y122370D01*
X240068Y122369D01*
X240046Y121960D01*
X240029Y121660D01*
X240029Y121659D01*
X240029Y121657D01*
X240052Y121271D01*
X240070Y120949D01*
X240070Y120948D01*
X240070Y120946D01*
X240139Y120546D01*
X240190Y120247D01*
X240190Y120246D01*
X240191Y120244D01*
X240294Y119888D01*
X240388Y119562D01*
X240389Y119561D01*
X240389Y119560D01*
X240526Y119229D01*
X240661Y118905D01*
X240662Y118903D01*
X240663Y118902D01*
X240832Y118596D01*
X241007Y118281D01*
X241008Y118280D01*
X241008Y118279D01*
X241235Y117961D01*
X241420Y117701D01*
X241421Y117700D01*
X241422Y117699D01*
X241889Y117176D01*
X244175Y114890D01*
X244178Y114888D01*
X244181Y114884D01*
X244449Y114646D01*
X244706Y114416D01*
X244710Y114413D01*
X244713Y114410D01*
X245001Y114207D01*
X245287Y114003D01*
X245291Y114001D01*
X245295Y113999D01*
X245597Y113832D01*
X245911Y113659D01*
X245915Y113657D01*
X245919Y113655D01*
X246242Y113522D01*
X246569Y113386D01*
X246573Y113385D01*
X246577Y113384D01*
X246911Y113288D01*
X247254Y113189D01*
X247258Y113189D01*
X247262Y113188D01*
X247613Y113129D01*
X247956Y113070D01*
X247960Y113070D01*
X247965Y113069D01*
X248665Y113031D01*
X332474Y113031D01*
X336675Y111291D01*
X352591Y95375D01*
X354331Y91174D01*
X354331Y89536D01*
X354341Y89356D01*
X354341Y89176D01*
X354361Y89001D01*
X354371Y88825D01*
X354401Y88647D01*
X354421Y88468D01*
X354461Y88296D01*
X354490Y88123D01*
X354540Y87950D01*
X354580Y87774D01*
X354639Y87607D01*
X354687Y87438D01*
X354757Y87272D01*
X354816Y87101D01*
X354893Y86943D01*
X354960Y86780D01*
X355048Y86622D01*
X355126Y86460D01*
X355220Y86311D01*
X355305Y86157D01*
X355409Y86010D01*
X355506Y85857D01*
X355616Y85719D01*
X355717Y85576D01*
X355838Y85442D01*
X355950Y85300D01*
X356075Y85176D01*
X356192Y85045D01*
X356327Y84925D01*
X356455Y84797D01*
X356593Y84687D01*
X356724Y84570D01*
X356871Y84466D01*
X357012Y84354D01*
X357161Y84260D01*
X357305Y84158D01*
X357463Y84071D01*
X357616Y83975D01*
X357775Y83899D01*
X357929Y83814D01*
X358095Y83745D01*
X358258Y83667D01*
X358425Y83609D01*
X358587Y83542D01*
X358761Y83492D01*
X358931Y83433D01*
X359103Y83394D01*
X359272Y83345D01*
X359450Y83315D01*
X359626Y83275D01*
X359801Y83256D01*
X359974Y83227D01*
X360154Y83217D01*
X360334Y83197D01*
X360510Y83197D01*
X360686Y83187D01*
X360866Y83197D01*
X361046Y83198D01*
X361221Y83218D01*
X361397Y83228D01*
X361574Y83258D01*
X361754Y83279D01*
X361926Y83318D01*
X361951Y83322D01*
X361951Y63500D01*
X361951Y43982D01*
X361653Y44154D01*
X361417Y44335D01*
X361168Y44505D01*
X360924Y44678D01*
X360875Y44705D01*
X360828Y44737D01*
X360563Y44877D01*
X360300Y45022D01*
X360248Y45043D01*
X360198Y45069D01*
X359919Y45179D01*
X359641Y45294D01*
X359587Y45309D01*
X359535Y45330D01*
X359245Y45407D01*
X358957Y45490D01*
X358901Y45499D01*
X358847Y45514D01*
X358550Y45559D01*
X358254Y45608D01*
X358198Y45612D01*
X358142Y45620D01*
X357843Y45631D01*
X357543Y45647D01*
X357487Y45644D01*
X357430Y45646D01*
X357131Y45624D01*
X356832Y45607D01*
X356776Y45597D01*
X356720Y45593D01*
X356425Y45537D01*
X356129Y45486D01*
X356075Y45471D01*
X356020Y45460D01*
X355733Y45371D01*
X355445Y45288D01*
X355393Y45266D01*
X355339Y45250D01*
X355065Y45130D01*
X354787Y45014D01*
X354738Y44987D01*
X354687Y44964D01*
X354427Y44814D01*
X354164Y44669D01*
X354119Y44636D01*
X354070Y44608D01*
X353828Y44429D01*
X353584Y44255D01*
X353542Y44218D01*
X353497Y44184D01*
X353291Y43993D01*
X353062Y43788D01*
X351102Y41828D01*
X347066Y40156D01*
X346905Y40078D01*
X346739Y40010D01*
X346584Y39924D01*
X346424Y39847D01*
X346273Y39752D01*
X346116Y39665D01*
X345972Y39562D01*
X345821Y39468D01*
X345681Y39356D01*
X345535Y39252D01*
X345403Y39135D01*
X345264Y39023D01*
X345137Y38897D01*
X345004Y38778D01*
X344886Y38645D01*
X344760Y38520D01*
X344649Y38380D01*
X344530Y38246D01*
X344427Y38101D01*
X344316Y37962D01*
X344221Y37811D01*
X344118Y37665D01*
X344032Y37509D01*
X343937Y37359D01*
X343860Y37198D01*
X343773Y37041D01*
X343706Y36877D01*
X343629Y36717D01*
X343570Y36548D01*
X343501Y36383D01*
X343452Y36212D01*
X343394Y36045D01*
X343354Y35870D01*
X343305Y35698D01*
X343275Y35523D01*
X343236Y35350D01*
X343216Y35172D01*
X343186Y34996D01*
X343176Y34819D01*
X343156Y34642D01*
X343156Y34463D01*
X343146Y34284D01*
X343157Y34107D01*
X343157Y33930D01*
X343177Y33752D01*
X343187Y33573D01*
X343217Y33398D01*
X343237Y33222D01*
X343277Y33047D01*
X343307Y32871D01*
X343356Y32700D01*
X343396Y32527D01*
X343455Y32358D01*
X343505Y32186D01*
X343573Y32022D01*
X343632Y31855D01*
X343710Y31694D01*
X343778Y31529D01*
X343864Y31373D01*
X343942Y31213D01*
X344037Y31062D01*
X344124Y30905D01*
X344227Y30761D01*
X344321Y30611D01*
X344433Y30470D01*
X344537Y30325D01*
X344655Y30193D01*
X344766Y30054D01*
X344893Y29928D01*
X345012Y29794D01*
X345145Y29676D01*
X345270Y29551D01*
X345410Y29440D01*
X345544Y29320D01*
X345689Y29218D01*
X345828Y29107D01*
X345980Y29012D01*
X346126Y28909D01*
X346281Y28823D01*
X346432Y28729D01*
X346593Y28652D01*
X346750Y28565D01*
X346914Y28498D01*
X347074Y28421D01*
X347243Y28362D01*
X347408Y28294D01*
X347579Y28245D01*
X347747Y28186D01*
X347921Y28147D01*
X348093Y28098D01*
X348268Y28068D01*
X348441Y28029D01*
X348619Y28009D01*
X348796Y27979D01*
X348976Y27969D01*
X349149Y27950D01*
X349320Y27950D01*
X349496Y27941D01*
X399035Y27941D01*
X399040Y27941D01*
X399044Y27941D01*
X399397Y27961D01*
X399747Y27981D01*
X399751Y27981D01*
X399755Y27982D01*
X400106Y28042D01*
X400449Y28100D01*
X400453Y28101D01*
X400457Y28102D01*
X400809Y28204D01*
X401133Y28297D01*
X401137Y28299D01*
X401142Y28300D01*
X401468Y28436D01*
X401792Y28570D01*
X401796Y28572D01*
X401799Y28574D01*
X402106Y28744D01*
X402415Y28915D01*
X402418Y28917D01*
X402422Y28920D01*
X402721Y29132D01*
X402996Y29327D01*
X402999Y29330D01*
X403003Y29333D01*
X403525Y29800D01*
X405810Y32085D01*
X405810Y32086D01*
X405811Y32086D01*
X405813Y32089D01*
X405816Y32091D01*
X406050Y32354D01*
X406284Y32616D01*
X406287Y32620D01*
X406290Y32623D01*
X406491Y32908D01*
X406697Y33197D01*
X406699Y33201D01*
X406701Y33205D01*
X406872Y33515D01*
X407041Y33821D01*
X407043Y33825D01*
X407045Y33829D01*
X407179Y34153D01*
X407314Y34479D01*
X407315Y34483D01*
X407316Y34487D01*
X407413Y34823D01*
X407511Y35164D01*
X407511Y35168D01*
X407512Y35172D01*
X407572Y35528D01*
X407630Y35866D01*
X407630Y35870D01*
X407631Y35875D01*
X407669Y36575D01*
X407669Y37464D01*
X407659Y37644D01*
X407659Y37824D01*
X407639Y37999D01*
X407629Y38175D01*
X407599Y38353D01*
X407579Y38532D01*
X407539Y38704D01*
X407510Y38877D01*
X407460Y39050D01*
X407420Y39226D01*
X407361Y39393D01*
X407313Y39562D01*
X407243Y39728D01*
X407184Y39899D01*
X407107Y40057D01*
X407040Y40220D01*
X406952Y40378D01*
X406874Y40540D01*
X406780Y40689D01*
X406695Y40843D01*
X406591Y40990D01*
X406494Y41143D01*
X406384Y41281D01*
X406283Y41424D01*
X406162Y41558D01*
X406050Y41700D01*
X405925Y41824D01*
X405808Y41955D01*
X405673Y42075D01*
X405545Y42203D01*
X405407Y42313D01*
X405276Y42430D01*
X405129Y42534D01*
X404988Y42646D01*
X404839Y42740D01*
X404695Y42842D01*
X404537Y42929D01*
X404384Y43025D01*
X404225Y43101D01*
X404071Y43186D01*
X403905Y43255D01*
X403742Y43333D01*
X403575Y43391D01*
X403413Y43458D01*
X403239Y43508D01*
X403069Y43567D01*
X402897Y43606D01*
X402728Y43655D01*
X402550Y43685D01*
X402374Y43725D01*
X402199Y43744D01*
X402026Y43773D01*
X401846Y43783D01*
X401666Y43803D01*
X401490Y43803D01*
X401314Y43813D01*
X401134Y43803D01*
X400954Y43802D01*
X400779Y43782D01*
X400603Y43772D01*
X400426Y43742D01*
X400246Y43721D01*
X400074Y43682D01*
X400049Y43678D01*
X400049Y63500D01*
X400049Y83018D01*
X400347Y82846D01*
X400583Y82665D01*
X400832Y82495D01*
X401076Y82322D01*
X401125Y82295D01*
X401172Y82263D01*
X401437Y82123D01*
X401700Y81978D01*
X401752Y81957D01*
X401802Y81931D01*
X402082Y81821D01*
X402358Y81706D01*
X402412Y81691D01*
X402465Y81670D01*
X402755Y81593D01*
X403043Y81510D01*
X403099Y81501D01*
X403153Y81486D01*
X403450Y81441D01*
X403746Y81392D01*
X403802Y81389D01*
X403858Y81380D01*
X404158Y81369D01*
X404457Y81353D01*
X404513Y81356D01*
X404570Y81354D01*
X404869Y81376D01*
X405168Y81394D01*
X405224Y81403D01*
X405280Y81407D01*
X405576Y81463D01*
X405871Y81514D01*
X405925Y81530D01*
X405980Y81540D01*
X406267Y81629D01*
X406555Y81712D01*
X406607Y81734D01*
X406661Y81750D01*
X406935Y81870D01*
X407213Y81986D01*
X407262Y82013D01*
X407314Y82036D01*
X407573Y82186D01*
X407836Y82331D01*
X407881Y82364D01*
X407930Y82392D01*
X408171Y82571D01*
X408416Y82745D01*
X408458Y82783D01*
X408503Y82816D01*
X408709Y83007D01*
X408938Y83212D01*
X410641Y84915D01*
X410642Y84917D01*
X410645Y84919D01*
X410891Y85195D01*
X411115Y85446D01*
X411117Y85448D01*
X411119Y85450D01*
X411325Y85741D01*
X411528Y86027D01*
X411529Y86029D01*
X411531Y86032D01*
X411698Y86335D01*
X411872Y86650D01*
X411873Y86653D01*
X411875Y86656D01*
X412012Y86988D01*
X412145Y87309D01*
X412145Y87311D01*
X412146Y87314D01*
X412245Y87656D01*
X412342Y87993D01*
X412342Y87996D01*
X412343Y87999D01*
X412400Y88336D01*
X412461Y88696D01*
X412461Y88699D01*
X412461Y88702D01*
X412481Y89063D01*
X412500Y89407D01*
X412500Y89410D01*
X412500Y89413D01*
X412480Y89761D01*
X412460Y90118D01*
X412460Y90121D01*
X412459Y90124D01*
X412399Y90474D01*
X412340Y90821D01*
X412340Y90823D01*
X412339Y90826D01*
X412242Y91163D01*
X412143Y91505D01*
X412142Y91508D01*
X412141Y91511D01*
X412015Y91813D01*
X411870Y92163D01*
X411868Y92166D01*
X411867Y92168D01*
X411704Y92462D01*
X411525Y92786D01*
X411523Y92789D01*
X411521Y92791D01*
X411328Y93063D01*
X411112Y93367D01*
X411110Y93369D01*
X411108Y93372D01*
X410641Y93894D01*
X409409Y95125D01*
X407669Y99326D01*
X407669Y112525D01*
X407659Y112707D01*
X407659Y112891D01*
X407639Y113063D01*
X407629Y113236D01*
X407599Y113417D01*
X407578Y113599D01*
X407539Y113768D01*
X407510Y113938D01*
X407459Y114114D01*
X407418Y114293D01*
X407360Y114459D01*
X407313Y114623D01*
X407246Y114784D01*
X407186Y114954D01*
X406399Y116854D01*
X406399Y137146D01*
X408333Y141814D01*
X411906Y145387D01*
X416574Y147321D01*
X421626Y147321D01*
X426294Y145387D01*
X427310Y144371D01*
X427313Y144369D01*
X427315Y144367D01*
X427579Y144132D01*
X427842Y143896D01*
X427844Y143895D01*
X427846Y143893D01*
X428134Y143689D01*
X428423Y143484D01*
X428425Y143483D01*
X428428Y143481D01*
X428753Y143302D01*
X429046Y143140D01*
X429049Y143139D01*
X429052Y143137D01*
X429387Y142999D01*
X429705Y142867D01*
X429707Y142866D01*
X429710Y142865D01*
X430062Y142764D01*
X430389Y142670D01*
X430392Y142670D01*
X430395Y142669D01*
X430761Y142607D01*
X431092Y142551D01*
X431094Y142551D01*
X431097Y142550D01*
X431459Y142531D01*
X431803Y142511D01*
X431806Y142512D01*
X431809Y142511D01*
X432164Y142532D01*
X432514Y142552D01*
X432517Y142552D01*
X432520Y142552D01*
X432858Y142610D01*
X433216Y142671D01*
X433219Y142672D01*
X433222Y142673D01*
X433556Y142770D01*
X433901Y142869D01*
X433903Y142870D01*
X433906Y142871D01*
X434234Y143007D01*
X434559Y143142D01*
X434562Y143144D01*
X434564Y143145D01*
X434867Y143313D01*
X435182Y143487D01*
X435185Y143489D01*
X435187Y143490D01*
X435485Y143703D01*
X435763Y143900D01*
X435765Y143902D01*
X435767Y143904D01*
X436290Y144371D01*
X437560Y145641D01*
X437562Y145644D01*
X437566Y145647D01*
X437799Y145909D01*
X438034Y146172D01*
X438037Y146176D01*
X438040Y146179D01*
X438242Y146465D01*
X438447Y146754D01*
X438449Y146757D01*
X438451Y146761D01*
X438623Y147073D01*
X438791Y147377D01*
X438793Y147381D01*
X438795Y147385D01*
X438926Y147703D01*
X439064Y148035D01*
X439065Y148040D01*
X439066Y148043D01*
X439157Y148361D01*
X439261Y148720D01*
X439261Y148724D01*
X439262Y148728D01*
X439320Y149068D01*
X439380Y149422D01*
X439380Y149427D01*
X439381Y149431D01*
X439419Y150131D01*
X439419Y160768D01*
X441159Y164970D01*
X468760Y192571D01*
X472962Y194311D01*
X569215Y194311D01*
X569220Y194311D01*
X569224Y194311D01*
X569577Y194331D01*
X569927Y194351D01*
X569931Y194351D01*
X569935Y194352D01*
X570286Y194412D01*
X570629Y194470D01*
X570633Y194471D01*
X570637Y194472D01*
X570989Y194574D01*
X571314Y194667D01*
X571317Y194669D01*
X571322Y194670D01*
X571648Y194806D01*
X571972Y194940D01*
X571976Y194942D01*
X571979Y194944D01*
X572286Y195114D01*
X572595Y195285D01*
X572598Y195287D01*
X572602Y195290D01*
X572901Y195502D01*
X573176Y195697D01*
X573179Y195700D01*
X573183Y195703D01*
X573705Y196170D01*
X604096Y226562D01*
X604097Y226562D01*
X604102Y226568D01*
X604103Y226568D01*
X608205Y230671D01*
X612406Y232411D01*
X684792Y232411D01*
X684796Y232411D01*
X684800Y232411D01*
X685153Y232431D01*
X685503Y232451D01*
X685507Y232451D01*
X685511Y232452D01*
X685862Y232512D01*
X686205Y232570D01*
X686209Y232571D01*
X686214Y232572D01*
X686564Y232674D01*
X686890Y232767D01*
X686894Y232769D01*
X686898Y232770D01*
X687224Y232906D01*
X687548Y233040D01*
X687552Y233042D01*
X687556Y233044D01*
X687862Y233214D01*
X688171Y233385D01*
X688175Y233387D01*
X688179Y233390D01*
X688477Y233602D01*
X688752Y233797D01*
X688755Y233800D01*
X688759Y233803D01*
X689281Y234270D01*
X766751Y311740D01*
X766752Y311741D01*
X766753Y311742D01*
X766969Y311985D01*
X767226Y312272D01*
X767227Y312273D01*
X767228Y312274D01*
X767428Y312556D01*
X767638Y312853D01*
X767639Y312854D01*
X767640Y312855D01*
X767819Y313179D01*
X767983Y313476D01*
X767983Y313477D01*
X767984Y313479D01*
X768125Y313821D01*
X768255Y314135D01*
X768256Y314136D01*
X768256Y314137D01*
X768361Y314502D01*
X768452Y314819D01*
X768452Y314820D01*
X768453Y314822D01*
X768515Y315188D01*
X768571Y315522D01*
X768571Y315523D01*
X768572Y315524D01*
X768588Y315830D01*
X768611Y316233D01*
X768611Y316234D01*
X768611Y316236D01*
X768592Y316565D01*
X768571Y316944D01*
X768570Y316946D01*
X768570Y316947D01*
X768524Y317217D01*
X768451Y317646D01*
X768450Y317648D01*
X768450Y317649D01*
X768358Y317968D01*
X768253Y318331D01*
X768253Y318332D01*
X768252Y318334D01*
X768114Y318666D01*
X767980Y318989D01*
X767979Y318990D01*
X767979Y318991D01*
X767812Y319292D01*
X767635Y319612D01*
X767634Y319613D01*
X767634Y319615D01*
X767441Y319886D01*
X767222Y320193D01*
X767221Y320194D01*
X767221Y320195D01*
X767012Y320428D01*
X766747Y320724D01*
X766746Y320725D01*
X766745Y320726D01*
X766503Y320941D01*
X766216Y321198D01*
X766214Y321199D01*
X766213Y321200D01*
X765927Y321402D01*
X765634Y321610D01*
X765633Y321610D01*
X765632Y321611D01*
X765338Y321773D01*
X765010Y321954D01*
X765009Y321954D01*
X765008Y321955D01*
X764715Y322075D01*
X764352Y322225D01*
X764350Y322226D01*
X764349Y322226D01*
X764022Y322320D01*
X763667Y322422D01*
X763665Y322422D01*
X763664Y322422D01*
X763325Y322479D01*
X762964Y322540D01*
X762963Y322540D01*
X762962Y322541D01*
X762262Y322579D01*
X760475Y322579D01*
X760470Y322579D01*
X760466Y322579D01*
X760113Y322559D01*
X759763Y322539D01*
X759759Y322539D01*
X759755Y322538D01*
X759404Y322478D01*
X759061Y322420D01*
X759057Y322419D01*
X759053Y322418D01*
X758701Y322316D01*
X758377Y322223D01*
X758373Y322221D01*
X758368Y322220D01*
X758042Y322084D01*
X757718Y321950D01*
X757714Y321948D01*
X757711Y321946D01*
X757404Y321776D01*
X757095Y321605D01*
X757092Y321603D01*
X757088Y321600D01*
X756789Y321388D01*
X756514Y321193D01*
X756511Y321190D01*
X756507Y321187D01*
X755985Y320720D01*
X741805Y306539D01*
X737604Y304799D01*
X574035Y304799D01*
X572136Y305586D01*
X571963Y305647D01*
X571794Y305716D01*
X571627Y305764D01*
X571464Y305821D01*
X571285Y305862D01*
X571109Y305912D01*
X570938Y305941D01*
X570769Y305980D01*
X570587Y306000D01*
X570406Y306031D01*
X570231Y306040D01*
X570061Y306059D01*
X569887Y306059D01*
X569706Y306069D01*
X569226Y306069D01*
X565025Y307809D01*
X549109Y323725D01*
X547369Y327926D01*
X547369Y328425D01*
X547359Y328608D01*
X547359Y328791D01*
X547339Y328963D01*
X547329Y329136D01*
X547299Y329317D01*
X547278Y329499D01*
X547239Y329668D01*
X547210Y329838D01*
X547159Y330014D01*
X547118Y330193D01*
X547060Y330359D01*
X547013Y330523D01*
X546946Y330684D01*
X546886Y330854D01*
X546099Y332754D01*
X546099Y353046D01*
X546886Y354946D01*
X546947Y355119D01*
X547016Y355288D01*
X547064Y355454D01*
X547121Y355618D01*
X547162Y355797D01*
X547212Y355973D01*
X547241Y356143D01*
X547280Y356313D01*
X547300Y356495D01*
X547331Y356675D01*
X547340Y356851D01*
X547359Y357021D01*
X547359Y357195D01*
X547369Y357375D01*
X547369Y391925D01*
X547359Y392107D01*
X547359Y392291D01*
X547339Y392463D01*
X547329Y392636D01*
X547299Y392817D01*
X547278Y392999D01*
X547239Y393168D01*
X547210Y393338D01*
X547159Y393514D01*
X547118Y393693D01*
X547060Y393859D01*
X547013Y394023D01*
X546946Y394184D01*
X546886Y394354D01*
X546099Y396254D01*
X546099Y416546D01*
X546886Y418446D01*
X546947Y418619D01*
X547016Y418788D01*
X547064Y418954D01*
X547121Y419118D01*
X547162Y419297D01*
X547212Y419473D01*
X547241Y419643D01*
X547280Y419813D01*
X547300Y419995D01*
X547331Y420175D01*
X547340Y420351D01*
X547359Y420520D01*
X547359Y420695D01*
X547369Y420875D01*
X547369Y455425D01*
X547359Y455608D01*
X547359Y455791D01*
X547339Y455963D01*
X547329Y456136D01*
X547299Y456317D01*
X547278Y456499D01*
X547239Y456668D01*
X547210Y456838D01*
X547159Y457014D01*
X547118Y457193D01*
X547060Y457359D01*
X547013Y457523D01*
X546946Y457684D01*
X546886Y457854D01*
X546099Y459754D01*
X546099Y480046D01*
X548033Y484714D01*
X551606Y488287D01*
X556274Y490221D01*
X561326Y490221D01*
X566279Y488169D01*
X566480Y488026D01*
X566483Y488025D01*
X566486Y488023D01*
X566799Y487850D01*
X567104Y487682D01*
X567107Y487681D01*
X567109Y487679D01*
X567443Y487541D01*
X567762Y487409D01*
X567765Y487408D01*
X567768Y487407D01*
X568101Y487312D01*
X568447Y487212D01*
X568450Y487212D01*
X568453Y487211D01*
X568805Y487152D01*
X569149Y487093D01*
X569152Y487093D01*
X569155Y487092D01*
X569517Y487073D01*
X569861Y487053D01*
X569864Y487054D01*
X569867Y487053D01*
X570222Y487074D01*
X570572Y487094D01*
X570575Y487094D01*
X570578Y487094D01*
X570933Y487155D01*
X571274Y487213D01*
X571277Y487214D01*
X571280Y487215D01*
X571637Y487318D01*
X571959Y487411D01*
X571961Y487412D01*
X571964Y487413D01*
X572293Y487550D01*
X572617Y487684D01*
X572619Y487686D01*
X572622Y487687D01*
X572924Y487854D01*
X573240Y488029D01*
X573242Y488031D01*
X573245Y488032D01*
X573527Y488233D01*
X573821Y488442D01*
X573823Y488444D01*
X573825Y488446D01*
X574348Y488913D01*
X581016Y495581D01*
X581016Y495582D01*
X587365Y501931D01*
X596944Y511510D01*
X597064Y511644D01*
X597192Y511772D01*
X597302Y511910D01*
X597419Y512041D01*
X597523Y512188D01*
X597636Y512329D01*
X597729Y512478D01*
X597831Y512622D01*
X597918Y512780D01*
X598014Y512933D01*
X598091Y513091D01*
X598176Y513246D01*
X598245Y513412D01*
X598323Y513575D01*
X598381Y513741D01*
X598448Y513904D01*
X598498Y514077D01*
X598557Y514247D01*
X598597Y514420D01*
X598645Y514588D01*
X598675Y514766D01*
X598715Y514942D01*
X598735Y515117D01*
X598764Y515291D01*
X598774Y515471D01*
X598794Y515650D01*
X598794Y515826D01*
X598804Y516002D01*
X598794Y516182D01*
X598793Y516363D01*
X598774Y516538D01*
X598764Y516713D01*
X598733Y516891D01*
X598713Y517070D01*
X598673Y517242D01*
X598644Y517416D01*
X598594Y517589D01*
X598553Y517765D01*
X598495Y517931D01*
X598446Y518100D01*
X598377Y518267D01*
X598317Y518437D01*
X598241Y518596D01*
X598173Y518758D01*
X598086Y518916D01*
X598007Y519078D01*
X597914Y519227D01*
X597828Y519381D01*
X597723Y519529D01*
X597627Y519681D01*
X597517Y519819D01*
X597415Y519962D01*
X597295Y520096D01*
X597182Y520237D01*
X597058Y520362D01*
X596940Y520493D01*
X596806Y520613D01*
X596678Y520740D01*
X596540Y520850D01*
X596409Y520967D01*
X596261Y521071D01*
X596120Y521184D01*
X595971Y521277D01*
X595827Y521379D01*
X595669Y521466D01*
X595516Y521562D01*
X595355Y521639D01*
X595203Y521723D01*
X595044Y521788D01*
X594884Y521865D01*
X588698Y524428D01*
X588690Y524436D01*
X588687Y524438D01*
X588685Y524441D01*
X588424Y524674D01*
X588158Y524911D01*
X588156Y524913D01*
X588154Y524915D01*
X587870Y525115D01*
X587577Y525323D01*
X587575Y525325D01*
X587572Y525326D01*
X587262Y525498D01*
X586954Y525668D01*
X586951Y525669D01*
X586948Y525670D01*
X586625Y525804D01*
X586295Y525940D01*
X586293Y525941D01*
X586290Y525942D01*
X585948Y526040D01*
X585611Y526137D01*
X585608Y526138D01*
X585605Y526139D01*
X585244Y526199D01*
X584908Y526256D01*
X584906Y526257D01*
X584903Y526257D01*
X584543Y526277D01*
X584197Y526296D01*
X584194Y526296D01*
X584191Y526296D01*
X583835Y526276D01*
X583486Y526256D01*
X583483Y526255D01*
X583480Y526255D01*
X583136Y526196D01*
X582784Y526136D01*
X582781Y526135D01*
X582778Y526135D01*
X582450Y526040D01*
X582099Y525938D01*
X582096Y525937D01*
X582094Y525936D01*
X581768Y525801D01*
X581441Y525665D01*
X581439Y525664D01*
X581436Y525663D01*
X581131Y525494D01*
X580818Y525320D01*
X580815Y525319D01*
X580813Y525317D01*
X580521Y525109D01*
X580237Y524908D01*
X580235Y524906D01*
X580233Y524904D01*
X579710Y524436D01*
X579701Y524427D01*
X574380Y522223D01*
X568620Y522223D01*
X563298Y524428D01*
X563290Y524436D01*
X563287Y524438D01*
X563285Y524441D01*
X563024Y524674D01*
X562758Y524911D01*
X562756Y524913D01*
X562754Y524915D01*
X562470Y525115D01*
X562177Y525323D01*
X562175Y525325D01*
X562172Y525326D01*
X561862Y525498D01*
X561554Y525668D01*
X561551Y525669D01*
X561548Y525670D01*
X561225Y525804D01*
X560895Y525940D01*
X560893Y525941D01*
X560890Y525942D01*
X560548Y526040D01*
X560211Y526137D01*
X560208Y526138D01*
X560205Y526139D01*
X559844Y526199D01*
X559508Y526256D01*
X559506Y526257D01*
X559503Y526257D01*
X559143Y526277D01*
X558797Y526296D01*
X558794Y526296D01*
X558791Y526296D01*
X558435Y526276D01*
X558086Y526256D01*
X558083Y526255D01*
X558080Y526255D01*
X557736Y526196D01*
X557384Y526136D01*
X557381Y526135D01*
X557378Y526135D01*
X557050Y526040D01*
X556699Y525938D01*
X556696Y525937D01*
X556694Y525936D01*
X556368Y525801D01*
X556041Y525665D01*
X556039Y525664D01*
X556036Y525663D01*
X555731Y525494D01*
X555418Y525320D01*
X555415Y525319D01*
X555413Y525317D01*
X555121Y525109D01*
X554837Y524908D01*
X554835Y524906D01*
X554833Y524904D01*
X554310Y524436D01*
X554301Y524427D01*
X548980Y522223D01*
X543220Y522223D01*
X537898Y524428D01*
X537890Y524436D01*
X537887Y524438D01*
X537885Y524441D01*
X537624Y524674D01*
X537358Y524911D01*
X537356Y524913D01*
X537354Y524915D01*
X537070Y525115D01*
X536777Y525323D01*
X536775Y525325D01*
X536772Y525326D01*
X536462Y525498D01*
X536154Y525668D01*
X536151Y525669D01*
X536148Y525670D01*
X535825Y525804D01*
X535495Y525940D01*
X535493Y525941D01*
X535490Y525942D01*
X535148Y526040D01*
X534811Y526137D01*
X534808Y526138D01*
X534805Y526139D01*
X534444Y526199D01*
X534108Y526256D01*
X534106Y526257D01*
X534103Y526257D01*
X533743Y526277D01*
X533397Y526296D01*
X533394Y526296D01*
X533391Y526296D01*
X533035Y526276D01*
X532686Y526256D01*
X532683Y526255D01*
X532680Y526255D01*
X532336Y526196D01*
X531984Y526136D01*
X531981Y526135D01*
X531978Y526135D01*
X531650Y526040D01*
X531299Y525938D01*
X531296Y525937D01*
X531294Y525936D01*
X530968Y525801D01*
X530641Y525665D01*
X530639Y525664D01*
X530636Y525663D01*
X530331Y525494D01*
X530018Y525320D01*
X530015Y525319D01*
X530013Y525317D01*
X529721Y525109D01*
X529437Y524908D01*
X529435Y524906D01*
X529433Y524904D01*
X528910Y524436D01*
X528901Y524427D01*
X523580Y522223D01*
X517820Y522223D01*
X515510Y523180D01*
X515340Y523240D01*
X515173Y523309D01*
X515003Y523357D01*
X514837Y523415D01*
X514661Y523456D01*
X514488Y523505D01*
X514315Y523535D01*
X514143Y523574D01*
X513963Y523594D01*
X513786Y523624D01*
X513610Y523634D01*
X513435Y523654D01*
X513254Y523654D01*
X513074Y523664D01*
X512898Y523653D01*
X512722Y523653D01*
X512543Y523633D01*
X512363Y523623D01*
X512189Y523593D01*
X512014Y523573D01*
X511838Y523533D01*
X511661Y523503D01*
X511492Y523454D01*
X511320Y523415D01*
X511149Y523355D01*
X510976Y523305D01*
X510814Y523237D01*
X510648Y523179D01*
X510485Y523101D01*
X510319Y523032D01*
X510164Y522946D01*
X510006Y522870D01*
X509853Y522774D01*
X509695Y522686D01*
X509552Y522584D01*
X509403Y522490D01*
X509262Y522378D01*
X509115Y522273D01*
X508984Y522156D01*
X508846Y522046D01*
X508719Y521918D01*
X508584Y521798D01*
X508467Y521666D01*
X508343Y521542D01*
X508230Y521401D01*
X508110Y521266D01*
X508009Y521122D01*
X507899Y520984D01*
X507803Y520832D01*
X507699Y520684D01*
X507614Y520530D01*
X507520Y520381D01*
X507442Y520218D01*
X507355Y520060D01*
X507288Y519897D01*
X507212Y519739D01*
X507152Y519568D01*
X507084Y519402D01*
X507035Y519232D01*
X506977Y519066D01*
X506937Y518890D01*
X506888Y518717D01*
X506858Y518543D01*
X506819Y518371D01*
X506799Y518192D01*
X506769Y518014D01*
X506760Y517835D01*
X506740Y517663D01*
X506741Y517491D01*
X506731Y517314D01*
X506731Y484375D01*
X506741Y484193D01*
X506741Y484009D01*
X506761Y483837D01*
X506771Y483664D01*
X506801Y483483D01*
X506822Y483301D01*
X506861Y483132D01*
X506890Y482962D01*
X506941Y482786D01*
X506982Y482607D01*
X507040Y482441D01*
X507087Y482277D01*
X507154Y482116D01*
X507214Y481946D01*
X508001Y480046D01*
X508001Y459754D01*
X506067Y455086D01*
X502494Y451513D01*
X497826Y449579D01*
X492774Y449579D01*
X488106Y451513D01*
X487090Y452529D01*
X487087Y452531D01*
X487085Y452533D01*
X486817Y452772D01*
X486558Y453004D01*
X486556Y453005D01*
X486554Y453007D01*
X486261Y453215D01*
X485977Y453416D01*
X485975Y453417D01*
X485972Y453419D01*
X485662Y453590D01*
X485354Y453760D01*
X485351Y453761D01*
X485349Y453763D01*
X485016Y453900D01*
X484695Y454033D01*
X484693Y454034D01*
X484690Y454035D01*
X484345Y454133D01*
X484011Y454230D01*
X484008Y454230D01*
X484005Y454231D01*
X483649Y454291D01*
X483308Y454349D01*
X483306Y454349D01*
X483303Y454350D01*
X482939Y454369D01*
X482597Y454389D01*
X482594Y454388D01*
X482591Y454389D01*
X482238Y454368D01*
X481886Y454348D01*
X481883Y454348D01*
X481880Y454348D01*
X481544Y454290D01*
X481184Y454229D01*
X481181Y454228D01*
X481178Y454227D01*
X480848Y454132D01*
X480499Y454031D01*
X480496Y454030D01*
X480494Y454029D01*
X480157Y453889D01*
X479841Y453758D01*
X479839Y453756D01*
X479836Y453755D01*
X479527Y453584D01*
X479218Y453413D01*
X479215Y453411D01*
X479213Y453410D01*
X478932Y453209D01*
X478637Y453000D01*
X478635Y452998D01*
X478633Y452996D01*
X478110Y452529D01*
X477094Y451513D01*
X472426Y449579D01*
X467374Y449579D01*
X462706Y451513D01*
X461690Y452529D01*
X461688Y452531D01*
X461686Y452533D01*
X461418Y452771D01*
X461158Y453004D01*
X461156Y453005D01*
X461154Y453007D01*
X460861Y453214D01*
X460577Y453416D01*
X460575Y453417D01*
X460572Y453419D01*
X460262Y453590D01*
X459954Y453760D01*
X459951Y453761D01*
X459949Y453763D01*
X459615Y453900D01*
X459296Y454033D01*
X459293Y454034D01*
X459290Y454035D01*
X458946Y454133D01*
X458611Y454230D01*
X458608Y454230D01*
X458605Y454231D01*
X458246Y454292D01*
X457909Y454349D01*
X457906Y454349D01*
X457903Y454350D01*
X457539Y454369D01*
X457197Y454389D01*
X457194Y454388D01*
X457191Y454389D01*
X456838Y454368D01*
X456486Y454348D01*
X456483Y454348D01*
X456480Y454348D01*
X456131Y454288D01*
X455784Y454229D01*
X455781Y454228D01*
X455778Y454227D01*
X455433Y454127D01*
X455099Y454031D01*
X455097Y454030D01*
X455094Y454029D01*
X454778Y453897D01*
X454441Y453758D01*
X454438Y453756D01*
X454436Y453755D01*
X454134Y453588D01*
X453818Y453413D01*
X453816Y453411D01*
X453813Y453410D01*
X453520Y453201D01*
X453237Y453000D01*
X453235Y452998D01*
X453233Y452996D01*
X452710Y452529D01*
X451694Y451513D01*
X447026Y449579D01*
X441974Y449579D01*
X437306Y451513D01*
X436290Y452529D01*
X436288Y452531D01*
X436286Y452533D01*
X436018Y452771D01*
X435758Y453004D01*
X435756Y453005D01*
X435754Y453007D01*
X435461Y453214D01*
X435177Y453416D01*
X435175Y453417D01*
X435172Y453419D01*
X434862Y453590D01*
X434554Y453760D01*
X434551Y453761D01*
X434549Y453763D01*
X434215Y453900D01*
X433896Y454033D01*
X433893Y454034D01*
X433890Y454035D01*
X433546Y454133D01*
X433211Y454230D01*
X433208Y454230D01*
X433205Y454231D01*
X432846Y454292D01*
X432509Y454349D01*
X432506Y454349D01*
X432503Y454350D01*
X432139Y454369D01*
X431797Y454389D01*
X431794Y454388D01*
X431791Y454389D01*
X431438Y454368D01*
X431086Y454348D01*
X431083Y454348D01*
X431080Y454348D01*
X430731Y454288D01*
X430384Y454229D01*
X430381Y454228D01*
X430378Y454227D01*
X430033Y454127D01*
X429699Y454031D01*
X429697Y454030D01*
X429694Y454029D01*
X429378Y453897D01*
X429041Y453758D01*
X429038Y453756D01*
X429036Y453755D01*
X428734Y453588D01*
X428418Y453413D01*
X428416Y453411D01*
X428413Y453410D01*
X428120Y453201D01*
X427837Y453000D01*
X427835Y452998D01*
X427833Y452996D01*
X427310Y452529D01*
X426294Y451513D01*
X421626Y449579D01*
X416574Y449579D01*
X411906Y451513D01*
X408333Y455086D01*
X406399Y459754D01*
X406399Y480046D01*
X407186Y481946D01*
X407247Y482119D01*
X407316Y482288D01*
X407364Y482454D01*
X407421Y482618D01*
X407462Y482797D01*
X407512Y482973D01*
X407541Y483143D01*
X407580Y483313D01*
X407600Y483495D01*
X407631Y483675D01*
X407640Y483851D01*
X407659Y484021D01*
X407659Y484195D01*
X407669Y484375D01*
X407669Y525201D01*
X407659Y525383D01*
X407659Y525567D01*
X407639Y525739D01*
X407629Y525912D01*
X407599Y526093D01*
X407578Y526275D01*
X407539Y526443D01*
X407510Y526614D01*
X407459Y526790D01*
X407418Y526969D01*
X407360Y527135D01*
X407313Y527299D01*
X407246Y527460D01*
X407186Y527630D01*
X405916Y530696D01*
X405915Y530698D01*
X405915Y530699D01*
X405755Y531031D01*
X405607Y531338D01*
X405606Y531339D01*
X405605Y531341D01*
X405411Y531649D01*
X405228Y531941D01*
X405227Y531943D01*
X405226Y531944D01*
X405044Y532172D01*
X404784Y532498D01*
X404782Y532500D01*
X404782Y532501D01*
X404564Y532717D01*
X404280Y533002D01*
X404278Y533003D01*
X404277Y533004D01*
X404009Y533218D01*
X403723Y533446D01*
X403721Y533447D01*
X403720Y533448D01*
X403398Y533650D01*
X403119Y533825D01*
X403118Y533825D01*
X403117Y533826D01*
X402764Y533996D01*
X402477Y534134D01*
X402476Y534134D01*
X402474Y534135D01*
X402123Y534257D01*
X401805Y534369D01*
X401803Y534369D01*
X401802Y534369D01*
X401468Y534445D01*
X401110Y534527D01*
X401108Y534527D01*
X401107Y534527D01*
X400779Y534564D01*
X400402Y534606D01*
X400400Y534606D01*
X400399Y534606D01*
X400038Y534606D01*
X399690Y534606D01*
X399688Y534606D01*
X399687Y534606D01*
X399298Y534561D01*
X398982Y534525D01*
X398980Y534525D01*
X398979Y534525D01*
X398618Y534442D01*
X398287Y534366D01*
X398286Y534366D01*
X398284Y534366D01*
X397967Y534254D01*
X397615Y534130D01*
X397614Y534130D01*
X397612Y534129D01*
X397289Y533973D01*
X396973Y533821D01*
X396972Y533820D01*
X396971Y533819D01*
X396658Y533622D01*
X396371Y533441D01*
X396369Y533440D01*
X396368Y533439D01*
X396111Y533234D01*
X395814Y532996D01*
X395813Y532995D01*
X395812Y532994D01*
X395574Y532756D01*
X395311Y532492D01*
X395310Y532491D01*
X395309Y532490D01*
X395056Y532172D01*
X394867Y531935D01*
X394867Y531933D01*
X394866Y531932D01*
X394677Y531630D01*
X394489Y531331D01*
X394488Y531329D01*
X394488Y531328D01*
X394184Y530696D01*
X392914Y527630D01*
X392854Y527457D01*
X392784Y527288D01*
X392736Y527121D01*
X392679Y526958D01*
X392638Y526779D01*
X392588Y526603D01*
X392559Y526432D01*
X392520Y526263D01*
X392500Y526081D01*
X392469Y525900D01*
X392460Y525725D01*
X392441Y525555D01*
X392441Y525381D01*
X392431Y525201D01*
X392431Y420875D01*
X392441Y420693D01*
X392441Y420509D01*
X392461Y420337D01*
X392471Y420164D01*
X392501Y419983D01*
X392522Y419801D01*
X392561Y419632D01*
X392590Y419462D01*
X392641Y419286D01*
X392682Y419107D01*
X392740Y418941D01*
X392787Y418777D01*
X392854Y418616D01*
X392914Y418446D01*
X393701Y416546D01*
X393701Y396254D01*
X391767Y391586D01*
X388194Y388013D01*
X383526Y386079D01*
X378474Y386079D01*
X373806Y388013D01*
X372790Y389029D01*
X372788Y389031D01*
X372786Y389033D01*
X372518Y389271D01*
X372258Y389504D01*
X372256Y389505D01*
X372254Y389507D01*
X371961Y389714D01*
X371677Y389916D01*
X371675Y389917D01*
X371672Y389919D01*
X371362Y390090D01*
X371054Y390260D01*
X371051Y390261D01*
X371049Y390263D01*
X370715Y390400D01*
X370396Y390533D01*
X370393Y390534D01*
X370390Y390535D01*
X370046Y390633D01*
X369711Y390730D01*
X369708Y390730D01*
X369705Y390731D01*
X369346Y390792D01*
X369009Y390849D01*
X369006Y390849D01*
X369003Y390850D01*
X368639Y390869D01*
X368297Y390889D01*
X368294Y390888D01*
X368291Y390889D01*
X367938Y390868D01*
X367586Y390848D01*
X367583Y390848D01*
X367580Y390848D01*
X367231Y390788D01*
X366884Y390729D01*
X366881Y390728D01*
X366878Y390727D01*
X366533Y390627D01*
X366199Y390531D01*
X366197Y390530D01*
X366194Y390529D01*
X365878Y390397D01*
X365541Y390258D01*
X365538Y390256D01*
X365536Y390255D01*
X365234Y390088D01*
X364918Y389913D01*
X364916Y389911D01*
X364913Y389910D01*
X364620Y389701D01*
X364337Y389500D01*
X364335Y389498D01*
X364333Y389496D01*
X363810Y389029D01*
X362794Y388013D01*
X358126Y386079D01*
X353074Y386079D01*
X348406Y388013D01*
X344833Y391586D01*
X342899Y396254D01*
X342899Y416546D01*
X343686Y418446D01*
X343747Y418619D01*
X343816Y418788D01*
X343864Y418954D01*
X343921Y419118D01*
X343962Y419297D01*
X344012Y419473D01*
X344041Y419643D01*
X344080Y419813D01*
X344100Y419995D01*
X344131Y420175D01*
X344140Y420351D01*
X344159Y420521D01*
X344159Y420695D01*
X344169Y420875D01*
X344169Y426975D01*
X344169Y426977D01*
X344169Y426978D01*
X344151Y427306D01*
X344129Y427687D01*
X344129Y427688D01*
X344129Y427690D01*
X344064Y428073D01*
X344010Y428389D01*
X344010Y428390D01*
X344009Y428392D01*
X343904Y428757D01*
X343813Y429074D01*
X343812Y429075D01*
X343812Y429076D01*
X343679Y429395D01*
X343540Y429732D01*
X343539Y429733D01*
X343539Y429734D01*
X343374Y430032D01*
X343195Y430355D01*
X343194Y430356D01*
X343193Y430358D01*
X342978Y430660D01*
X342783Y430936D01*
X342782Y430937D01*
X342781Y430938D01*
X342545Y431202D01*
X342308Y431467D01*
X342307Y431468D01*
X342306Y431469D01*
X342012Y431731D01*
X341776Y431941D01*
X341775Y431942D01*
X341774Y431943D01*
X341496Y432140D01*
X341195Y432353D01*
X341193Y432354D01*
X341192Y432355D01*
X340905Y432513D01*
X340571Y432698D01*
X340570Y432698D01*
X340569Y432699D01*
X340235Y432836D01*
X339913Y432970D01*
X339911Y432970D01*
X339910Y432971D01*
X339576Y433066D01*
X339228Y433167D01*
X339227Y433167D01*
X339225Y433167D01*
X338853Y433230D01*
X338526Y433285D01*
X338524Y433285D01*
X338523Y433286D01*
X338139Y433307D01*
X337814Y433325D01*
X337813Y433325D01*
X337811Y433325D01*
X337440Y433303D01*
X337103Y433284D01*
X337102Y433284D01*
X337100Y433284D01*
X336723Y433219D01*
X336401Y433164D01*
X336400Y433164D01*
X336398Y433163D01*
X336027Y433056D01*
X335716Y432966D01*
X335715Y432966D01*
X335714Y432965D01*
X335379Y432826D01*
X335059Y432693D01*
X335057Y432692D01*
X335056Y432691D01*
X334753Y432524D01*
X334435Y432347D01*
X334434Y432346D01*
X334433Y432346D01*
X334126Y432127D01*
X333855Y431934D01*
X333854Y431933D01*
X333853Y431933D01*
X333330Y431465D01*
X317533Y415667D01*
X317532Y415667D01*
X311184Y409318D01*
X311183Y409318D01*
X306660Y404795D01*
X306658Y404792D01*
X306654Y404789D01*
X306420Y404526D01*
X306186Y404264D01*
X306183Y404260D01*
X306180Y404257D01*
X305979Y403972D01*
X305773Y403683D01*
X305771Y403679D01*
X305769Y403675D01*
X305598Y403365D01*
X305429Y403059D01*
X305427Y403055D01*
X305425Y403051D01*
X305291Y402727D01*
X305156Y402401D01*
X305155Y402397D01*
X305154Y402393D01*
X305060Y402065D01*
X304959Y401716D01*
X304959Y401712D01*
X304958Y401708D01*
X304899Y401361D01*
X304840Y401014D01*
X304840Y401010D01*
X304839Y401005D01*
X304801Y400305D01*
X304801Y396254D01*
X302867Y391586D01*
X299294Y388013D01*
X294626Y386079D01*
X289574Y386079D01*
X284906Y388013D01*
X283890Y389029D01*
X283888Y389031D01*
X283886Y389033D01*
X283618Y389271D01*
X283358Y389504D01*
X283356Y389505D01*
X283354Y389507D01*
X283061Y389714D01*
X282777Y389916D01*
X282775Y389917D01*
X282772Y389919D01*
X282462Y390090D01*
X282154Y390260D01*
X282151Y390261D01*
X282149Y390263D01*
X281815Y390400D01*
X281496Y390533D01*
X281493Y390534D01*
X281490Y390535D01*
X281146Y390633D01*
X280811Y390730D01*
X280808Y390730D01*
X280805Y390731D01*
X280446Y390792D01*
X280109Y390849D01*
X280106Y390849D01*
X280103Y390850D01*
X279739Y390869D01*
X279397Y390889D01*
X279394Y390888D01*
X279391Y390889D01*
X279038Y390868D01*
X278686Y390848D01*
X278683Y390848D01*
X278680Y390848D01*
X278331Y390788D01*
X277984Y390729D01*
X277981Y390728D01*
X277978Y390727D01*
X277633Y390627D01*
X277299Y390531D01*
X277297Y390530D01*
X277294Y390529D01*
X276978Y390397D01*
X276641Y390258D01*
X276638Y390256D01*
X276636Y390255D01*
X276334Y390088D01*
X276018Y389913D01*
X276016Y389911D01*
X276013Y389910D01*
X275720Y389701D01*
X275437Y389500D01*
X275435Y389498D01*
X275433Y389496D01*
X274910Y389029D01*
X273894Y388013D01*
X269226Y386079D01*
X264174Y386079D01*
X259506Y388013D01*
X255933Y391586D01*
X253999Y396254D01*
X253999Y416546D01*
X254786Y418446D01*
X254847Y418619D01*
X254916Y418788D01*
X254964Y418954D01*
X255021Y419118D01*
X255062Y419297D01*
X255112Y419473D01*
X255141Y419643D01*
X255180Y419813D01*
X255200Y419995D01*
X255231Y420175D01*
X255240Y420351D01*
X255259Y420521D01*
X255259Y420695D01*
X255269Y420875D01*
X255269Y421374D01*
X257009Y425575D01*
X291510Y460075D01*
X291512Y460078D01*
X291516Y460081D01*
X291750Y460344D01*
X291984Y460606D01*
X291987Y460610D01*
X291990Y460613D01*
X292191Y460898D01*
X292397Y461187D01*
X292399Y461191D01*
X292401Y461195D01*
X292572Y461505D01*
X292741Y461811D01*
X292743Y461815D01*
X292745Y461819D01*
X292879Y462143D01*
X293014Y462469D01*
X293015Y462473D01*
X293016Y462477D01*
X293113Y462816D01*
X293211Y463154D01*
X293211Y463158D01*
X293212Y463162D01*
X293272Y463518D01*
X293330Y463856D01*
X293330Y463860D01*
X293331Y463865D01*
X293369Y464565D01*
X293369Y477775D01*
X293369Y477777D01*
X293369Y477778D01*
X293351Y478106D01*
X293329Y478487D01*
X293329Y478488D01*
X293329Y478489D01*
X293265Y478867D01*
X293210Y479189D01*
X293210Y479190D01*
X293209Y479192D01*
X293104Y479557D01*
X293013Y479874D01*
X293012Y479875D01*
X293012Y479876D01*
X292879Y480195D01*
X292740Y480532D01*
X292739Y480533D01*
X292739Y480534D01*
X292558Y480861D01*
X292395Y481155D01*
X292394Y481156D01*
X292393Y481158D01*
X292170Y481471D01*
X291983Y481736D01*
X291982Y481737D01*
X291981Y481738D01*
X291738Y482009D01*
X291508Y482267D01*
X291507Y482268D01*
X291506Y482269D01*
X291247Y482500D01*
X290976Y482741D01*
X290975Y482742D01*
X290974Y482743D01*
X290708Y482931D01*
X290395Y483153D01*
X290393Y483154D01*
X290392Y483155D01*
X290090Y483322D01*
X289771Y483498D01*
X289770Y483498D01*
X289769Y483499D01*
X289424Y483641D01*
X289113Y483770D01*
X289111Y483770D01*
X289110Y483771D01*
X288776Y483866D01*
X288428Y483967D01*
X288427Y483967D01*
X288425Y483967D01*
X288053Y484030D01*
X287726Y484085D01*
X287724Y484085D01*
X287723Y484086D01*
X287339Y484107D01*
X287014Y484125D01*
X287013Y484125D01*
X287011Y484125D01*
X286640Y484103D01*
X286303Y484084D01*
X286302Y484084D01*
X286300Y484084D01*
X285923Y484019D01*
X285601Y483964D01*
X285600Y483964D01*
X285598Y483963D01*
X285227Y483856D01*
X284916Y483766D01*
X284915Y483766D01*
X284914Y483765D01*
X284579Y483626D01*
X284259Y483493D01*
X284257Y483492D01*
X284256Y483491D01*
X283934Y483313D01*
X283635Y483147D01*
X283634Y483146D01*
X283633Y483146D01*
X283326Y482927D01*
X283055Y482734D01*
X283054Y482733D01*
X283053Y482733D01*
X282530Y482265D01*
X281260Y480995D01*
X281258Y480992D01*
X281254Y480989D01*
X281020Y480726D01*
X280786Y480464D01*
X280783Y480460D01*
X280780Y480457D01*
X280579Y480172D01*
X280373Y479883D01*
X280371Y479879D01*
X280369Y479875D01*
X280189Y479549D01*
X280029Y479259D01*
X280027Y479255D01*
X280025Y479251D01*
X279888Y478918D01*
X279756Y478601D01*
X279755Y478597D01*
X279754Y478593D01*
X279654Y478245D01*
X279559Y477916D01*
X279559Y477912D01*
X279558Y477908D01*
X279498Y477552D01*
X279440Y477214D01*
X279440Y477210D01*
X279439Y477205D01*
X279401Y476505D01*
X279401Y472454D01*
X277467Y467786D01*
X273894Y464213D01*
X269226Y462279D01*
X264174Y462279D01*
X259506Y464213D01*
X258490Y465229D01*
X258488Y465231D01*
X258486Y465233D01*
X258218Y465471D01*
X257958Y465704D01*
X257956Y465705D01*
X257954Y465707D01*
X257661Y465914D01*
X257377Y466116D01*
X257375Y466117D01*
X257372Y466119D01*
X257062Y466290D01*
X256754Y466460D01*
X256751Y466461D01*
X256749Y466463D01*
X256415Y466600D01*
X256096Y466733D01*
X256093Y466734D01*
X256090Y466735D01*
X255746Y466833D01*
X255411Y466930D01*
X255408Y466930D01*
X255405Y466931D01*
X255046Y466992D01*
X254709Y467049D01*
X254706Y467049D01*
X254703Y467050D01*
X254339Y467069D01*
X253997Y467089D01*
X253994Y467088D01*
X253991Y467089D01*
X253638Y467068D01*
X253286Y467048D01*
X253283Y467048D01*
X253280Y467048D01*
X252931Y466988D01*
X252584Y466929D01*
X252581Y466928D01*
X252578Y466927D01*
X252233Y466827D01*
X251899Y466731D01*
X251897Y466730D01*
X251894Y466729D01*
X251578Y466597D01*
X251241Y466458D01*
X251238Y466456D01*
X251236Y466455D01*
X250934Y466288D01*
X250618Y466113D01*
X250616Y466111D01*
X250613Y466110D01*
X250320Y465901D01*
X250037Y465700D01*
X250035Y465698D01*
X250033Y465696D01*
X249510Y465229D01*
X248494Y464213D01*
X243826Y462279D01*
X238774Y462279D01*
X234106Y464213D01*
X230533Y467786D01*
X228599Y472454D01*
X228599Y492746D01*
X230533Y497414D01*
X234106Y500987D01*
X234529Y501162D01*
X234533Y501164D01*
X234537Y501166D01*
X234855Y501319D01*
X235170Y501471D01*
X235174Y501474D01*
X235178Y501476D01*
X235481Y501666D01*
X235774Y501851D01*
X235777Y501853D01*
X235781Y501856D01*
X236066Y502084D01*
X236331Y502295D01*
X236333Y502298D01*
X236337Y502301D01*
X236595Y502559D01*
X236834Y502799D01*
X236837Y502802D01*
X236840Y502805D01*
X237057Y503078D01*
X237278Y503356D01*
X237281Y503360D01*
X237283Y503363D01*
X237465Y503653D01*
X237657Y503959D01*
X237659Y503963D01*
X237661Y503967D01*
X237958Y504584D01*
X240710Y507336D01*
X240712Y507339D01*
X240716Y507342D01*
X240950Y507605D01*
X241184Y507867D01*
X241187Y507871D01*
X241190Y507874D01*
X241391Y508159D01*
X241597Y508448D01*
X241599Y508452D01*
X241601Y508455D01*
X241772Y508766D01*
X241941Y509072D01*
X241943Y509076D01*
X241945Y509080D01*
X242079Y509404D01*
X242214Y509730D01*
X242215Y509734D01*
X242216Y509738D01*
X242313Y510077D01*
X242411Y510415D01*
X242411Y510419D01*
X242412Y510423D01*
X242470Y510766D01*
X242530Y511117D01*
X242530Y511121D01*
X242531Y511126D01*
X242569Y511826D01*
X242569Y520064D01*
X242559Y520244D01*
X242559Y520424D01*
X242539Y520599D01*
X242529Y520775D01*
X242499Y520953D01*
X242479Y521132D01*
X242439Y521304D01*
X242410Y521477D01*
X242360Y521650D01*
X242320Y521826D01*
X242261Y521993D01*
X242213Y522162D01*
X242143Y522328D01*
X242084Y522499D01*
X242007Y522657D01*
X241940Y522820D01*
X241852Y522978D01*
X241774Y523140D01*
X241680Y523289D01*
X241595Y523443D01*
X241491Y523590D01*
X241394Y523743D01*
X241284Y523881D01*
X241183Y524024D01*
X241062Y524158D01*
X240950Y524300D01*
X240825Y524424D01*
X240708Y524555D01*
X240573Y524675D01*
X240445Y524803D01*
X240307Y524913D01*
X240176Y525030D01*
X240029Y525134D01*
X239888Y525246D01*
X239739Y525340D01*
X239595Y525442D01*
X239437Y525529D01*
X239284Y525625D01*
X239125Y525701D01*
X238971Y525786D01*
X238805Y525855D01*
X238642Y525933D01*
X238475Y525991D01*
X238313Y526058D01*
X238139Y526108D01*
X237969Y526167D01*
X237797Y526206D01*
X237628Y526255D01*
X237450Y526285D01*
X237274Y526325D01*
X237099Y526344D01*
X236926Y526373D01*
X236746Y526383D01*
X236566Y526403D01*
X236390Y526403D01*
X236214Y526413D01*
X236034Y526403D01*
X235854Y526402D01*
X235679Y526382D01*
X235503Y526372D01*
X235326Y526342D01*
X235146Y526321D01*
X234974Y526282D01*
X234949Y526278D01*
X234949Y546100D01*
X234949Y565618D01*
X235247Y565446D01*
X235483Y565265D01*
X235732Y565095D01*
X235976Y564922D01*
X236025Y564895D01*
X236072Y564863D01*
X236337Y564723D01*
X236600Y564578D01*
X236652Y564557D01*
X236702Y564531D01*
X236981Y564421D01*
X237259Y564306D01*
X237313Y564291D01*
X237365Y564270D01*
X237655Y564193D01*
X237943Y564110D01*
X237999Y564101D01*
X238053Y564086D01*
X238350Y564041D01*
X238646Y563992D01*
X238702Y563988D01*
X238758Y563980D01*
X239057Y563969D01*
X239357Y563953D01*
X239413Y563956D01*
X239470Y563954D01*
X239769Y563976D01*
X240068Y563993D01*
X240124Y564003D01*
X240180Y564007D01*
X240475Y564063D01*
X240771Y564114D01*
X240825Y564129D01*
X240880Y564140D01*
X241167Y564229D01*
X241455Y564312D01*
X241507Y564334D01*
X241561Y564350D01*
X241835Y564470D01*
X242113Y564586D01*
X242162Y564613D01*
X242213Y564636D01*
X242473Y564786D01*
X242736Y564931D01*
X242781Y564964D01*
X242830Y564992D01*
X243072Y565171D01*
X243316Y565345D01*
X243358Y565382D01*
X243403Y565416D01*
X243609Y565607D01*
X243838Y565812D01*
X245798Y567772D01*
X251120Y569977D01*
X256880Y569977D01*
X262201Y567773D01*
X262210Y567764D01*
X262213Y567762D01*
X262214Y567760D01*
X262486Y567518D01*
X262742Y567289D01*
X262744Y567287D01*
X262746Y567285D01*
X263040Y567077D01*
X263323Y566877D01*
X263325Y566875D01*
X263328Y566874D01*
X263638Y566703D01*
X263946Y566532D01*
X263949Y566531D01*
X263951Y566530D01*
X264275Y566396D01*
X264604Y566260D01*
X264607Y566259D01*
X264610Y566258D01*
X264936Y566164D01*
X265289Y566063D01*
X265292Y566062D01*
X265295Y566061D01*
X265642Y566003D01*
X265991Y565944D01*
X265994Y565943D01*
X265997Y565943D01*
X266357Y565923D01*
X266703Y565904D01*
X266706Y565904D01*
X266709Y565904D01*
X267065Y565924D01*
X267414Y565944D01*
X267417Y565945D01*
X267420Y565945D01*
X267763Y566004D01*
X268116Y566064D01*
X268119Y566065D01*
X268122Y566065D01*
X268470Y566166D01*
X268801Y566262D01*
X268803Y566263D01*
X268806Y566263D01*
X269146Y566405D01*
X269459Y566535D01*
X269461Y566536D01*
X269464Y566537D01*
X269782Y566714D01*
X270082Y566880D01*
X270084Y566881D01*
X270087Y566883D01*
X270378Y567090D01*
X270663Y567292D01*
X270665Y567294D01*
X270667Y567296D01*
X271190Y567764D01*
X271198Y567772D01*
X276520Y569977D01*
X282280Y569977D01*
X287601Y567773D01*
X287610Y567764D01*
X287613Y567762D01*
X287614Y567760D01*
X287886Y567518D01*
X288142Y567289D01*
X288144Y567287D01*
X288146Y567285D01*
X288440Y567077D01*
X288723Y566877D01*
X288725Y566875D01*
X288728Y566874D01*
X289038Y566703D01*
X289346Y566532D01*
X289349Y566531D01*
X289351Y566530D01*
X289675Y566396D01*
X290004Y566260D01*
X290007Y566259D01*
X290010Y566258D01*
X290336Y566164D01*
X290689Y566063D01*
X290692Y566062D01*
X290695Y566061D01*
X291042Y566003D01*
X291391Y565944D01*
X291394Y565943D01*
X291397Y565943D01*
X291757Y565923D01*
X292103Y565904D01*
X292106Y565904D01*
X292109Y565904D01*
X292465Y565924D01*
X292814Y565944D01*
X292817Y565945D01*
X292820Y565945D01*
X293163Y566004D01*
X293516Y566064D01*
X293519Y566065D01*
X293522Y566065D01*
X293870Y566166D01*
X294201Y566262D01*
X294203Y566263D01*
X294206Y566263D01*
X294546Y566405D01*
X294859Y566535D01*
X294861Y566536D01*
X294864Y566537D01*
X295182Y566714D01*
X295482Y566880D01*
X295484Y566881D01*
X295487Y566883D01*
X295778Y567090D01*
X296063Y567292D01*
X296065Y567294D01*
X296067Y567296D01*
X296590Y567764D01*
X296598Y567772D01*
X301920Y569977D01*
X307680Y569977D01*
X313001Y567773D01*
X313010Y567764D01*
X313013Y567762D01*
X313014Y567760D01*
X313286Y567518D01*
X313542Y567289D01*
X313544Y567287D01*
X313546Y567285D01*
X313840Y567077D01*
X314123Y566877D01*
X314125Y566875D01*
X314128Y566874D01*
X314438Y566703D01*
X314746Y566532D01*
X314749Y566531D01*
X314751Y566530D01*
X315075Y566396D01*
X315404Y566260D01*
X315407Y566259D01*
X315410Y566258D01*
X315736Y566164D01*
X316089Y566063D01*
X316092Y566062D01*
X316095Y566061D01*
X316442Y566003D01*
X316791Y565944D01*
X316794Y565943D01*
X316797Y565943D01*
X317157Y565923D01*
X317503Y565904D01*
X317506Y565904D01*
X317509Y565904D01*
X317865Y565924D01*
X318214Y565944D01*
X318217Y565945D01*
X318220Y565945D01*
X318563Y566004D01*
X318916Y566064D01*
X318919Y566065D01*
X318922Y566065D01*
X319270Y566166D01*
X319601Y566262D01*
X319603Y566263D01*
X319606Y566263D01*
X319946Y566405D01*
X320259Y566535D01*
X320261Y566536D01*
X320264Y566537D01*
X320582Y566714D01*
X320882Y566880D01*
X320884Y566881D01*
X320887Y566883D01*
X321178Y567090D01*
X321463Y567292D01*
X321465Y567294D01*
X321467Y567296D01*
X321990Y567764D01*
X321998Y567772D01*
X327320Y569977D01*
X333080Y569977D01*
X338401Y567773D01*
X338410Y567764D01*
X338413Y567762D01*
X338414Y567760D01*
X338686Y567518D01*
X338942Y567289D01*
X338944Y567287D01*
X338946Y567285D01*
X339240Y567077D01*
X339523Y566877D01*
X339525Y566875D01*
X339528Y566874D01*
X339838Y566703D01*
X340146Y566532D01*
X340149Y566531D01*
X340151Y566530D01*
X340475Y566396D01*
X340804Y566260D01*
X340807Y566259D01*
X340810Y566258D01*
X341136Y566164D01*
X341489Y566063D01*
X341492Y566062D01*
X341495Y566061D01*
X341842Y566003D01*
X342191Y565944D01*
X342194Y565943D01*
X342197Y565943D01*
X342557Y565923D01*
X342903Y565904D01*
X342906Y565904D01*
X342909Y565904D01*
X343265Y565924D01*
X343614Y565944D01*
X343617Y565945D01*
X343620Y565945D01*
X343963Y566004D01*
X344316Y566064D01*
X344319Y566065D01*
X344322Y566065D01*
X344670Y566166D01*
X345001Y566262D01*
X345003Y566263D01*
X345006Y566263D01*
X345346Y566405D01*
X345659Y566535D01*
X345661Y566536D01*
X345664Y566537D01*
X345982Y566714D01*
X346282Y566880D01*
X346284Y566881D01*
X346287Y566883D01*
X346578Y567090D01*
X346863Y567292D01*
X346865Y567294D01*
X346867Y567296D01*
X347390Y567764D01*
X347398Y567772D01*
X352720Y569977D01*
X358480Y569977D01*
X363801Y567773D01*
X363810Y567764D01*
X363813Y567762D01*
X363814Y567760D01*
X364086Y567518D01*
X364342Y567289D01*
X364344Y567287D01*
X364346Y567285D01*
X364640Y567077D01*
X364923Y566877D01*
X364925Y566875D01*
X364928Y566874D01*
X365238Y566703D01*
X365546Y566532D01*
X365549Y566531D01*
X365551Y566530D01*
X365875Y566396D01*
X366204Y566260D01*
X366207Y566259D01*
X366210Y566258D01*
X366536Y566164D01*
X366889Y566063D01*
X366892Y566062D01*
X366895Y566061D01*
X367242Y566003D01*
X367591Y565944D01*
X367594Y565943D01*
X367597Y565943D01*
X367957Y565923D01*
X368303Y565904D01*
X368306Y565904D01*
X368309Y565904D01*
X368665Y565924D01*
X369014Y565944D01*
X369017Y565945D01*
X369020Y565945D01*
X369363Y566004D01*
X369716Y566064D01*
X369719Y566065D01*
X369722Y566065D01*
X370070Y566166D01*
X370401Y566262D01*
X370403Y566263D01*
X370406Y566263D01*
X370746Y566405D01*
X371059Y566535D01*
X371061Y566536D01*
X371064Y566537D01*
X371382Y566714D01*
X371682Y566880D01*
X371684Y566881D01*
X371687Y566883D01*
X371978Y567090D01*
X372263Y567292D01*
X372265Y567294D01*
X372267Y567296D01*
X372790Y567764D01*
X372798Y567772D01*
X378120Y569977D01*
X383880Y569977D01*
X389202Y567772D01*
X393274Y563700D01*
X394184Y561504D01*
X394185Y561502D01*
X394185Y561501D01*
X394341Y561177D01*
X394493Y560862D01*
X394494Y560861D01*
X394495Y560859D01*
X394689Y560551D01*
X394872Y560259D01*
X394873Y560257D01*
X394874Y560256D01*
X395076Y560003D01*
X395317Y559702D01*
X395318Y559700D01*
X395319Y559699D01*
X395552Y559466D01*
X395820Y559198D01*
X395821Y559197D01*
X395823Y559196D01*
X396114Y558964D01*
X396378Y558754D01*
X396379Y558753D01*
X396380Y558752D01*
X396677Y558566D01*
X396981Y558375D01*
X396982Y558374D01*
X396983Y558374D01*
X397296Y558224D01*
X397623Y558066D01*
X397624Y558066D01*
X397626Y558065D01*
X397967Y557946D01*
X398295Y557831D01*
X398297Y557831D01*
X398298Y557831D01*
X398664Y557747D01*
X398990Y557673D01*
X398991Y557673D01*
X398993Y557673D01*
X399355Y557632D01*
X399698Y557594D01*
X399700Y557594D01*
X399701Y557594D01*
X400062Y557594D01*
X400411Y557594D01*
X400412Y557594D01*
X400413Y557594D01*
X400767Y557635D01*
X401118Y557675D01*
X401120Y557675D01*
X401121Y557675D01*
X401458Y557753D01*
X401813Y557834D01*
X401814Y557834D01*
X401816Y557835D01*
X402144Y557950D01*
X402485Y558070D01*
X402486Y558070D01*
X402488Y558071D01*
X402784Y558214D01*
X403127Y558379D01*
X403128Y558380D01*
X403129Y558381D01*
X403434Y558573D01*
X403729Y558759D01*
X403730Y558760D01*
X403732Y558761D01*
X404019Y558990D01*
X404286Y559204D01*
X404287Y559205D01*
X404288Y559206D01*
X404528Y559446D01*
X404789Y559708D01*
X404790Y559709D01*
X404791Y559710D01*
X404997Y559970D01*
X405233Y560266D01*
X405234Y560267D01*
X405234Y560268D01*
X405414Y560554D01*
X405611Y560869D01*
X405612Y560871D01*
X405612Y560872D01*
X405916Y561504D01*
X406826Y563700D01*
X410898Y567772D01*
X416220Y569977D01*
X421980Y569977D01*
X427301Y567773D01*
X427310Y567764D01*
X427313Y567762D01*
X427314Y567760D01*
X427586Y567518D01*
X427842Y567289D01*
X427844Y567287D01*
X427846Y567285D01*
X428140Y567077D01*
X428423Y566877D01*
X428425Y566875D01*
X428428Y566874D01*
X428738Y566703D01*
X429046Y566532D01*
X429049Y566531D01*
X429051Y566530D01*
X429375Y566396D01*
X429704Y566260D01*
X429707Y566259D01*
X429710Y566258D01*
X430036Y566164D01*
X430389Y566063D01*
X430392Y566062D01*
X430395Y566061D01*
X430742Y566003D01*
X431091Y565944D01*
X431094Y565943D01*
X431097Y565943D01*
X431457Y565923D01*
X431803Y565904D01*
X431806Y565904D01*
X431809Y565904D01*
X432165Y565924D01*
X432514Y565944D01*
X432517Y565945D01*
X432520Y565945D01*
X432863Y566004D01*
X433216Y566064D01*
X433219Y566065D01*
X433222Y566065D01*
X433570Y566166D01*
X433901Y566262D01*
X433903Y566263D01*
X433906Y566263D01*
X434246Y566405D01*
X434559Y566535D01*
X434561Y566536D01*
X434564Y566537D01*
X434882Y566714D01*
X435182Y566880D01*
X435184Y566881D01*
X435187Y566883D01*
X435478Y567090D01*
X435763Y567292D01*
X435765Y567294D01*
X435767Y567296D01*
X436290Y567764D01*
X436298Y567772D01*
X441620Y569977D01*
X447380Y569977D01*
X452701Y567773D01*
X452710Y567764D01*
X452713Y567762D01*
X452714Y567760D01*
X452986Y567518D01*
X453242Y567289D01*
X453244Y567287D01*
X453246Y567285D01*
X453540Y567077D01*
X453823Y566877D01*
X453825Y566875D01*
X453828Y566874D01*
X454138Y566703D01*
X454446Y566532D01*
X454449Y566531D01*
X454451Y566530D01*
X454775Y566396D01*
X455104Y566260D01*
X455107Y566259D01*
X455110Y566258D01*
X455436Y566164D01*
X455789Y566063D01*
X455792Y566062D01*
X455795Y566061D01*
X456142Y566003D01*
X456491Y565944D01*
X456494Y565943D01*
X456497Y565943D01*
X456857Y565923D01*
X457203Y565904D01*
X457206Y565904D01*
X457209Y565904D01*
X457565Y565924D01*
X457914Y565944D01*
X457917Y565945D01*
X457920Y565945D01*
X458263Y566004D01*
X458616Y566064D01*
X458619Y566065D01*
X458622Y566065D01*
X458970Y566166D01*
X459301Y566262D01*
X459303Y566263D01*
X459306Y566263D01*
X459646Y566405D01*
X459959Y566535D01*
X459961Y566536D01*
X459964Y566537D01*
X460282Y566714D01*
X460582Y566880D01*
X460584Y566881D01*
X460587Y566883D01*
X460878Y567090D01*
X461163Y567292D01*
X461165Y567294D01*
X461167Y567296D01*
X461690Y567764D01*
X461698Y567772D01*
X467020Y569977D01*
X472780Y569977D01*
X478101Y567773D01*
X478110Y567764D01*
X478113Y567762D01*
X478114Y567760D01*
X478386Y567518D01*
X478642Y567289D01*
X478644Y567287D01*
X478646Y567285D01*
X478940Y567077D01*
X479223Y566877D01*
X479225Y566875D01*
X479228Y566874D01*
X479538Y566703D01*
X479846Y566532D01*
X479849Y566531D01*
X479851Y566530D01*
X480175Y566396D01*
X480504Y566260D01*
X480507Y566259D01*
X480510Y566258D01*
X480836Y566164D01*
X481189Y566063D01*
X481192Y566062D01*
X481195Y566061D01*
X481542Y566003D01*
X481891Y565944D01*
X481894Y565943D01*
X481897Y565943D01*
X482257Y565923D01*
X482603Y565904D01*
X482606Y565904D01*
X482609Y565904D01*
X482965Y565924D01*
X483314Y565944D01*
X483317Y565945D01*
X483320Y565945D01*
X483663Y566004D01*
X484016Y566064D01*
X484019Y566065D01*
X484022Y566065D01*
X484370Y566166D01*
X484701Y566262D01*
X484703Y566263D01*
X484706Y566263D01*
X485046Y566405D01*
X485359Y566535D01*
X485361Y566536D01*
X485364Y566537D01*
X485682Y566714D01*
X485982Y566880D01*
X485984Y566881D01*
X485987Y566883D01*
X486278Y567090D01*
X486563Y567292D01*
X486565Y567294D01*
X486567Y567296D01*
X487090Y567764D01*
X487098Y567772D01*
X492420Y569977D01*
X498180Y569977D01*
X503501Y567773D01*
X503510Y567764D01*
X503513Y567762D01*
X503514Y567760D01*
X503786Y567518D01*
X504042Y567289D01*
X504044Y567287D01*
X504046Y567285D01*
X504340Y567077D01*
X504623Y566877D01*
X504625Y566875D01*
X504628Y566874D01*
X504938Y566703D01*
X505246Y566532D01*
X505249Y566531D01*
X505251Y566530D01*
X505575Y566396D01*
X505904Y566260D01*
X505907Y566259D01*
X505910Y566258D01*
X506236Y566164D01*
X506589Y566063D01*
X506592Y566062D01*
X506595Y566061D01*
X506942Y566003D01*
X507291Y565944D01*
X507294Y565943D01*
X507297Y565943D01*
X507657Y565923D01*
X508003Y565904D01*
X508006Y565904D01*
X508009Y565904D01*
X508365Y565924D01*
X508714Y565944D01*
X508717Y565945D01*
X508720Y565945D01*
X509063Y566004D01*
X509416Y566064D01*
X509419Y566065D01*
X509422Y566065D01*
X509770Y566166D01*
X510101Y566262D01*
X510103Y566263D01*
X510106Y566263D01*
X510446Y566405D01*
X510759Y566535D01*
X510761Y566536D01*
X510764Y566537D01*
X511082Y566714D01*
X511382Y566880D01*
X511384Y566881D01*
X511387Y566883D01*
X511678Y567090D01*
X511963Y567292D01*
X511965Y567294D01*
X511967Y567296D01*
X512490Y567764D01*
X512498Y567772D01*
X517820Y569977D01*
X523580Y569977D01*
X528901Y567773D01*
X528910Y567764D01*
X528913Y567762D01*
X528914Y567760D01*
X529186Y567518D01*
X529442Y567289D01*
X529444Y567287D01*
X529446Y567285D01*
X529740Y567077D01*
X530023Y566877D01*
X530025Y566875D01*
X530028Y566874D01*
X530338Y566703D01*
X530646Y566532D01*
X530649Y566531D01*
X530651Y566530D01*
X530975Y566396D01*
X531304Y566260D01*
X531307Y566259D01*
X531310Y566258D01*
X531636Y566164D01*
X531989Y566063D01*
X531992Y566062D01*
X531995Y566061D01*
X532342Y566003D01*
X532691Y565944D01*
X532694Y565943D01*
X532697Y565943D01*
X533057Y565923D01*
X533403Y565904D01*
X533406Y565904D01*
X533409Y565904D01*
X533765Y565924D01*
X534114Y565944D01*
X534117Y565945D01*
X534120Y565945D01*
X534463Y566004D01*
X534816Y566064D01*
X534819Y566065D01*
X534822Y566065D01*
X535170Y566166D01*
X535501Y566262D01*
X535503Y566263D01*
X535506Y566263D01*
X535846Y566405D01*
X536159Y566535D01*
X536161Y566536D01*
X536164Y566537D01*
X536482Y566714D01*
X536782Y566880D01*
X536784Y566881D01*
X536787Y566883D01*
X537078Y567090D01*
X537363Y567292D01*
X537365Y567294D01*
X537367Y567296D01*
X537890Y567764D01*
X537898Y567772D01*
X543220Y569977D01*
X548980Y569977D01*
X554301Y567773D01*
X554310Y567764D01*
X554313Y567762D01*
X554314Y567760D01*
X554586Y567518D01*
X554842Y567289D01*
X554844Y567287D01*
X554846Y567285D01*
X555140Y567077D01*
X555423Y566877D01*
X555425Y566875D01*
X555428Y566874D01*
X555738Y566703D01*
X556046Y566532D01*
X556049Y566531D01*
X556051Y566530D01*
X556375Y566396D01*
X556704Y566260D01*
X556707Y566259D01*
X556710Y566258D01*
X557036Y566164D01*
X557389Y566063D01*
X557392Y566062D01*
X557395Y566061D01*
X557742Y566003D01*
X558091Y565944D01*
X558094Y565943D01*
X558097Y565943D01*
X558457Y565923D01*
X558803Y565904D01*
X558806Y565904D01*
X558809Y565904D01*
X559165Y565924D01*
X559514Y565944D01*
X559517Y565945D01*
X559520Y565945D01*
X559863Y566004D01*
X560216Y566064D01*
X560219Y566065D01*
X560222Y566065D01*
X560570Y566166D01*
X560901Y566262D01*
X560903Y566263D01*
X560906Y566263D01*
X561246Y566405D01*
X561559Y566535D01*
X561561Y566536D01*
X561564Y566537D01*
X561882Y566714D01*
X562182Y566880D01*
X562184Y566881D01*
X562187Y566883D01*
X562478Y567090D01*
X562763Y567292D01*
X562765Y567294D01*
X562767Y567296D01*
X563290Y567764D01*
X563298Y567772D01*
X568620Y569977D01*
X574380Y569977D01*
X579701Y567773D01*
X579710Y567764D01*
X579713Y567762D01*
X579714Y567760D01*
X579986Y567518D01*
X580242Y567289D01*
X580244Y567287D01*
X580246Y567285D01*
X580540Y567077D01*
X580823Y566877D01*
X580825Y566875D01*
X580828Y566874D01*
X581138Y566703D01*
X581446Y566532D01*
X581449Y566531D01*
X581451Y566530D01*
X581775Y566396D01*
X582104Y566260D01*
X582107Y566259D01*
X582110Y566258D01*
X582436Y566164D01*
X582789Y566063D01*
X582792Y566062D01*
X582795Y566061D01*
X583142Y566003D01*
X583491Y565944D01*
X583494Y565943D01*
X583497Y565943D01*
X583857Y565923D01*
X584203Y565904D01*
X584206Y565904D01*
X584209Y565904D01*
X584565Y565924D01*
X584914Y565944D01*
X584917Y565945D01*
X584920Y565945D01*
X585263Y566004D01*
X585616Y566064D01*
X585619Y566065D01*
X585622Y566065D01*
X585970Y566166D01*
X586301Y566262D01*
X586303Y566263D01*
X586306Y566263D01*
X586646Y566405D01*
X586959Y566535D01*
X586961Y566536D01*
X586964Y566537D01*
X587282Y566714D01*
X587582Y566880D01*
X587584Y566881D01*
X587587Y566883D01*
X587878Y567090D01*
X588163Y567292D01*
X588165Y567294D01*
X588167Y567296D01*
X588690Y567764D01*
X588698Y567772D01*
X594020Y569977D01*
X599780Y569977D01*
X605102Y567772D01*
X606096Y566778D01*
X606230Y566658D01*
X606358Y566530D01*
X606496Y566421D01*
X606627Y566303D01*
X606774Y566199D01*
X606915Y566087D01*
X607065Y565993D01*
X607208Y565891D01*
X607366Y565804D01*
X607519Y565708D01*
X607678Y565632D01*
X607832Y565547D01*
X607999Y565478D01*
X608161Y565400D01*
X608327Y565342D01*
X608490Y565274D01*
X608663Y565224D01*
X608834Y565165D01*
X609006Y565126D01*
X609175Y565077D01*
X609353Y565047D01*
X609529Y565007D01*
X609704Y564987D01*
X609877Y564958D01*
X610057Y564948D01*
X610237Y564928D01*
X610413Y564928D01*
X610588Y564918D01*
X610769Y564929D01*
X610949Y564929D01*
X611124Y564949D01*
X611300Y564959D01*
X611478Y564989D01*
X611657Y565009D01*
X611828Y565049D01*
X612002Y565078D01*
X612175Y565128D01*
X612351Y565169D01*
X612517Y565227D01*
X612686Y565276D01*
X612853Y565345D01*
X613023Y565405D01*
X613182Y565482D01*
X613344Y565549D01*
X613502Y565636D01*
X613665Y565715D01*
X613814Y565809D01*
X613968Y565894D01*
X614115Y565999D01*
X614267Y566095D01*
X614405Y566205D01*
X614548Y566307D01*
X614683Y566427D01*
X614824Y566540D01*
X614948Y566665D01*
X615079Y566782D01*
X615199Y566917D01*
X615327Y567044D01*
X615436Y567182D01*
X615553Y567314D01*
X615658Y567461D01*
X615770Y567602D01*
X615863Y567751D01*
X615965Y567895D01*
X616052Y568053D01*
X616148Y568206D01*
X616225Y568367D01*
X616309Y568519D01*
X616375Y568678D01*
X616452Y568838D01*
X617181Y570600D01*
X621290Y574709D01*
X621466Y574884D01*
X621467Y574885D01*
X621468Y574886D01*
X621678Y575122D01*
X621940Y575416D01*
X621941Y575417D01*
X621942Y575418D01*
X622154Y575716D01*
X622353Y575997D01*
X622353Y575998D01*
X622354Y575999D01*
X622531Y576320D01*
X622697Y576620D01*
X622698Y576621D01*
X622698Y576623D01*
X622835Y576952D01*
X622970Y577279D01*
X622970Y577280D01*
X622971Y577281D01*
X623074Y577641D01*
X623167Y577963D01*
X623167Y577964D01*
X623167Y577966D01*
X623229Y578332D01*
X623286Y578666D01*
X623286Y578667D01*
X623286Y578668D01*
X623302Y578956D01*
X623325Y579377D01*
X623325Y579378D01*
X623325Y579380D01*
X623307Y579701D01*
X623285Y580088D01*
X623285Y580090D01*
X623285Y580091D01*
X623232Y580397D01*
X623165Y580790D01*
X623165Y580792D01*
X623165Y580793D01*
X623086Y581065D01*
X622968Y581475D01*
X622967Y581476D01*
X622967Y581478D01*
X622828Y581810D01*
X622695Y582133D01*
X622694Y582134D01*
X622693Y582135D01*
X622532Y582426D01*
X622350Y582756D01*
X622349Y582757D01*
X622348Y582759D01*
X622155Y583030D01*
X621937Y583337D01*
X621936Y583338D01*
X621935Y583339D01*
X621702Y583599D01*
X621462Y583868D01*
X621461Y583869D01*
X621460Y583870D01*
X621198Y584103D01*
X620930Y584342D01*
X620929Y584343D01*
X620928Y584344D01*
X620642Y584546D01*
X620349Y584754D01*
X620347Y584754D01*
X620346Y584755D01*
X620057Y584914D01*
X619725Y585098D01*
X619723Y585098D01*
X619722Y585099D01*
X619430Y585219D01*
X619066Y585369D01*
X619065Y585370D01*
X619063Y585370D01*
X618737Y585464D01*
X618381Y585566D01*
X618380Y585566D01*
X618379Y585566D01*
X618039Y585623D01*
X617679Y585684D01*
X617677Y585684D01*
X617676Y585685D01*
X616976Y585723D01*
X-12700Y585723D01*
X-12703Y585723D01*
X-12706Y585723D01*
X-13053Y585703D01*
X-13411Y585683D01*
X-13414Y585683D01*
X-13417Y585683D01*
X-13757Y585624D01*
X-14114Y585564D01*
X-14116Y585563D01*
X-14119Y585563D01*
X-14464Y585463D01*
X-14798Y585367D01*
X-14801Y585365D01*
X-14804Y585365D01*
X-15128Y585230D01*
X-15456Y585094D01*
X-15459Y585092D01*
X-15461Y585091D01*
X-15774Y584918D01*
X-16080Y584749D01*
X-16082Y584747D01*
X-16085Y584746D01*
X-16382Y584535D01*
X-16661Y584337D01*
X-16663Y584335D01*
X-16665Y584333D01*
X-16933Y584093D01*
X-17192Y583862D01*
X-17194Y583859D01*
X-17196Y583858D01*
X-17434Y583590D01*
X-17666Y583330D01*
X-17668Y583328D01*
X-17670Y583326D01*
X-17868Y583045D01*
X-18078Y582749D01*
X-18080Y582746D01*
X-18081Y582744D01*
X-18256Y582427D01*
X-18422Y582125D01*
X-18423Y582122D01*
X-18425Y582120D01*
X-18556Y581802D01*
X-18694Y581467D01*
X-18695Y581464D01*
X-18696Y581461D01*
X-18791Y581132D01*
X-18891Y580782D01*
X-18892Y580779D01*
X-18892Y580777D01*
X-18952Y580423D01*
X-19010Y580080D01*
X-19010Y580077D01*
X-19011Y580074D01*
X-19049Y579374D01*
X-19049Y63500D01*
X-19049Y63496D01*
X-19049Y63491D01*
X-19028Y63120D01*
X-19009Y62789D01*
X-19009Y62784D01*
X-19008Y62780D01*
X-18948Y62429D01*
X-18890Y62086D01*
X-18889Y62082D01*
X-18888Y62078D01*
X-18786Y61726D01*
X-18693Y61402D01*
X-18691Y61398D01*
X-18690Y61394D01*
X-18554Y61068D01*
X-18420Y60744D01*
X-18418Y60740D01*
X-18416Y60736D01*
X-18246Y60429D01*
X-18075Y60120D01*
X-18073Y60117D01*
X-18070Y60113D01*
X-17858Y59814D01*
X-17663Y59539D01*
X-17660Y59536D01*
X-17657Y59533D01*
X-17190Y59010D01*
X28784Y13036D01*
X28788Y13034D01*
X28790Y13030D01*
X29060Y12790D01*
X29316Y12562D01*
X29319Y12559D01*
X29322Y12556D01*
X29615Y12350D01*
X29897Y12149D01*
X29900Y12147D01*
X29904Y12145D01*
X30214Y11974D01*
X30520Y11805D01*
X30524Y11803D01*
X30528Y11801D01*
X30853Y11667D01*
X31179Y11532D01*
X31183Y11531D01*
X31187Y11530D01*
X31525Y11433D01*
X31863Y11335D01*
X31867Y11335D01*
X31872Y11334D01*
X32228Y11274D01*
X32566Y11216D01*
X32570Y11216D01*
X32574Y11215D01*
X33274Y11177D01*
X223276Y11177D01*
X223278Y11177D01*
G37*
G36*
X907145Y11177D02*
X907145Y11177D01*
X907149Y11177D01*
X907502Y11197D01*
X907852Y11217D01*
X907856Y11217D01*
X907860Y11218D01*
X908211Y11278D01*
X908554Y11336D01*
X908558Y11337D01*
X908562Y11338D01*
X908915Y11440D01*
X909239Y11533D01*
X909242Y11535D01*
X909247Y11536D01*
X909573Y11672D01*
X909897Y11806D01*
X909901Y11808D01*
X909905Y11810D01*
X910211Y11980D01*
X910520Y12151D01*
X910524Y12153D01*
X910527Y12156D01*
X910826Y12368D01*
X911101Y12563D01*
X911104Y12566D01*
X911108Y12569D01*
X911630Y13036D01*
X917981Y19387D01*
X917981Y19388D01*
X917982Y19388D01*
X924330Y25737D01*
X924331Y25737D01*
X930680Y32086D01*
X937029Y38435D01*
X937029Y38436D01*
X943378Y44785D01*
X943379Y44785D01*
X977564Y78970D01*
X977566Y78973D01*
X977570Y78976D01*
X977804Y79239D01*
X978038Y79501D01*
X978041Y79505D01*
X978044Y79508D01*
X978241Y79787D01*
X978451Y80082D01*
X978453Y80086D01*
X978455Y80089D01*
X978623Y80394D01*
X978795Y80706D01*
X978797Y80710D01*
X978799Y80713D01*
X978929Y81029D01*
X979068Y81364D01*
X979069Y81368D01*
X979070Y81372D01*
X979167Y81709D01*
X979265Y82049D01*
X979265Y82053D01*
X979266Y82057D01*
X979325Y82405D01*
X979384Y82751D01*
X979384Y82755D01*
X979385Y82760D01*
X979423Y83459D01*
X979423Y526140D01*
X979423Y526145D01*
X979423Y526149D01*
X979403Y526501D01*
X979383Y526852D01*
X979383Y526856D01*
X979382Y526860D01*
X979323Y527204D01*
X979264Y527554D01*
X979263Y527558D01*
X979262Y527562D01*
X979161Y527911D01*
X979067Y528239D01*
X979065Y528242D01*
X979064Y528247D01*
X978930Y528569D01*
X978794Y528897D01*
X978792Y528901D01*
X978790Y528905D01*
X978623Y529206D01*
X978449Y529520D01*
X978447Y529524D01*
X978444Y529527D01*
X978241Y529813D01*
X978037Y530101D01*
X978034Y530104D01*
X978031Y530108D01*
X977564Y530630D01*
X968441Y539753D01*
X968306Y539873D01*
X968179Y540001D01*
X968041Y540110D01*
X967910Y540228D01*
X967763Y540332D01*
X967621Y540444D01*
X967472Y540538D01*
X967329Y540640D01*
X967171Y540727D01*
X967018Y540823D01*
X966859Y540899D01*
X966705Y540984D01*
X966538Y541053D01*
X966376Y541131D01*
X966210Y541189D01*
X966047Y541257D01*
X965873Y541307D01*
X965703Y541366D01*
X965531Y541405D01*
X965362Y541454D01*
X965185Y541484D01*
X965008Y541524D01*
X964833Y541543D01*
X964660Y541573D01*
X964480Y541583D01*
X964300Y541603D01*
X964124Y541603D01*
X963948Y541612D01*
X963768Y541602D01*
X963588Y541602D01*
X963413Y541582D01*
X963237Y541572D01*
X963059Y541542D01*
X962880Y541521D01*
X962709Y541482D01*
X962535Y541452D01*
X962361Y541402D01*
X962186Y541362D01*
X962019Y541304D01*
X961850Y541255D01*
X961684Y541186D01*
X961514Y541126D01*
X961355Y541049D01*
X961192Y540982D01*
X961035Y540894D01*
X960872Y540816D01*
X960723Y540722D01*
X960569Y540637D01*
X960422Y540532D01*
X960269Y540436D01*
X960132Y540326D01*
X959988Y540224D01*
X959854Y540103D01*
X959713Y539991D01*
X959589Y539866D01*
X959458Y539749D01*
X959338Y539614D01*
X959210Y539486D01*
X959100Y539348D01*
X958983Y539217D01*
X958879Y539070D01*
X958767Y538929D01*
X958673Y538779D01*
X958572Y538636D01*
X958485Y538478D01*
X958389Y538325D01*
X958311Y538163D01*
X958228Y538012D01*
X958188Y537916D01*
X958162Y537890D01*
X958160Y537887D01*
X958158Y537886D01*
X957924Y537624D01*
X957687Y537358D01*
X957685Y537356D01*
X957683Y537354D01*
X957475Y537060D01*
X957275Y536777D01*
X957273Y536775D01*
X957272Y536772D01*
X957101Y536462D01*
X956930Y536154D01*
X956929Y536151D01*
X956928Y536149D01*
X956794Y535825D01*
X956658Y535496D01*
X956657Y535493D01*
X956656Y535490D01*
X956562Y535164D01*
X956461Y534811D01*
X956460Y534808D01*
X956459Y534805D01*
X956401Y534458D01*
X956342Y534109D01*
X956341Y534106D01*
X956341Y534103D01*
X956321Y533743D01*
X956302Y533397D01*
X956302Y533394D01*
X956302Y533391D01*
X956322Y533035D01*
X956342Y532686D01*
X956343Y532683D01*
X956343Y532680D01*
X956402Y532337D01*
X956462Y531984D01*
X956463Y531981D01*
X956463Y531978D01*
X956564Y531630D01*
X956660Y531299D01*
X956661Y531297D01*
X956661Y531294D01*
X956803Y530954D01*
X956933Y530641D01*
X956934Y530639D01*
X956935Y530636D01*
X957112Y530318D01*
X957278Y530018D01*
X957279Y530016D01*
X957281Y530013D01*
X957488Y529722D01*
X957690Y529437D01*
X957692Y529435D01*
X957694Y529433D01*
X958162Y528910D01*
X958170Y528902D01*
X960375Y523580D01*
X960375Y517820D01*
X958170Y512498D01*
X958162Y512490D01*
X958160Y512487D01*
X958157Y512485D01*
X957922Y512222D01*
X957687Y511958D01*
X957685Y511956D01*
X957683Y511954D01*
X957476Y511661D01*
X957275Y511377D01*
X957273Y511375D01*
X957272Y511372D01*
X957100Y511062D01*
X956930Y510754D01*
X956929Y510751D01*
X956928Y510748D01*
X956789Y510412D01*
X956658Y510095D01*
X956657Y510093D01*
X956656Y510090D01*
X956555Y509740D01*
X956461Y509411D01*
X956460Y509408D01*
X956459Y509405D01*
X956399Y509044D01*
X956342Y508708D01*
X956341Y508706D01*
X956341Y508703D01*
X956321Y508343D01*
X956302Y507997D01*
X956302Y507994D01*
X956302Y507991D01*
X956322Y507635D01*
X956342Y507286D01*
X956343Y507283D01*
X956343Y507280D01*
X956402Y506936D01*
X956462Y506584D01*
X956463Y506581D01*
X956463Y506578D01*
X956558Y506250D01*
X956660Y505899D01*
X956661Y505896D01*
X956662Y505894D01*
X956797Y505568D01*
X956933Y505241D01*
X956934Y505239D01*
X956935Y505236D01*
X957104Y504931D01*
X957278Y504618D01*
X957279Y504615D01*
X957281Y504613D01*
X957488Y504322D01*
X957690Y504037D01*
X957692Y504035D01*
X957694Y504033D01*
X958162Y503510D01*
X958171Y503501D01*
X960375Y498180D01*
X960375Y492420D01*
X958170Y487098D01*
X958162Y487090D01*
X958160Y487087D01*
X958157Y487085D01*
X957924Y486824D01*
X957687Y486558D01*
X957685Y486556D01*
X957683Y486554D01*
X957476Y486261D01*
X957275Y485977D01*
X957273Y485975D01*
X957272Y485972D01*
X957100Y485662D01*
X956930Y485354D01*
X956929Y485351D01*
X956928Y485348D01*
X956794Y485025D01*
X956658Y484695D01*
X956657Y484693D01*
X956656Y484690D01*
X956558Y484348D01*
X956461Y484011D01*
X956460Y484008D01*
X956459Y484005D01*
X956399Y483644D01*
X956342Y483308D01*
X956341Y483306D01*
X956341Y483303D01*
X956321Y482941D01*
X956302Y482597D01*
X956302Y482594D01*
X956302Y482591D01*
X956323Y482223D01*
X956342Y481886D01*
X956343Y481883D01*
X956343Y481880D01*
X956402Y481536D01*
X956462Y481184D01*
X956463Y481181D01*
X956463Y481178D01*
X956558Y480850D01*
X956660Y480499D01*
X956661Y480496D01*
X956662Y480494D01*
X956797Y480168D01*
X956933Y479841D01*
X956934Y479839D01*
X956935Y479836D01*
X957104Y479531D01*
X957278Y479218D01*
X957279Y479215D01*
X957281Y479213D01*
X957491Y478918D01*
X957690Y478637D01*
X957692Y478635D01*
X957694Y478633D01*
X958162Y478110D01*
X958171Y478101D01*
X960375Y472780D01*
X960375Y467020D01*
X958170Y461698D01*
X958162Y461690D01*
X958160Y461687D01*
X958157Y461685D01*
X957924Y461424D01*
X957687Y461158D01*
X957685Y461156D01*
X957683Y461154D01*
X957476Y460861D01*
X957275Y460577D01*
X957273Y460575D01*
X957272Y460572D01*
X957089Y460241D01*
X956930Y459954D01*
X956929Y459951D01*
X956928Y459948D01*
X956786Y459606D01*
X956658Y459295D01*
X956657Y459293D01*
X956656Y459290D01*
X956558Y458948D01*
X956461Y458611D01*
X956460Y458608D01*
X956459Y458605D01*
X956399Y458244D01*
X956342Y457908D01*
X956341Y457906D01*
X956341Y457903D01*
X956321Y457543D01*
X956302Y457197D01*
X956302Y457194D01*
X956302Y457191D01*
X956322Y456835D01*
X956342Y456486D01*
X956343Y456483D01*
X956343Y456480D01*
X956402Y456136D01*
X956462Y455784D01*
X956463Y455781D01*
X956463Y455778D01*
X956559Y455448D01*
X956660Y455099D01*
X956661Y455096D01*
X956662Y455094D01*
X956797Y454768D01*
X956933Y454441D01*
X956934Y454439D01*
X956935Y454436D01*
X957104Y454131D01*
X957278Y453818D01*
X957279Y453815D01*
X957281Y453813D01*
X957489Y453521D01*
X957690Y453237D01*
X957692Y453235D01*
X957694Y453233D01*
X958162Y452710D01*
X958171Y452701D01*
X960375Y447380D01*
X960375Y441620D01*
X958170Y436298D01*
X958162Y436290D01*
X958160Y436287D01*
X958157Y436285D01*
X957924Y436024D01*
X957687Y435758D01*
X957685Y435756D01*
X957683Y435754D01*
X957476Y435461D01*
X957275Y435177D01*
X957273Y435175D01*
X957272Y435172D01*
X957100Y434862D01*
X956930Y434554D01*
X956929Y434551D01*
X956928Y434548D01*
X956794Y434225D01*
X956658Y433895D01*
X956657Y433893D01*
X956656Y433890D01*
X956558Y433548D01*
X956461Y433211D01*
X956460Y433208D01*
X956459Y433205D01*
X956397Y432837D01*
X956342Y432508D01*
X956341Y432506D01*
X956341Y432503D01*
X956321Y432143D01*
X956302Y431797D01*
X956302Y431794D01*
X956302Y431791D01*
X956322Y431435D01*
X956342Y431086D01*
X956343Y431083D01*
X956343Y431080D01*
X956402Y430736D01*
X956462Y430384D01*
X956463Y430381D01*
X956463Y430378D01*
X956558Y430050D01*
X956660Y429699D01*
X956661Y429696D01*
X956662Y429694D01*
X956797Y429368D01*
X956933Y429041D01*
X956934Y429039D01*
X956935Y429036D01*
X957104Y428731D01*
X957278Y428418D01*
X957279Y428415D01*
X957281Y428413D01*
X957488Y428122D01*
X957690Y427837D01*
X957692Y427835D01*
X957694Y427833D01*
X958162Y427310D01*
X958171Y427301D01*
X960375Y421980D01*
X960375Y416220D01*
X958170Y410898D01*
X958162Y410890D01*
X958160Y410887D01*
X958157Y410885D01*
X957924Y410624D01*
X957687Y410358D01*
X957685Y410356D01*
X957683Y410354D01*
X957476Y410061D01*
X957275Y409777D01*
X957273Y409775D01*
X957272Y409772D01*
X957100Y409462D01*
X956930Y409154D01*
X956929Y409151D01*
X956928Y409148D01*
X956794Y408825D01*
X956658Y408495D01*
X956657Y408493D01*
X956656Y408490D01*
X956558Y408148D01*
X956461Y407811D01*
X956460Y407808D01*
X956459Y407805D01*
X956399Y407444D01*
X956342Y407108D01*
X956341Y407106D01*
X956341Y407103D01*
X956321Y406743D01*
X956302Y406397D01*
X956302Y406394D01*
X956302Y406391D01*
X956323Y406023D01*
X956342Y405686D01*
X956343Y405683D01*
X956343Y405680D01*
X956402Y405336D01*
X956462Y404984D01*
X956463Y404981D01*
X956463Y404978D01*
X956558Y404650D01*
X956660Y404299D01*
X956661Y404296D01*
X956662Y404294D01*
X956797Y403968D01*
X956933Y403641D01*
X956934Y403639D01*
X956935Y403636D01*
X957104Y403331D01*
X957278Y403018D01*
X957279Y403015D01*
X957281Y403013D01*
X957488Y402722D01*
X957690Y402437D01*
X957692Y402435D01*
X957694Y402433D01*
X958162Y401910D01*
X958171Y401901D01*
X960375Y396580D01*
X960375Y390820D01*
X958170Y385498D01*
X958162Y385490D01*
X958160Y385487D01*
X958157Y385485D01*
X957924Y385224D01*
X957687Y384958D01*
X957685Y384956D01*
X957683Y384954D01*
X957476Y384661D01*
X957275Y384377D01*
X957273Y384375D01*
X957272Y384372D01*
X957089Y384041D01*
X956930Y383754D01*
X956929Y383751D01*
X956928Y383748D01*
X956789Y383412D01*
X956658Y383095D01*
X956657Y383093D01*
X956656Y383090D01*
X956558Y382748D01*
X956461Y382411D01*
X956460Y382408D01*
X956459Y382405D01*
X956399Y382044D01*
X956342Y381708D01*
X956341Y381706D01*
X956341Y381703D01*
X956321Y381343D01*
X956302Y380997D01*
X956302Y380994D01*
X956302Y380991D01*
X956322Y380635D01*
X956342Y380286D01*
X956343Y380283D01*
X956343Y380280D01*
X956402Y379936D01*
X956462Y379584D01*
X956463Y379581D01*
X956463Y379578D01*
X956559Y379248D01*
X956660Y378899D01*
X956661Y378896D01*
X956662Y378894D01*
X956797Y378568D01*
X956933Y378241D01*
X956934Y378239D01*
X956935Y378236D01*
X957104Y377931D01*
X957278Y377618D01*
X957279Y377615D01*
X957281Y377613D01*
X957488Y377322D01*
X957690Y377037D01*
X957692Y377035D01*
X957694Y377033D01*
X958162Y376510D01*
X958171Y376501D01*
X960375Y371180D01*
X960375Y365420D01*
X958170Y360098D01*
X958162Y360090D01*
X958160Y360087D01*
X958157Y360085D01*
X957924Y359824D01*
X957687Y359558D01*
X957685Y359556D01*
X957683Y359554D01*
X957476Y359261D01*
X957275Y358977D01*
X957273Y358975D01*
X957272Y358972D01*
X957100Y358662D01*
X956930Y358354D01*
X956929Y358351D01*
X956928Y358348D01*
X956784Y358001D01*
X956658Y357695D01*
X956657Y357693D01*
X956656Y357690D01*
X956558Y357348D01*
X956461Y357011D01*
X956460Y357008D01*
X956459Y357005D01*
X956399Y356644D01*
X956342Y356308D01*
X956341Y356306D01*
X956341Y356303D01*
X956321Y355943D01*
X956302Y355597D01*
X956302Y355594D01*
X956302Y355591D01*
X956322Y355235D01*
X956342Y354886D01*
X956343Y354883D01*
X956343Y354880D01*
X956402Y354536D01*
X956462Y354184D01*
X956463Y354181D01*
X956463Y354178D01*
X956558Y353850D01*
X956660Y353499D01*
X956661Y353496D01*
X956662Y353494D01*
X956797Y353168D01*
X956933Y352841D01*
X956934Y352839D01*
X956935Y352836D01*
X957104Y352531D01*
X957278Y352218D01*
X957279Y352215D01*
X957281Y352213D01*
X957488Y351922D01*
X957690Y351637D01*
X957692Y351635D01*
X957694Y351633D01*
X958162Y351110D01*
X958171Y351101D01*
X960375Y345780D01*
X960375Y340020D01*
X958170Y334698D01*
X958162Y334690D01*
X958160Y334687D01*
X958157Y334685D01*
X957924Y334424D01*
X957687Y334158D01*
X957685Y334156D01*
X957683Y334154D01*
X957476Y333861D01*
X957275Y333577D01*
X957273Y333575D01*
X957272Y333572D01*
X957088Y333240D01*
X956930Y332954D01*
X956929Y332951D01*
X956928Y332948D01*
X956794Y332625D01*
X956658Y332295D01*
X956657Y332293D01*
X956656Y332290D01*
X956558Y331948D01*
X956461Y331611D01*
X956460Y331608D01*
X956459Y331605D01*
X956399Y331244D01*
X956342Y330908D01*
X956341Y330906D01*
X956341Y330903D01*
X956321Y330543D01*
X956302Y330197D01*
X956302Y330194D01*
X956302Y330191D01*
X956322Y329835D01*
X956342Y329486D01*
X956343Y329483D01*
X956343Y329480D01*
X956402Y329136D01*
X956462Y328784D01*
X956463Y328781D01*
X956463Y328778D01*
X956558Y328450D01*
X956660Y328099D01*
X956661Y328096D01*
X956662Y328094D01*
X956797Y327768D01*
X956933Y327441D01*
X956934Y327439D01*
X956935Y327436D01*
X957104Y327131D01*
X957278Y326818D01*
X957279Y326815D01*
X957281Y326813D01*
X957488Y326522D01*
X957690Y326237D01*
X957692Y326235D01*
X957694Y326233D01*
X958162Y325710D01*
X958171Y325701D01*
X960375Y320380D01*
X960375Y314620D01*
X958170Y309298D01*
X958162Y309290D01*
X958160Y309287D01*
X958157Y309285D01*
X957924Y309024D01*
X957687Y308758D01*
X957685Y308756D01*
X957683Y308754D01*
X957476Y308461D01*
X957275Y308177D01*
X957273Y308175D01*
X957272Y308172D01*
X957100Y307862D01*
X956930Y307554D01*
X956929Y307551D01*
X956928Y307548D01*
X956794Y307225D01*
X956658Y306895D01*
X956657Y306893D01*
X956656Y306890D01*
X956558Y306548D01*
X956461Y306211D01*
X956460Y306208D01*
X956459Y306205D01*
X956399Y305844D01*
X956342Y305508D01*
X956341Y305506D01*
X956341Y305503D01*
X956320Y305115D01*
X956302Y304797D01*
X956302Y304794D01*
X956302Y304791D01*
X956322Y304435D01*
X956342Y304086D01*
X956343Y304083D01*
X956343Y304080D01*
X956402Y303736D01*
X956462Y303384D01*
X956463Y303381D01*
X956463Y303378D01*
X956558Y303050D01*
X956660Y302699D01*
X956661Y302696D01*
X956662Y302694D01*
X956797Y302368D01*
X956933Y302041D01*
X956934Y302039D01*
X956935Y302036D01*
X957104Y301731D01*
X957278Y301418D01*
X957279Y301415D01*
X957281Y301413D01*
X957488Y301122D01*
X957690Y300837D01*
X957692Y300835D01*
X957694Y300833D01*
X958162Y300310D01*
X958171Y300301D01*
X960375Y294980D01*
X960375Y289220D01*
X958170Y283898D01*
X958162Y283890D01*
X958160Y283887D01*
X958157Y283885D01*
X957924Y283624D01*
X957687Y283358D01*
X957685Y283356D01*
X957683Y283354D01*
X957476Y283061D01*
X957275Y282777D01*
X957273Y282775D01*
X957272Y282772D01*
X957100Y282462D01*
X956930Y282154D01*
X956929Y282151D01*
X956928Y282148D01*
X956788Y281810D01*
X956658Y281495D01*
X956657Y281493D01*
X956656Y281490D01*
X956558Y281148D01*
X956461Y280811D01*
X956460Y280808D01*
X956459Y280805D01*
X956399Y280444D01*
X956342Y280108D01*
X956341Y280106D01*
X956341Y280103D01*
X956321Y279743D01*
X956302Y279397D01*
X956302Y279394D01*
X956302Y279391D01*
X956322Y279035D01*
X956342Y278686D01*
X956343Y278683D01*
X956343Y278680D01*
X956402Y278336D01*
X956462Y277984D01*
X956463Y277981D01*
X956463Y277978D01*
X956558Y277650D01*
X956660Y277299D01*
X956661Y277296D01*
X956662Y277294D01*
X956797Y276968D01*
X956933Y276641D01*
X956934Y276639D01*
X956935Y276636D01*
X957104Y276331D01*
X957278Y276018D01*
X957279Y276015D01*
X957281Y276013D01*
X957488Y275722D01*
X957690Y275437D01*
X957692Y275435D01*
X957694Y275433D01*
X958162Y274910D01*
X958171Y274901D01*
X960375Y269580D01*
X960375Y263820D01*
X958170Y258498D01*
X958162Y258490D01*
X958160Y258487D01*
X958157Y258485D01*
X957924Y258224D01*
X957687Y257958D01*
X957685Y257956D01*
X957683Y257954D01*
X957476Y257661D01*
X957275Y257377D01*
X957273Y257375D01*
X957272Y257372D01*
X957100Y257062D01*
X956930Y256754D01*
X956929Y256751D01*
X956928Y256748D01*
X956789Y256413D01*
X956658Y256095D01*
X956657Y256093D01*
X956656Y256090D01*
X956558Y255748D01*
X956461Y255411D01*
X956460Y255408D01*
X956459Y255405D01*
X956399Y255044D01*
X956342Y254708D01*
X956341Y254706D01*
X956341Y254703D01*
X956321Y254343D01*
X956302Y253997D01*
X956302Y253994D01*
X956302Y253991D01*
X956322Y253635D01*
X956342Y253286D01*
X956343Y253283D01*
X956343Y253280D01*
X956402Y252936D01*
X956462Y252584D01*
X956463Y252581D01*
X956463Y252578D01*
X956558Y252250D01*
X956660Y251899D01*
X956661Y251896D01*
X956662Y251894D01*
X956797Y251568D01*
X956933Y251241D01*
X956934Y251239D01*
X956935Y251236D01*
X957104Y250931D01*
X957278Y250618D01*
X957279Y250615D01*
X957281Y250613D01*
X957488Y250322D01*
X957690Y250037D01*
X957692Y250035D01*
X957694Y250033D01*
X958162Y249510D01*
X958171Y249501D01*
X960375Y244180D01*
X960375Y238420D01*
X958171Y233099D01*
X958162Y233090D01*
X958160Y233087D01*
X958158Y233086D01*
X957924Y232824D01*
X957687Y232558D01*
X957685Y232556D01*
X957683Y232554D01*
X957475Y232260D01*
X957275Y231977D01*
X957273Y231975D01*
X957272Y231972D01*
X957101Y231662D01*
X956930Y231354D01*
X956929Y231351D01*
X956928Y231349D01*
X956794Y231025D01*
X956658Y230696D01*
X956657Y230693D01*
X956656Y230690D01*
X956559Y230352D01*
X956461Y230011D01*
X956460Y230008D01*
X956459Y230005D01*
X956397Y229635D01*
X956342Y229309D01*
X956341Y229306D01*
X956341Y229303D01*
X956321Y228943D01*
X956302Y228597D01*
X956302Y228594D01*
X956302Y228591D01*
X956322Y228235D01*
X956342Y227886D01*
X956343Y227883D01*
X956343Y227880D01*
X956402Y227537D01*
X956462Y227184D01*
X956463Y227181D01*
X956463Y227178D01*
X956564Y226830D01*
X956660Y226499D01*
X956661Y226497D01*
X956661Y226494D01*
X956803Y226154D01*
X956933Y225841D01*
X956934Y225839D01*
X956935Y225836D01*
X957112Y225518D01*
X957278Y225218D01*
X957279Y225216D01*
X957281Y225213D01*
X957488Y224922D01*
X957690Y224637D01*
X957692Y224635D01*
X957694Y224633D01*
X958162Y224110D01*
X958170Y224102D01*
X960375Y218780D01*
X960375Y213020D01*
X958170Y207698D01*
X958162Y207690D01*
X958160Y207687D01*
X958157Y207685D01*
X957924Y207424D01*
X957687Y207158D01*
X957685Y207156D01*
X957683Y207154D01*
X957470Y206852D01*
X957275Y206577D01*
X957273Y206575D01*
X957272Y206572D01*
X957100Y206262D01*
X956930Y205954D01*
X956929Y205951D01*
X956928Y205948D01*
X956788Y205610D01*
X956658Y205295D01*
X956657Y205293D01*
X956656Y205290D01*
X956557Y204946D01*
X956461Y204611D01*
X956460Y204608D01*
X956459Y204605D01*
X956399Y204244D01*
X956342Y203908D01*
X956341Y203906D01*
X956341Y203903D01*
X956321Y203543D01*
X956302Y203197D01*
X956302Y203194D01*
X956302Y203191D01*
X956322Y202835D01*
X956342Y202486D01*
X956343Y202483D01*
X956343Y202480D01*
X956402Y202136D01*
X956462Y201784D01*
X956463Y201781D01*
X956463Y201778D01*
X956559Y201446D01*
X956660Y201099D01*
X956661Y201096D01*
X956662Y201094D01*
X956797Y200768D01*
X956933Y200441D01*
X956934Y200439D01*
X956935Y200436D01*
X957104Y200131D01*
X957278Y199818D01*
X957279Y199815D01*
X957281Y199813D01*
X957488Y199522D01*
X957690Y199237D01*
X957692Y199235D01*
X957694Y199233D01*
X958162Y198710D01*
X958171Y198701D01*
X960375Y193380D01*
X960375Y187620D01*
X958170Y182298D01*
X958162Y182290D01*
X958160Y182287D01*
X958157Y182285D01*
X957924Y182024D01*
X957687Y181758D01*
X957685Y181756D01*
X957683Y181754D01*
X957476Y181461D01*
X957275Y181177D01*
X957273Y181175D01*
X957272Y181172D01*
X957100Y180862D01*
X956930Y180554D01*
X956929Y180551D01*
X956928Y180548D01*
X956793Y180222D01*
X956658Y179895D01*
X956657Y179893D01*
X956656Y179890D01*
X956558Y179548D01*
X956461Y179211D01*
X956460Y179208D01*
X956459Y179205D01*
X956395Y178823D01*
X956342Y178508D01*
X956341Y178506D01*
X956341Y178503D01*
X956321Y178143D01*
X956302Y177797D01*
X956302Y177794D01*
X956302Y177791D01*
X956322Y177435D01*
X956342Y177086D01*
X956343Y177083D01*
X956343Y177080D01*
X956402Y176736D01*
X956462Y176384D01*
X956463Y176381D01*
X956463Y176378D01*
X956560Y176043D01*
X956660Y175699D01*
X956661Y175696D01*
X956662Y175694D01*
X956800Y175360D01*
X956933Y175041D01*
X956934Y175039D01*
X956935Y175036D01*
X957104Y174731D01*
X957278Y174418D01*
X957279Y174415D01*
X957281Y174413D01*
X957490Y174119D01*
X957690Y173837D01*
X957692Y173835D01*
X957694Y173833D01*
X958162Y173310D01*
X958171Y173301D01*
X960375Y167980D01*
X960375Y162220D01*
X958170Y156898D01*
X958162Y156890D01*
X958160Y156887D01*
X958157Y156885D01*
X957924Y156624D01*
X957687Y156358D01*
X957685Y156356D01*
X957683Y156354D01*
X957476Y156061D01*
X957275Y155777D01*
X957273Y155775D01*
X957272Y155772D01*
X957098Y155457D01*
X956930Y155154D01*
X956929Y155151D01*
X956928Y155148D01*
X956791Y154816D01*
X956658Y154495D01*
X956657Y154493D01*
X956656Y154490D01*
X956556Y154142D01*
X956461Y153811D01*
X956460Y153808D01*
X956459Y153805D01*
X956399Y153444D01*
X956342Y153108D01*
X956341Y153106D01*
X956341Y153103D01*
X956321Y152743D01*
X956302Y152397D01*
X956302Y152394D01*
X956302Y152391D01*
X956322Y152035D01*
X956342Y151686D01*
X956343Y151683D01*
X956343Y151680D01*
X956402Y151336D01*
X956462Y150984D01*
X956463Y150981D01*
X956463Y150978D01*
X956558Y150650D01*
X956660Y150299D01*
X956661Y150296D01*
X956662Y150294D01*
X956797Y149968D01*
X956933Y149641D01*
X956934Y149639D01*
X956935Y149636D01*
X957104Y149331D01*
X957278Y149018D01*
X957279Y149015D01*
X957281Y149013D01*
X957491Y148717D01*
X957690Y148437D01*
X957692Y148435D01*
X957694Y148433D01*
X958162Y147910D01*
X958171Y147901D01*
X960375Y142580D01*
X960375Y136820D01*
X958170Y131498D01*
X956210Y129538D01*
X956010Y129314D01*
X955806Y129094D01*
X955773Y129049D01*
X955736Y129007D01*
X955562Y128762D01*
X955384Y128521D01*
X955356Y128472D01*
X955323Y128426D01*
X955178Y128162D01*
X955028Y127903D01*
X955006Y127852D01*
X954979Y127802D01*
X954864Y127525D01*
X954744Y127250D01*
X954728Y127196D01*
X954706Y127144D01*
X954624Y126857D01*
X954535Y126569D01*
X954525Y126513D01*
X954509Y126459D01*
X954459Y126164D01*
X954404Y125869D01*
X954400Y125813D01*
X954390Y125757D01*
X954373Y125457D01*
X954351Y125158D01*
X954354Y125102D01*
X954351Y125046D01*
X954368Y124746D01*
X954379Y124446D01*
X954388Y124391D01*
X954391Y124335D01*
X954441Y124038D01*
X954486Y123742D01*
X954501Y123688D01*
X954511Y123632D01*
X954594Y123344D01*
X954672Y123054D01*
X954693Y123002D01*
X954708Y122948D01*
X954823Y122670D01*
X954933Y122391D01*
X954960Y122342D01*
X954981Y122290D01*
X955127Y122027D01*
X955267Y121762D01*
X955299Y121715D01*
X955326Y121666D01*
X955488Y121439D01*
X955663Y121183D01*
X955844Y120947D01*
X956016Y120649D01*
X927100Y120649D01*
X901700Y120649D01*
X872784Y120649D01*
X872956Y120947D01*
X873137Y121183D01*
X873307Y121432D01*
X873480Y121676D01*
X873507Y121725D01*
X873539Y121772D01*
X873679Y122037D01*
X873824Y122300D01*
X873845Y122352D01*
X873871Y122402D01*
X873981Y122681D01*
X874096Y122959D01*
X874111Y123013D01*
X874132Y123065D01*
X874209Y123355D01*
X874292Y123643D01*
X874301Y123699D01*
X874316Y123753D01*
X874361Y124050D01*
X874410Y124346D01*
X874414Y124402D01*
X874422Y124458D01*
X874433Y124757D01*
X874449Y125057D01*
X874446Y125113D01*
X874448Y125170D01*
X874426Y125469D01*
X874409Y125768D01*
X874399Y125824D01*
X874395Y125880D01*
X874339Y126175D01*
X874288Y126471D01*
X874273Y126525D01*
X874262Y126580D01*
X874173Y126867D01*
X874090Y127155D01*
X874068Y127207D01*
X874052Y127261D01*
X873932Y127535D01*
X873816Y127813D01*
X873789Y127862D01*
X873766Y127913D01*
X873616Y128173D01*
X873471Y128436D01*
X873438Y128481D01*
X873410Y128530D01*
X873231Y128772D01*
X873057Y129016D01*
X873020Y129058D01*
X872986Y129103D01*
X872795Y129309D01*
X872590Y129538D01*
X870630Y131498D01*
X868425Y136820D01*
X868425Y142580D01*
X870629Y147901D01*
X870638Y147910D01*
X870640Y147913D01*
X870642Y147914D01*
X870866Y148165D01*
X871113Y148442D01*
X871115Y148444D01*
X871117Y148446D01*
X871322Y148736D01*
X871525Y149023D01*
X871527Y149025D01*
X871528Y149028D01*
X871698Y149335D01*
X871870Y149646D01*
X871871Y149649D01*
X871872Y149651D01*
X872006Y149975D01*
X872142Y150304D01*
X872143Y150307D01*
X872144Y150310D01*
X872238Y150636D01*
X872339Y150989D01*
X872340Y150992D01*
X872341Y150995D01*
X872399Y151342D01*
X872458Y151691D01*
X872459Y151694D01*
X872459Y151697D01*
X872479Y152057D01*
X872498Y152403D01*
X872498Y152406D01*
X872498Y152409D01*
X872479Y152747D01*
X872458Y153114D01*
X872457Y153117D01*
X872457Y153120D01*
X872399Y153461D01*
X872338Y153816D01*
X872337Y153819D01*
X872337Y153822D01*
X872236Y154170D01*
X872140Y154501D01*
X872139Y154503D01*
X872139Y154506D01*
X871997Y154846D01*
X871867Y155159D01*
X871866Y155161D01*
X871865Y155164D01*
X871688Y155482D01*
X871522Y155782D01*
X871521Y155784D01*
X871519Y155787D01*
X871316Y156072D01*
X871110Y156363D01*
X871108Y156365D01*
X871106Y156367D01*
X870638Y156890D01*
X870630Y156898D01*
X868425Y162220D01*
X868425Y167980D01*
X869382Y170290D01*
X869442Y170460D01*
X869511Y170627D01*
X869559Y170797D01*
X869617Y170963D01*
X869658Y171139D01*
X869707Y171312D01*
X869737Y171485D01*
X869776Y171657D01*
X869796Y171837D01*
X869826Y172014D01*
X869836Y172190D01*
X869856Y172365D01*
X869856Y172546D01*
X869866Y172726D01*
X869855Y172902D01*
X869855Y173078D01*
X869835Y173257D01*
X869825Y173437D01*
X869795Y173611D01*
X869775Y173786D01*
X869735Y173962D01*
X869705Y174139D01*
X869656Y174308D01*
X869617Y174480D01*
X869557Y174651D01*
X869507Y174824D01*
X869439Y174986D01*
X869381Y175152D01*
X869303Y175315D01*
X869234Y175481D01*
X869148Y175636D01*
X869072Y175794D01*
X868976Y175947D01*
X868888Y176105D01*
X868786Y176248D01*
X868692Y176397D01*
X868580Y176538D01*
X868475Y176685D01*
X868358Y176816D01*
X868248Y176954D01*
X868120Y177081D01*
X868000Y177216D01*
X867868Y177333D01*
X867744Y177457D01*
X867603Y177570D01*
X867468Y177690D01*
X867324Y177791D01*
X867186Y177901D01*
X867034Y177997D01*
X866886Y178101D01*
X866732Y178186D01*
X866583Y178280D01*
X866420Y178358D01*
X866262Y178445D01*
X866099Y178512D01*
X865941Y178588D01*
X865770Y178648D01*
X865604Y178716D01*
X865434Y178765D01*
X865268Y178823D01*
X865092Y178863D01*
X864919Y178912D01*
X864745Y178942D01*
X864573Y178981D01*
X864394Y179001D01*
X864216Y179031D01*
X864037Y179040D01*
X863865Y179060D01*
X863693Y179059D01*
X863516Y179069D01*
X794765Y179069D01*
X794760Y179069D01*
X794756Y179069D01*
X794404Y179049D01*
X794053Y179029D01*
X794049Y179029D01*
X794045Y179028D01*
X793694Y178968D01*
X793351Y178910D01*
X793347Y178909D01*
X793343Y178908D01*
X792991Y178806D01*
X792667Y178713D01*
X792663Y178711D01*
X792658Y178710D01*
X792332Y178574D01*
X792008Y178440D01*
X792004Y178438D01*
X792001Y178436D01*
X791694Y178266D01*
X791385Y178095D01*
X791382Y178093D01*
X791378Y178090D01*
X791079Y177878D01*
X790804Y177683D01*
X790801Y177680D01*
X790797Y177677D01*
X790275Y177210D01*
X787461Y174396D01*
X787461Y174395D01*
X781112Y168046D01*
X771225Y158160D01*
X771224Y158159D01*
X771223Y158158D01*
X770950Y157852D01*
X770750Y157628D01*
X770750Y157627D01*
X770749Y157626D01*
X770520Y157304D01*
X770338Y157047D01*
X770338Y157046D01*
X770337Y157045D01*
X770156Y156718D01*
X769994Y156424D01*
X769993Y156422D01*
X769992Y156421D01*
X769857Y156094D01*
X769721Y155765D01*
X769721Y155764D01*
X769720Y155763D01*
X769612Y155387D01*
X769524Y155081D01*
X769524Y155080D01*
X769523Y155078D01*
X769461Y154707D01*
X769405Y154378D01*
X769405Y154377D01*
X769405Y154376D01*
X769385Y154019D01*
X769365Y153667D01*
X769365Y153666D01*
X769365Y153664D01*
X769385Y153313D01*
X769406Y152956D01*
X769406Y152954D01*
X769406Y152953D01*
X769459Y152641D01*
X769525Y152254D01*
X769526Y152252D01*
X769526Y152251D01*
X769633Y151882D01*
X769723Y151569D01*
X769724Y151568D01*
X769724Y151566D01*
X769871Y151213D01*
X769996Y150911D01*
X769997Y150910D01*
X769997Y150909D01*
X770176Y150585D01*
X770341Y150288D01*
X770342Y150287D01*
X770343Y150285D01*
X770536Y150014D01*
X770754Y149707D01*
X770755Y149706D01*
X770756Y149705D01*
X770992Y149441D01*
X771229Y149176D01*
X771230Y149175D01*
X771231Y149174D01*
X771530Y148908D01*
X771761Y148702D01*
X771762Y148701D01*
X771763Y148700D01*
X772080Y148476D01*
X772342Y148290D01*
X772343Y148290D01*
X772345Y148289D01*
X772671Y148109D01*
X772966Y147947D01*
X772967Y147946D01*
X772969Y147945D01*
X773292Y147812D01*
X773625Y147675D01*
X773626Y147674D01*
X773627Y147674D01*
X773954Y147580D01*
X774309Y147478D01*
X774311Y147478D01*
X774312Y147478D01*
X774651Y147421D01*
X775012Y147360D01*
X775013Y147360D01*
X775015Y147359D01*
X775715Y147321D01*
X777226Y147321D01*
X781894Y145387D01*
X785467Y141814D01*
X787401Y137146D01*
X787401Y116854D01*
X785467Y112186D01*
X781894Y108613D01*
X781471Y108438D01*
X781467Y108436D01*
X781463Y108434D01*
X781145Y108281D01*
X780830Y108129D01*
X780826Y108126D01*
X780822Y108124D01*
X780519Y107934D01*
X780226Y107749D01*
X780223Y107747D01*
X780219Y107744D01*
X779934Y107516D01*
X779669Y107305D01*
X779667Y107302D01*
X779663Y107299D01*
X779404Y107040D01*
X779166Y106801D01*
X779163Y106798D01*
X779160Y106795D01*
X778939Y106517D01*
X778722Y106244D01*
X778719Y106240D01*
X778717Y106237D01*
X778535Y105947D01*
X778343Y105641D01*
X778341Y105637D01*
X778339Y105633D01*
X778042Y105016D01*
X777580Y104554D01*
X771242Y98216D01*
X771241Y98215D01*
X771240Y98214D01*
X770992Y97936D01*
X770767Y97684D01*
X770766Y97683D01*
X770765Y97682D01*
X770531Y97352D01*
X770355Y97103D01*
X770354Y97102D01*
X770353Y97101D01*
X770173Y96774D01*
X770010Y96480D01*
X770010Y96478D01*
X770009Y96477D01*
X769876Y96156D01*
X769738Y95821D01*
X769738Y95820D01*
X769737Y95819D01*
X769627Y95436D01*
X769541Y95137D01*
X769541Y95136D01*
X769540Y95134D01*
X769479Y94773D01*
X769422Y94434D01*
X769422Y94433D01*
X769422Y94432D01*
X769402Y94075D01*
X769382Y93723D01*
X769382Y93722D01*
X769382Y93720D01*
X769402Y93368D01*
X769422Y93012D01*
X769423Y93010D01*
X769423Y93009D01*
X769478Y92688D01*
X769542Y92310D01*
X769543Y92308D01*
X769543Y92307D01*
X769643Y91960D01*
X769740Y91625D01*
X769740Y91624D01*
X769741Y91622D01*
X769888Y91269D01*
X770013Y90967D01*
X770014Y90966D01*
X770014Y90965D01*
X770183Y90660D01*
X770358Y90344D01*
X770359Y90343D01*
X770360Y90341D01*
X770552Y90070D01*
X770771Y89763D01*
X770772Y89762D01*
X770773Y89761D01*
X770986Y89522D01*
X771246Y89232D01*
X771247Y89231D01*
X771248Y89230D01*
X771535Y88975D01*
X771778Y88758D01*
X771779Y88757D01*
X771780Y88756D01*
X772088Y88538D01*
X772359Y88346D01*
X772360Y88346D01*
X772361Y88345D01*
X772686Y88166D01*
X772983Y88003D01*
X772984Y88002D01*
X772985Y88001D01*
X773309Y87868D01*
X773641Y87731D01*
X773643Y87730D01*
X773644Y87730D01*
X773971Y87636D01*
X774326Y87534D01*
X774328Y87534D01*
X774329Y87534D01*
X774668Y87477D01*
X775029Y87416D01*
X775030Y87416D01*
X775032Y87415D01*
X775731Y87377D01*
X777580Y87377D01*
X782901Y85173D01*
X782910Y85164D01*
X782913Y85162D01*
X782914Y85160D01*
X783176Y84926D01*
X783442Y84689D01*
X783444Y84687D01*
X783446Y84685D01*
X783740Y84477D01*
X784023Y84277D01*
X784025Y84275D01*
X784028Y84274D01*
X784338Y84103D01*
X784646Y83932D01*
X784649Y83931D01*
X784651Y83930D01*
X784975Y83796D01*
X785304Y83660D01*
X785307Y83659D01*
X785310Y83658D01*
X785637Y83564D01*
X785989Y83463D01*
X785992Y83462D01*
X785995Y83461D01*
X786343Y83403D01*
X786691Y83344D01*
X786694Y83343D01*
X786697Y83343D01*
X787057Y83323D01*
X787403Y83304D01*
X787406Y83304D01*
X787409Y83304D01*
X787765Y83324D01*
X788114Y83344D01*
X788117Y83345D01*
X788120Y83345D01*
X788463Y83404D01*
X788816Y83464D01*
X788819Y83465D01*
X788822Y83465D01*
X789170Y83566D01*
X789501Y83662D01*
X789503Y83663D01*
X789506Y83663D01*
X789846Y83805D01*
X790159Y83935D01*
X790161Y83936D01*
X790164Y83937D01*
X790482Y84114D01*
X790782Y84280D01*
X790784Y84281D01*
X790787Y84283D01*
X791078Y84490D01*
X791363Y84692D01*
X791365Y84694D01*
X791367Y84696D01*
X791890Y85164D01*
X791898Y85172D01*
X797220Y87377D01*
X802980Y87377D01*
X808301Y85173D01*
X808310Y85164D01*
X808313Y85162D01*
X808314Y85160D01*
X808576Y84926D01*
X808842Y84689D01*
X808844Y84687D01*
X808846Y84685D01*
X809140Y84477D01*
X809423Y84277D01*
X809425Y84275D01*
X809428Y84274D01*
X809738Y84103D01*
X810046Y83932D01*
X810049Y83931D01*
X810051Y83930D01*
X810375Y83796D01*
X810704Y83660D01*
X810707Y83659D01*
X810710Y83658D01*
X811037Y83564D01*
X811389Y83463D01*
X811392Y83462D01*
X811395Y83461D01*
X811743Y83403D01*
X812091Y83344D01*
X812094Y83343D01*
X812097Y83343D01*
X812457Y83323D01*
X812803Y83304D01*
X812806Y83304D01*
X812809Y83304D01*
X813165Y83324D01*
X813514Y83344D01*
X813517Y83345D01*
X813520Y83345D01*
X813863Y83404D01*
X814216Y83464D01*
X814219Y83465D01*
X814222Y83465D01*
X814570Y83566D01*
X814901Y83662D01*
X814903Y83663D01*
X814906Y83663D01*
X815246Y83805D01*
X815559Y83935D01*
X815561Y83936D01*
X815564Y83937D01*
X815882Y84114D01*
X816182Y84280D01*
X816184Y84281D01*
X816187Y84283D01*
X816478Y84490D01*
X816763Y84692D01*
X816765Y84694D01*
X816767Y84696D01*
X817290Y85164D01*
X817298Y85172D01*
X822620Y87377D01*
X828380Y87377D01*
X833701Y85173D01*
X833710Y85164D01*
X833713Y85162D01*
X833714Y85160D01*
X833976Y84926D01*
X834242Y84689D01*
X834244Y84687D01*
X834246Y84685D01*
X834540Y84477D01*
X834823Y84277D01*
X834825Y84275D01*
X834828Y84274D01*
X835138Y84103D01*
X835446Y83932D01*
X835449Y83931D01*
X835451Y83930D01*
X835775Y83796D01*
X836104Y83660D01*
X836107Y83659D01*
X836110Y83658D01*
X836437Y83564D01*
X836789Y83463D01*
X836792Y83462D01*
X836795Y83461D01*
X837143Y83403D01*
X837491Y83344D01*
X837494Y83343D01*
X837497Y83343D01*
X837857Y83323D01*
X838203Y83304D01*
X838206Y83304D01*
X838209Y83304D01*
X838565Y83324D01*
X838914Y83344D01*
X838917Y83345D01*
X838920Y83345D01*
X839263Y83404D01*
X839616Y83464D01*
X839619Y83465D01*
X839622Y83465D01*
X839970Y83566D01*
X840301Y83662D01*
X840303Y83663D01*
X840306Y83663D01*
X840646Y83805D01*
X840959Y83935D01*
X840961Y83936D01*
X840964Y83937D01*
X841282Y84114D01*
X841582Y84280D01*
X841584Y84281D01*
X841587Y84283D01*
X841878Y84490D01*
X842163Y84692D01*
X842165Y84694D01*
X842167Y84696D01*
X842690Y85164D01*
X842698Y85172D01*
X848020Y87377D01*
X853780Y87377D01*
X859101Y85173D01*
X859110Y85164D01*
X859113Y85162D01*
X859114Y85160D01*
X859376Y84926D01*
X859642Y84689D01*
X859644Y84687D01*
X859646Y84685D01*
X859940Y84477D01*
X860223Y84277D01*
X860225Y84275D01*
X860228Y84274D01*
X860538Y84103D01*
X860846Y83932D01*
X860849Y83931D01*
X860851Y83930D01*
X861175Y83796D01*
X861504Y83660D01*
X861507Y83659D01*
X861510Y83658D01*
X861837Y83564D01*
X862189Y83463D01*
X862192Y83462D01*
X862195Y83461D01*
X862543Y83403D01*
X862891Y83344D01*
X862894Y83343D01*
X862897Y83343D01*
X863257Y83323D01*
X863603Y83304D01*
X863606Y83304D01*
X863609Y83304D01*
X863965Y83324D01*
X864314Y83344D01*
X864317Y83345D01*
X864320Y83345D01*
X864663Y83404D01*
X865016Y83464D01*
X865019Y83465D01*
X865022Y83465D01*
X865370Y83566D01*
X865701Y83662D01*
X865703Y83663D01*
X865706Y83663D01*
X866046Y83805D01*
X866359Y83935D01*
X866361Y83936D01*
X866364Y83937D01*
X866682Y84114D01*
X866982Y84280D01*
X866984Y84281D01*
X866987Y84283D01*
X867278Y84490D01*
X867563Y84692D01*
X867565Y84694D01*
X867567Y84696D01*
X868090Y85164D01*
X868098Y85172D01*
X873420Y87377D01*
X879180Y87377D01*
X884502Y85172D01*
X888574Y81100D01*
X890779Y75778D01*
X890779Y51222D01*
X888574Y45900D01*
X884502Y41828D01*
X879180Y39623D01*
X873420Y39623D01*
X868098Y41828D01*
X868090Y41836D01*
X868087Y41838D01*
X868085Y41841D01*
X867824Y42074D01*
X867558Y42311D01*
X867556Y42313D01*
X867554Y42315D01*
X867270Y42515D01*
X866977Y42723D01*
X866975Y42725D01*
X866972Y42726D01*
X866662Y42898D01*
X866354Y43068D01*
X866351Y43069D01*
X866348Y43070D01*
X866025Y43204D01*
X865695Y43340D01*
X865693Y43341D01*
X865690Y43342D01*
X865348Y43440D01*
X865011Y43537D01*
X865008Y43538D01*
X865005Y43539D01*
X864644Y43599D01*
X864308Y43656D01*
X864306Y43657D01*
X864303Y43657D01*
X863943Y43677D01*
X863597Y43696D01*
X863594Y43696D01*
X863591Y43696D01*
X863235Y43676D01*
X862886Y43656D01*
X862883Y43655D01*
X862880Y43655D01*
X862536Y43596D01*
X862184Y43536D01*
X862181Y43535D01*
X862178Y43535D01*
X861850Y43440D01*
X861499Y43338D01*
X861496Y43337D01*
X861494Y43336D01*
X861168Y43201D01*
X860841Y43065D01*
X860839Y43064D01*
X860836Y43063D01*
X860531Y42894D01*
X860218Y42720D01*
X860215Y42719D01*
X860213Y42717D01*
X859922Y42510D01*
X859637Y42308D01*
X859635Y42306D01*
X859633Y42304D01*
X859110Y41836D01*
X859101Y41827D01*
X853780Y39623D01*
X848020Y39623D01*
X842698Y41828D01*
X842690Y41836D01*
X842687Y41838D01*
X842685Y41841D01*
X842424Y42074D01*
X842158Y42311D01*
X842156Y42313D01*
X842154Y42315D01*
X841870Y42515D01*
X841577Y42723D01*
X841575Y42725D01*
X841572Y42726D01*
X841262Y42898D01*
X840954Y43068D01*
X840951Y43069D01*
X840948Y43070D01*
X840625Y43204D01*
X840295Y43340D01*
X840293Y43341D01*
X840290Y43342D01*
X839948Y43440D01*
X839611Y43537D01*
X839608Y43538D01*
X839605Y43539D01*
X839244Y43599D01*
X838908Y43656D01*
X838906Y43657D01*
X838903Y43657D01*
X838543Y43677D01*
X838197Y43696D01*
X838194Y43696D01*
X838191Y43696D01*
X837835Y43676D01*
X837486Y43656D01*
X837483Y43655D01*
X837480Y43655D01*
X837136Y43596D01*
X836784Y43536D01*
X836781Y43535D01*
X836778Y43535D01*
X836450Y43440D01*
X836099Y43338D01*
X836096Y43337D01*
X836094Y43336D01*
X835768Y43201D01*
X835441Y43065D01*
X835439Y43064D01*
X835436Y43063D01*
X835131Y42894D01*
X834818Y42720D01*
X834815Y42719D01*
X834813Y42717D01*
X834522Y42510D01*
X834237Y42308D01*
X834235Y42306D01*
X834233Y42304D01*
X833710Y41836D01*
X833701Y41827D01*
X828380Y39623D01*
X822620Y39623D01*
X817298Y41828D01*
X817290Y41836D01*
X817287Y41838D01*
X817285Y41841D01*
X817024Y42074D01*
X816758Y42311D01*
X816756Y42313D01*
X816754Y42315D01*
X816470Y42515D01*
X816177Y42723D01*
X816175Y42725D01*
X816172Y42726D01*
X815862Y42898D01*
X815554Y43068D01*
X815551Y43069D01*
X815548Y43070D01*
X815225Y43204D01*
X814895Y43340D01*
X814893Y43341D01*
X814890Y43342D01*
X814548Y43440D01*
X814211Y43537D01*
X814208Y43538D01*
X814205Y43539D01*
X813844Y43599D01*
X813508Y43656D01*
X813506Y43657D01*
X813503Y43657D01*
X813143Y43677D01*
X812797Y43696D01*
X812794Y43696D01*
X812791Y43696D01*
X812435Y43676D01*
X812086Y43656D01*
X812083Y43655D01*
X812080Y43655D01*
X811736Y43596D01*
X811384Y43536D01*
X811381Y43535D01*
X811378Y43535D01*
X811050Y43440D01*
X810699Y43338D01*
X810696Y43337D01*
X810694Y43336D01*
X810368Y43201D01*
X810041Y43065D01*
X810039Y43064D01*
X810036Y43063D01*
X809731Y42894D01*
X809418Y42720D01*
X809415Y42719D01*
X809413Y42717D01*
X809122Y42510D01*
X808837Y42308D01*
X808835Y42306D01*
X808833Y42304D01*
X808310Y41836D01*
X808301Y41827D01*
X802980Y39623D01*
X797220Y39623D01*
X791898Y41828D01*
X791890Y41836D01*
X791887Y41838D01*
X791885Y41841D01*
X791624Y42074D01*
X791358Y42311D01*
X791356Y42313D01*
X791354Y42315D01*
X791070Y42515D01*
X790777Y42723D01*
X790775Y42725D01*
X790772Y42726D01*
X790462Y42898D01*
X790154Y43068D01*
X790151Y43069D01*
X790148Y43070D01*
X789825Y43204D01*
X789495Y43340D01*
X789493Y43341D01*
X789490Y43342D01*
X789148Y43440D01*
X788811Y43537D01*
X788808Y43538D01*
X788805Y43539D01*
X788444Y43599D01*
X788108Y43656D01*
X788106Y43657D01*
X788103Y43657D01*
X787743Y43677D01*
X787397Y43696D01*
X787394Y43696D01*
X787391Y43696D01*
X787035Y43676D01*
X786686Y43656D01*
X786683Y43655D01*
X786680Y43655D01*
X786336Y43596D01*
X785984Y43536D01*
X785981Y43535D01*
X785978Y43535D01*
X785650Y43440D01*
X785299Y43338D01*
X785296Y43337D01*
X785294Y43336D01*
X784968Y43201D01*
X784641Y43065D01*
X784639Y43064D01*
X784636Y43063D01*
X784331Y42894D01*
X784018Y42720D01*
X784015Y42719D01*
X784013Y42717D01*
X783722Y42510D01*
X783437Y42308D01*
X783435Y42306D01*
X783433Y42304D01*
X782910Y41836D01*
X782901Y41827D01*
X777580Y39623D01*
X771820Y39623D01*
X766498Y41828D01*
X766490Y41836D01*
X766487Y41838D01*
X766485Y41841D01*
X766224Y42074D01*
X765958Y42311D01*
X765956Y42313D01*
X765954Y42315D01*
X765670Y42515D01*
X765377Y42723D01*
X765375Y42725D01*
X765372Y42726D01*
X765062Y42898D01*
X764754Y43068D01*
X764751Y43069D01*
X764748Y43070D01*
X764425Y43204D01*
X764095Y43340D01*
X764093Y43341D01*
X764090Y43342D01*
X763748Y43440D01*
X763411Y43537D01*
X763408Y43538D01*
X763405Y43539D01*
X763044Y43599D01*
X762708Y43656D01*
X762706Y43657D01*
X762703Y43657D01*
X762343Y43677D01*
X761997Y43696D01*
X761994Y43696D01*
X761991Y43696D01*
X761635Y43676D01*
X761286Y43656D01*
X761283Y43655D01*
X761280Y43655D01*
X760936Y43596D01*
X760584Y43536D01*
X760581Y43535D01*
X760578Y43535D01*
X760250Y43440D01*
X759899Y43338D01*
X759896Y43337D01*
X759894Y43336D01*
X759568Y43201D01*
X759241Y43065D01*
X759239Y43064D01*
X759236Y43063D01*
X758931Y42894D01*
X758618Y42720D01*
X758615Y42719D01*
X758613Y42717D01*
X758322Y42510D01*
X758037Y42308D01*
X758035Y42306D01*
X758033Y42304D01*
X757510Y41836D01*
X757501Y41827D01*
X752180Y39623D01*
X746420Y39623D01*
X741098Y41828D01*
X741090Y41836D01*
X741087Y41838D01*
X741085Y41841D01*
X740824Y42074D01*
X740558Y42311D01*
X740556Y42313D01*
X740554Y42315D01*
X740270Y42515D01*
X739977Y42723D01*
X739975Y42725D01*
X739972Y42726D01*
X739662Y42898D01*
X739354Y43068D01*
X739351Y43069D01*
X739348Y43070D01*
X739025Y43204D01*
X738695Y43340D01*
X738693Y43341D01*
X738690Y43342D01*
X738348Y43440D01*
X738011Y43537D01*
X738008Y43538D01*
X738005Y43539D01*
X737644Y43599D01*
X737308Y43656D01*
X737306Y43657D01*
X737303Y43657D01*
X736943Y43677D01*
X736597Y43696D01*
X736594Y43696D01*
X736591Y43696D01*
X736235Y43676D01*
X735886Y43656D01*
X735883Y43655D01*
X735880Y43655D01*
X735536Y43596D01*
X735184Y43536D01*
X735181Y43535D01*
X735178Y43535D01*
X734850Y43440D01*
X734499Y43338D01*
X734496Y43337D01*
X734494Y43336D01*
X734168Y43201D01*
X733841Y43065D01*
X733839Y43064D01*
X733836Y43063D01*
X733531Y42894D01*
X733218Y42720D01*
X733215Y42719D01*
X733213Y42717D01*
X732922Y42510D01*
X732637Y42308D01*
X732635Y42306D01*
X732633Y42304D01*
X732110Y41836D01*
X732101Y41827D01*
X726780Y39623D01*
X721020Y39623D01*
X715699Y41827D01*
X715690Y41836D01*
X715687Y41838D01*
X715686Y41840D01*
X715424Y42074D01*
X715158Y42311D01*
X715156Y42313D01*
X715154Y42315D01*
X714860Y42523D01*
X714577Y42723D01*
X714575Y42725D01*
X714572Y42726D01*
X714262Y42897D01*
X713954Y43068D01*
X713951Y43069D01*
X713949Y43070D01*
X713625Y43204D01*
X713296Y43340D01*
X713293Y43341D01*
X713290Y43342D01*
X712964Y43436D01*
X712611Y43537D01*
X712608Y43538D01*
X712605Y43539D01*
X712258Y43597D01*
X711909Y43656D01*
X711906Y43657D01*
X711903Y43657D01*
X711543Y43677D01*
X711197Y43696D01*
X711194Y43696D01*
X711191Y43696D01*
X710835Y43676D01*
X710486Y43656D01*
X710483Y43655D01*
X710480Y43655D01*
X710137Y43596D01*
X709784Y43536D01*
X709781Y43535D01*
X709778Y43535D01*
X709430Y43434D01*
X709099Y43338D01*
X709097Y43337D01*
X709094Y43337D01*
X708754Y43195D01*
X708441Y43065D01*
X708439Y43064D01*
X708436Y43063D01*
X708118Y42886D01*
X707818Y42720D01*
X707816Y42719D01*
X707813Y42717D01*
X707522Y42510D01*
X707237Y42308D01*
X707235Y42306D01*
X707233Y42304D01*
X706710Y41836D01*
X706702Y41828D01*
X701380Y39623D01*
X695620Y39623D01*
X690298Y41828D01*
X686226Y45900D01*
X684021Y51222D01*
X684021Y75778D01*
X686586Y81970D01*
X686646Y82143D01*
X686716Y82312D01*
X686764Y82479D01*
X686821Y82642D01*
X686862Y82821D01*
X686912Y82997D01*
X686941Y83168D01*
X686980Y83337D01*
X687000Y83519D01*
X687031Y83700D01*
X687040Y83875D01*
X687059Y84045D01*
X687059Y84219D01*
X687069Y84399D01*
X687069Y112525D01*
X687059Y112707D01*
X687059Y112891D01*
X687039Y113063D01*
X687029Y113236D01*
X686999Y113417D01*
X686978Y113599D01*
X686939Y113768D01*
X686910Y113938D01*
X686859Y114114D01*
X686818Y114293D01*
X686760Y114459D01*
X686713Y114623D01*
X686646Y114784D01*
X686586Y114954D01*
X685799Y116854D01*
X685799Y137146D01*
X687733Y141814D01*
X688749Y142830D01*
X688750Y142831D01*
X688751Y142832D01*
X688982Y143092D01*
X689224Y143362D01*
X689224Y143363D01*
X689225Y143364D01*
X689439Y143665D01*
X689636Y143943D01*
X689636Y143944D01*
X689637Y143945D01*
X689805Y144250D01*
X689980Y144566D01*
X689981Y144568D01*
X689982Y144569D01*
X690105Y144869D01*
X690253Y145224D01*
X690253Y145226D01*
X690254Y145227D01*
X690356Y145585D01*
X690450Y145909D01*
X690450Y145910D01*
X690450Y145912D01*
X690510Y146262D01*
X690569Y146612D01*
X690569Y146613D01*
X690569Y146614D01*
X690588Y146959D01*
X690609Y147323D01*
X690608Y147324D01*
X690609Y147326D01*
X690589Y147665D01*
X690568Y148034D01*
X690568Y148036D01*
X690568Y148037D01*
X690517Y148335D01*
X690449Y148736D01*
X690448Y148738D01*
X690448Y148739D01*
X690356Y149057D01*
X690251Y149421D01*
X690250Y149422D01*
X690250Y149424D01*
X690129Y149714D01*
X689978Y150079D01*
X689977Y150080D01*
X689977Y150081D01*
X689809Y150385D01*
X689633Y150702D01*
X689632Y150703D01*
X689631Y150705D01*
X689433Y150984D01*
X689220Y151283D01*
X689219Y151284D01*
X689218Y151285D01*
X688991Y151538D01*
X688745Y151814D01*
X688744Y151815D01*
X688743Y151816D01*
X688477Y152053D01*
X688213Y152288D01*
X688212Y152289D01*
X688211Y152290D01*
X687911Y152502D01*
X687632Y152700D01*
X687631Y152700D01*
X687629Y152701D01*
X687321Y152871D01*
X687008Y153043D01*
X687007Y153044D01*
X687005Y153045D01*
X686676Y153180D01*
X686349Y153315D01*
X686348Y153316D01*
X686347Y153316D01*
X686006Y153414D01*
X685665Y153512D01*
X685663Y153512D01*
X685662Y153512D01*
X685299Y153573D01*
X684962Y153630D01*
X684961Y153630D01*
X684959Y153631D01*
X684259Y153669D01*
X649241Y153669D01*
X649239Y153669D01*
X649238Y153669D01*
X648866Y153648D01*
X648529Y153629D01*
X648528Y153629D01*
X648527Y153629D01*
X648167Y153568D01*
X647827Y153510D01*
X647826Y153509D01*
X647824Y153509D01*
X647461Y153404D01*
X647143Y153313D01*
X647141Y153312D01*
X647140Y153312D01*
X646803Y153172D01*
X646484Y153040D01*
X646483Y153039D01*
X646482Y153039D01*
X646159Y152860D01*
X645861Y152695D01*
X645860Y152694D01*
X645859Y152693D01*
X645540Y152467D01*
X645280Y152283D01*
X645279Y152282D01*
X645278Y152281D01*
X644986Y152019D01*
X644749Y151808D01*
X644748Y151807D01*
X644747Y151806D01*
X644484Y151511D01*
X644275Y151276D01*
X644274Y151275D01*
X644273Y151274D01*
X644061Y150975D01*
X643863Y150695D01*
X643862Y150694D01*
X643861Y150692D01*
X643703Y150406D01*
X643518Y150071D01*
X643518Y150070D01*
X643517Y150069D01*
X643370Y149713D01*
X643246Y149413D01*
X643246Y149411D01*
X643245Y149410D01*
X643150Y149079D01*
X643050Y148728D01*
X643049Y148726D01*
X643049Y148725D01*
X642987Y148361D01*
X642931Y148026D01*
X642931Y148024D01*
X642930Y148023D01*
X642910Y147644D01*
X642891Y147314D01*
X642892Y147313D01*
X642891Y147311D01*
X642915Y146904D01*
X642932Y146603D01*
X642932Y146602D01*
X642932Y146600D01*
X643000Y146208D01*
X643052Y145901D01*
X643053Y145899D01*
X643053Y145898D01*
X643150Y145563D01*
X643250Y145216D01*
X643251Y145215D01*
X643251Y145214D01*
X643404Y144846D01*
X643523Y144559D01*
X643524Y144557D01*
X643525Y144556D01*
X643702Y144236D01*
X643869Y143935D01*
X643870Y143934D01*
X643870Y143933D01*
X644079Y143639D01*
X644282Y143355D01*
X644283Y143354D01*
X644284Y143353D01*
X644751Y142830D01*
X645767Y141814D01*
X647701Y137146D01*
X647701Y116854D01*
X646914Y114954D01*
X646853Y114781D01*
X646784Y114612D01*
X646736Y114446D01*
X646679Y114282D01*
X646638Y114103D01*
X646588Y113927D01*
X646559Y113757D01*
X646520Y113587D01*
X646500Y113405D01*
X646469Y113225D01*
X646460Y113049D01*
X646441Y112879D01*
X646441Y112705D01*
X646431Y112525D01*
X646431Y99326D01*
X645117Y96156D01*
X645058Y95985D01*
X644989Y95819D01*
X644940Y95650D01*
X644882Y95483D01*
X644842Y95307D01*
X644792Y95134D01*
X644763Y94960D01*
X644724Y94789D01*
X644704Y94610D01*
X644673Y94432D01*
X644664Y94256D01*
X644644Y94081D01*
X644644Y93901D01*
X644634Y93720D01*
X644644Y93545D01*
X644644Y93368D01*
X644664Y93189D01*
X644675Y93009D01*
X644704Y92836D01*
X644724Y92660D01*
X644764Y92484D01*
X644795Y92307D01*
X644844Y92138D01*
X644883Y91966D01*
X644943Y91796D01*
X644993Y91622D01*
X645060Y91460D01*
X645118Y91294D01*
X645197Y91131D01*
X645266Y90965D01*
X645351Y90811D01*
X645428Y90652D01*
X645524Y90499D01*
X645611Y90341D01*
X645713Y90198D01*
X645807Y90049D01*
X645920Y89908D01*
X646024Y89761D01*
X646142Y89630D01*
X646252Y89492D01*
X646379Y89365D01*
X646500Y89230D01*
X646631Y89113D01*
X646756Y88989D01*
X646897Y88876D01*
X647032Y88756D01*
X647176Y88654D01*
X647313Y88545D01*
X647466Y88449D01*
X647613Y88345D01*
X647767Y88260D01*
X647917Y88166D01*
X648080Y88088D01*
X648237Y88001D01*
X648400Y87934D01*
X648559Y87858D01*
X648729Y87798D01*
X648896Y87730D01*
X649065Y87681D01*
X649232Y87623D01*
X649407Y87583D01*
X649581Y87534D01*
X649754Y87504D01*
X649926Y87465D01*
X650105Y87445D01*
X650283Y87415D01*
X650462Y87406D01*
X650528Y87398D01*
X655902Y85172D01*
X659974Y81100D01*
X662179Y75778D01*
X662179Y51222D01*
X659974Y45900D01*
X655902Y41828D01*
X650580Y39623D01*
X644820Y39623D01*
X639498Y41828D01*
X639490Y41836D01*
X639487Y41838D01*
X639485Y41841D01*
X639224Y42074D01*
X638958Y42311D01*
X638956Y42313D01*
X638954Y42315D01*
X638670Y42515D01*
X638377Y42723D01*
X638375Y42725D01*
X638372Y42726D01*
X638062Y42898D01*
X637754Y43068D01*
X637751Y43069D01*
X637748Y43070D01*
X637425Y43204D01*
X637095Y43340D01*
X637093Y43341D01*
X637090Y43342D01*
X636748Y43440D01*
X636411Y43537D01*
X636408Y43538D01*
X636405Y43539D01*
X636044Y43599D01*
X635708Y43656D01*
X635706Y43657D01*
X635703Y43657D01*
X635343Y43677D01*
X634997Y43696D01*
X634994Y43696D01*
X634991Y43696D01*
X634635Y43676D01*
X634286Y43656D01*
X634283Y43655D01*
X634280Y43655D01*
X633936Y43596D01*
X633584Y43536D01*
X633581Y43535D01*
X633578Y43535D01*
X633250Y43440D01*
X632899Y43338D01*
X632896Y43337D01*
X632894Y43336D01*
X632568Y43201D01*
X632241Y43065D01*
X632239Y43064D01*
X632236Y43063D01*
X631931Y42894D01*
X631618Y42720D01*
X631615Y42719D01*
X631613Y42717D01*
X631322Y42510D01*
X631037Y42308D01*
X631035Y42306D01*
X631033Y42304D01*
X630510Y41836D01*
X630501Y41827D01*
X625180Y39623D01*
X619420Y39623D01*
X614098Y41828D01*
X614090Y41836D01*
X614087Y41838D01*
X614085Y41841D01*
X613824Y42074D01*
X613558Y42311D01*
X613556Y42313D01*
X613554Y42315D01*
X613270Y42515D01*
X612977Y42723D01*
X612975Y42725D01*
X612972Y42726D01*
X612662Y42898D01*
X612354Y43068D01*
X612351Y43069D01*
X612348Y43070D01*
X612025Y43204D01*
X611695Y43340D01*
X611693Y43341D01*
X611690Y43342D01*
X611348Y43440D01*
X611011Y43537D01*
X611008Y43538D01*
X611005Y43539D01*
X610644Y43599D01*
X610308Y43656D01*
X610306Y43657D01*
X610303Y43657D01*
X609943Y43677D01*
X609597Y43696D01*
X609594Y43696D01*
X609591Y43696D01*
X609235Y43676D01*
X608886Y43656D01*
X608883Y43655D01*
X608880Y43655D01*
X608536Y43596D01*
X608184Y43536D01*
X608181Y43535D01*
X608178Y43535D01*
X607850Y43440D01*
X607499Y43338D01*
X607496Y43337D01*
X607494Y43336D01*
X607168Y43201D01*
X606841Y43065D01*
X606839Y43064D01*
X606836Y43063D01*
X606531Y42894D01*
X606218Y42720D01*
X606215Y42719D01*
X606213Y42717D01*
X605922Y42510D01*
X605637Y42308D01*
X605635Y42306D01*
X605633Y42304D01*
X605110Y41836D01*
X605101Y41827D01*
X599780Y39623D01*
X594020Y39623D01*
X588698Y41828D01*
X588690Y41836D01*
X588687Y41838D01*
X588685Y41841D01*
X588424Y42074D01*
X588158Y42311D01*
X588156Y42313D01*
X588154Y42315D01*
X587870Y42515D01*
X587577Y42723D01*
X587575Y42725D01*
X587572Y42726D01*
X587262Y42898D01*
X586954Y43068D01*
X586951Y43069D01*
X586948Y43070D01*
X586625Y43204D01*
X586295Y43340D01*
X586293Y43341D01*
X586290Y43342D01*
X585948Y43440D01*
X585611Y43537D01*
X585608Y43538D01*
X585605Y43539D01*
X585244Y43599D01*
X584908Y43656D01*
X584906Y43657D01*
X584903Y43657D01*
X584543Y43677D01*
X584197Y43696D01*
X584194Y43696D01*
X584191Y43696D01*
X583835Y43676D01*
X583486Y43656D01*
X583483Y43655D01*
X583480Y43655D01*
X583136Y43596D01*
X582784Y43536D01*
X582781Y43535D01*
X582778Y43535D01*
X582450Y43440D01*
X582099Y43338D01*
X582096Y43337D01*
X582094Y43336D01*
X581768Y43201D01*
X581441Y43065D01*
X581439Y43064D01*
X581436Y43063D01*
X581131Y42894D01*
X580818Y42720D01*
X580815Y42719D01*
X580813Y42717D01*
X580522Y42510D01*
X580237Y42308D01*
X580235Y42306D01*
X580233Y42304D01*
X579710Y41836D01*
X579701Y41827D01*
X574380Y39623D01*
X568620Y39623D01*
X563298Y41828D01*
X563290Y41836D01*
X563287Y41838D01*
X563285Y41841D01*
X563024Y42074D01*
X562758Y42311D01*
X562756Y42313D01*
X562754Y42315D01*
X562470Y42515D01*
X562177Y42723D01*
X562175Y42725D01*
X562172Y42726D01*
X561862Y42898D01*
X561554Y43068D01*
X561551Y43069D01*
X561548Y43070D01*
X561225Y43204D01*
X560895Y43340D01*
X560893Y43341D01*
X560890Y43342D01*
X560548Y43440D01*
X560211Y43537D01*
X560208Y43538D01*
X560205Y43539D01*
X559844Y43599D01*
X559508Y43656D01*
X559506Y43657D01*
X559503Y43657D01*
X559143Y43677D01*
X558797Y43696D01*
X558794Y43696D01*
X558791Y43696D01*
X558435Y43676D01*
X558086Y43656D01*
X558083Y43655D01*
X558080Y43655D01*
X557736Y43596D01*
X557384Y43536D01*
X557381Y43535D01*
X557378Y43535D01*
X557050Y43440D01*
X556699Y43338D01*
X556696Y43337D01*
X556694Y43336D01*
X556368Y43201D01*
X556041Y43065D01*
X556039Y43064D01*
X556036Y43063D01*
X555731Y42894D01*
X555418Y42720D01*
X555415Y42719D01*
X555413Y42717D01*
X555122Y42510D01*
X554837Y42308D01*
X554835Y42306D01*
X554833Y42304D01*
X554310Y41836D01*
X554301Y41827D01*
X548980Y39623D01*
X543220Y39623D01*
X537898Y41828D01*
X537890Y41836D01*
X537887Y41838D01*
X537885Y41841D01*
X537624Y42074D01*
X537358Y42311D01*
X537356Y42313D01*
X537354Y42315D01*
X537070Y42515D01*
X536777Y42723D01*
X536775Y42725D01*
X536772Y42726D01*
X536462Y42898D01*
X536154Y43068D01*
X536151Y43069D01*
X536148Y43070D01*
X535825Y43204D01*
X535495Y43340D01*
X535493Y43341D01*
X535490Y43342D01*
X535148Y43440D01*
X534811Y43537D01*
X534808Y43538D01*
X534805Y43539D01*
X534444Y43599D01*
X534108Y43656D01*
X534106Y43657D01*
X534103Y43657D01*
X533743Y43677D01*
X533397Y43696D01*
X533394Y43696D01*
X533391Y43696D01*
X533035Y43676D01*
X532686Y43656D01*
X532683Y43655D01*
X532680Y43655D01*
X532336Y43596D01*
X531984Y43536D01*
X531981Y43535D01*
X531978Y43535D01*
X531650Y43440D01*
X531299Y43338D01*
X531296Y43337D01*
X531294Y43336D01*
X530968Y43201D01*
X530641Y43065D01*
X530639Y43064D01*
X530636Y43063D01*
X530331Y42894D01*
X530018Y42720D01*
X530015Y42719D01*
X530013Y42717D01*
X529722Y42510D01*
X529437Y42308D01*
X529435Y42306D01*
X529433Y42304D01*
X528910Y41836D01*
X528901Y41827D01*
X523580Y39623D01*
X517820Y39623D01*
X512498Y41828D01*
X512490Y41836D01*
X512487Y41838D01*
X512485Y41841D01*
X512224Y42074D01*
X511958Y42311D01*
X511956Y42313D01*
X511954Y42315D01*
X511670Y42515D01*
X511377Y42723D01*
X511375Y42725D01*
X511372Y42726D01*
X511062Y42898D01*
X510754Y43068D01*
X510751Y43069D01*
X510748Y43070D01*
X510425Y43204D01*
X510095Y43340D01*
X510093Y43341D01*
X510090Y43342D01*
X509748Y43440D01*
X509411Y43537D01*
X509408Y43538D01*
X509405Y43539D01*
X509044Y43599D01*
X508708Y43656D01*
X508706Y43657D01*
X508703Y43657D01*
X508343Y43677D01*
X507997Y43696D01*
X507994Y43696D01*
X507991Y43696D01*
X507635Y43676D01*
X507286Y43656D01*
X507283Y43655D01*
X507280Y43655D01*
X506936Y43596D01*
X506584Y43536D01*
X506581Y43535D01*
X506578Y43535D01*
X506250Y43440D01*
X505899Y43338D01*
X505896Y43337D01*
X505894Y43336D01*
X505568Y43201D01*
X505241Y43065D01*
X505239Y43064D01*
X505236Y43063D01*
X504931Y42894D01*
X504618Y42720D01*
X504615Y42719D01*
X504613Y42717D01*
X504322Y42510D01*
X504037Y42308D01*
X504035Y42306D01*
X504033Y42304D01*
X503510Y41836D01*
X503501Y41827D01*
X498180Y39623D01*
X492420Y39623D01*
X487099Y41827D01*
X487090Y41836D01*
X487087Y41838D01*
X487086Y41840D01*
X486824Y42074D01*
X486558Y42311D01*
X486556Y42313D01*
X486554Y42315D01*
X486260Y42523D01*
X485977Y42723D01*
X485975Y42725D01*
X485972Y42726D01*
X485662Y42897D01*
X485354Y43068D01*
X485351Y43069D01*
X485349Y43070D01*
X485025Y43204D01*
X484696Y43340D01*
X484693Y43341D01*
X484690Y43342D01*
X484364Y43436D01*
X484011Y43537D01*
X484008Y43538D01*
X484005Y43539D01*
X483658Y43597D01*
X483309Y43656D01*
X483306Y43657D01*
X483303Y43657D01*
X482943Y43677D01*
X482597Y43696D01*
X482594Y43696D01*
X482591Y43696D01*
X482235Y43676D01*
X481886Y43656D01*
X481883Y43655D01*
X481880Y43655D01*
X481537Y43596D01*
X481184Y43536D01*
X481181Y43535D01*
X481178Y43535D01*
X480830Y43434D01*
X480499Y43338D01*
X480497Y43337D01*
X480494Y43337D01*
X480154Y43195D01*
X479841Y43065D01*
X479839Y43064D01*
X479836Y43063D01*
X479518Y42886D01*
X479218Y42720D01*
X479216Y42719D01*
X479213Y42717D01*
X478922Y42510D01*
X478637Y42308D01*
X478635Y42306D01*
X478633Y42304D01*
X478110Y41836D01*
X478102Y41828D01*
X472780Y39623D01*
X467020Y39623D01*
X461698Y41828D01*
X457626Y45900D01*
X455951Y49944D01*
X455949Y49948D01*
X455947Y49952D01*
X455795Y50267D01*
X455641Y50586D01*
X455639Y50590D01*
X455637Y50594D01*
X455450Y50891D01*
X455262Y51189D01*
X455260Y51193D01*
X455257Y51196D01*
X455046Y51461D01*
X454818Y51746D01*
X454815Y51749D01*
X454812Y51753D01*
X454571Y51993D01*
X454314Y52250D01*
X454311Y52252D01*
X454308Y52255D01*
X454025Y52480D01*
X453757Y52694D01*
X453754Y52696D01*
X453750Y52699D01*
X453442Y52892D01*
X453154Y53073D01*
X453150Y53074D01*
X453146Y53077D01*
X452514Y53380D01*
X451478Y53810D01*
X444418Y60870D01*
X444417Y60871D01*
X444416Y60872D01*
X444138Y61120D01*
X443886Y61345D01*
X443885Y61346D01*
X443884Y61347D01*
X443563Y61574D01*
X443305Y61757D01*
X443304Y61758D01*
X443303Y61759D01*
X442976Y61939D01*
X442682Y62102D01*
X442680Y62102D01*
X442679Y62103D01*
X442361Y62235D01*
X442023Y62374D01*
X442022Y62375D01*
X442021Y62375D01*
X441677Y62474D01*
X441339Y62571D01*
X441338Y62571D01*
X441336Y62572D01*
X440982Y62632D01*
X440636Y62690D01*
X440635Y62690D01*
X440634Y62691D01*
X440285Y62710D01*
X439925Y62730D01*
X439924Y62730D01*
X439922Y62730D01*
X439587Y62711D01*
X439214Y62690D01*
X439212Y62689D01*
X439211Y62689D01*
X438899Y62636D01*
X438512Y62570D01*
X438510Y62569D01*
X438509Y62569D01*
X438173Y62472D01*
X437827Y62372D01*
X437826Y62372D01*
X437824Y62371D01*
X437492Y62233D01*
X437169Y62099D01*
X437168Y62098D01*
X437167Y62098D01*
X436843Y61919D01*
X436546Y61754D01*
X436545Y61753D01*
X436543Y61753D01*
X436293Y61574D01*
X435965Y61341D01*
X435964Y61340D01*
X435963Y61340D01*
X435724Y61126D01*
X435434Y60866D01*
X435433Y60865D01*
X435432Y60864D01*
X435181Y60582D01*
X434960Y60335D01*
X434959Y60333D01*
X434958Y60332D01*
X434740Y60024D01*
X434548Y59753D01*
X434548Y59752D01*
X434547Y59751D01*
X434361Y59413D01*
X434205Y59129D01*
X434204Y59128D01*
X434203Y59127D01*
X434063Y58786D01*
X433933Y58471D01*
X433932Y58469D01*
X433932Y58468D01*
X433838Y58141D01*
X433736Y57786D01*
X433736Y57784D01*
X433736Y57783D01*
X433679Y57444D01*
X433618Y57083D01*
X433618Y57082D01*
X433617Y57081D01*
X433579Y56381D01*
X433579Y51222D01*
X431014Y45030D01*
X430954Y44857D01*
X430884Y44688D01*
X430836Y44521D01*
X430779Y44358D01*
X430738Y44179D01*
X430688Y44003D01*
X430659Y43832D01*
X430620Y43663D01*
X430600Y43481D01*
X430569Y43300D01*
X430560Y43125D01*
X430541Y42955D01*
X430541Y42781D01*
X430531Y42601D01*
X430531Y26936D01*
X428791Y22735D01*
X428071Y22016D01*
X428070Y22014D01*
X428069Y22014D01*
X427808Y21722D01*
X427596Y21484D01*
X427596Y21483D01*
X427595Y21482D01*
X427371Y21166D01*
X427184Y20903D01*
X427184Y20902D01*
X427183Y20901D01*
X426992Y20555D01*
X426840Y20280D01*
X426839Y20279D01*
X426838Y20277D01*
X426687Y19910D01*
X426567Y19622D01*
X426567Y19620D01*
X426566Y19619D01*
X426463Y19261D01*
X426370Y18937D01*
X426370Y18936D01*
X426369Y18934D01*
X426311Y18589D01*
X426251Y18235D01*
X426251Y18233D01*
X426251Y18232D01*
X426231Y17879D01*
X426211Y17523D01*
X426211Y17522D01*
X426211Y17520D01*
X426231Y17180D01*
X426252Y16812D01*
X426252Y16810D01*
X426252Y16809D01*
X426308Y16479D01*
X426371Y16110D01*
X426372Y16108D01*
X426372Y16107D01*
X426468Y15775D01*
X426569Y15425D01*
X426570Y15424D01*
X426570Y15422D01*
X426699Y15111D01*
X426842Y14767D01*
X426843Y14766D01*
X426843Y14765D01*
X427005Y14473D01*
X427187Y14144D01*
X427188Y14143D01*
X427189Y14141D01*
X427380Y13872D01*
X427600Y13563D01*
X427601Y13562D01*
X427602Y13561D01*
X427829Y13307D01*
X428075Y13032D01*
X428076Y13031D01*
X428077Y13030D01*
X428363Y12775D01*
X428607Y12558D01*
X428608Y12557D01*
X428609Y12556D01*
X428914Y12341D01*
X429188Y12146D01*
X429189Y12146D01*
X429191Y12145D01*
X429492Y11979D01*
X429812Y11803D01*
X429813Y11802D01*
X429815Y11801D01*
X430131Y11671D01*
X430470Y11531D01*
X430472Y11530D01*
X430473Y11530D01*
X430797Y11437D01*
X431155Y11334D01*
X431157Y11334D01*
X431158Y11334D01*
X431509Y11275D01*
X431858Y11216D01*
X431859Y11216D01*
X431861Y11215D01*
X432561Y11177D01*
X907140Y11177D01*
X907145Y11177D01*
G37*
%LPC*%
G36*
X149520Y522223D02*
X149520Y522223D01*
X144198Y524428D01*
X140126Y528500D01*
X137921Y533822D01*
X137921Y558378D01*
X140126Y563700D01*
X144198Y567772D01*
X149520Y569977D01*
X155280Y569977D01*
X160601Y567773D01*
X160610Y567764D01*
X160613Y567762D01*
X160614Y567760D01*
X160886Y567518D01*
X161142Y567289D01*
X161144Y567287D01*
X161146Y567285D01*
X161440Y567077D01*
X161723Y566877D01*
X161725Y566875D01*
X161728Y566874D01*
X162038Y566703D01*
X162346Y566532D01*
X162349Y566531D01*
X162351Y566530D01*
X162675Y566396D01*
X163004Y566260D01*
X163007Y566259D01*
X163010Y566258D01*
X163336Y566164D01*
X163689Y566063D01*
X163692Y566062D01*
X163695Y566061D01*
X164042Y566003D01*
X164391Y565944D01*
X164394Y565943D01*
X164397Y565943D01*
X164757Y565923D01*
X165103Y565904D01*
X165106Y565904D01*
X165109Y565904D01*
X165465Y565924D01*
X165814Y565944D01*
X165817Y565945D01*
X165820Y565945D01*
X166163Y566004D01*
X166516Y566064D01*
X166519Y566065D01*
X166522Y566065D01*
X166870Y566166D01*
X167201Y566262D01*
X167203Y566263D01*
X167206Y566263D01*
X167546Y566405D01*
X167859Y566535D01*
X167861Y566536D01*
X167864Y566537D01*
X168182Y566714D01*
X168482Y566880D01*
X168484Y566881D01*
X168487Y566883D01*
X168778Y567090D01*
X169063Y567292D01*
X169065Y567294D01*
X169067Y567296D01*
X169590Y567764D01*
X169598Y567772D01*
X174920Y569977D01*
X180680Y569977D01*
X186002Y567772D01*
X186010Y567764D01*
X186013Y567762D01*
X186015Y567759D01*
X186286Y567518D01*
X186542Y567289D01*
X186544Y567287D01*
X186546Y567285D01*
X186830Y567085D01*
X187123Y566877D01*
X187125Y566875D01*
X187128Y566874D01*
X187438Y566702D01*
X187746Y566532D01*
X187749Y566531D01*
X187752Y566530D01*
X188075Y566396D01*
X188405Y566260D01*
X188407Y566259D01*
X188410Y566258D01*
X188752Y566160D01*
X189089Y566063D01*
X189092Y566062D01*
X189095Y566061D01*
X189456Y566001D01*
X189792Y565944D01*
X189794Y565943D01*
X189797Y565943D01*
X190157Y565923D01*
X190503Y565904D01*
X190506Y565904D01*
X190509Y565904D01*
X190865Y565924D01*
X191214Y565944D01*
X191217Y565945D01*
X191220Y565945D01*
X191564Y566004D01*
X191916Y566064D01*
X191919Y566065D01*
X191922Y566065D01*
X192250Y566160D01*
X192601Y566262D01*
X192604Y566263D01*
X192606Y566264D01*
X192932Y566399D01*
X193259Y566535D01*
X193261Y566536D01*
X193264Y566537D01*
X193569Y566706D01*
X193882Y566880D01*
X193885Y566881D01*
X193887Y566883D01*
X194178Y567090D01*
X194463Y567292D01*
X194465Y567294D01*
X194467Y567296D01*
X194990Y567764D01*
X194999Y567773D01*
X200320Y569977D01*
X206080Y569977D01*
X211402Y567772D01*
X213362Y565812D01*
X213586Y565612D01*
X213806Y565408D01*
X213851Y565375D01*
X213893Y565338D01*
X214138Y565164D01*
X214379Y564986D01*
X214428Y564958D01*
X214474Y564925D01*
X214737Y564780D01*
X214997Y564630D01*
X215048Y564608D01*
X215098Y564581D01*
X215375Y564466D01*
X215650Y564346D01*
X215704Y564330D01*
X215756Y564308D01*
X216043Y564226D01*
X216331Y564137D01*
X216387Y564127D01*
X216441Y564111D01*
X216736Y564061D01*
X217031Y564006D01*
X217087Y564002D01*
X217143Y563992D01*
X217443Y563975D01*
X217742Y563953D01*
X217798Y563956D01*
X217854Y563953D01*
X218154Y563970D01*
X218454Y563981D01*
X218509Y563990D01*
X218565Y563993D01*
X218862Y564043D01*
X219158Y564088D01*
X219212Y564103D01*
X219268Y564113D01*
X219556Y564196D01*
X219846Y564274D01*
X219898Y564295D01*
X219952Y564310D01*
X220230Y564425D01*
X220509Y564535D01*
X220558Y564562D01*
X220610Y564583D01*
X220873Y564729D01*
X221138Y564869D01*
X221185Y564901D01*
X221234Y564928D01*
X221461Y565090D01*
X221717Y565265D01*
X221953Y565446D01*
X222251Y565618D01*
X222251Y546100D01*
X222251Y526582D01*
X221953Y526754D01*
X221717Y526935D01*
X221468Y527105D01*
X221224Y527278D01*
X221175Y527305D01*
X221128Y527337D01*
X220863Y527477D01*
X220600Y527622D01*
X220548Y527643D01*
X220498Y527669D01*
X220219Y527779D01*
X219941Y527894D01*
X219887Y527909D01*
X219835Y527930D01*
X219545Y528007D01*
X219257Y528090D01*
X219201Y528099D01*
X219147Y528114D01*
X218850Y528159D01*
X218554Y528208D01*
X218498Y528212D01*
X218442Y528220D01*
X218143Y528231D01*
X217843Y528247D01*
X217787Y528244D01*
X217730Y528246D01*
X217431Y528224D01*
X217132Y528207D01*
X217076Y528197D01*
X217020Y528193D01*
X216725Y528137D01*
X216429Y528086D01*
X216375Y528071D01*
X216320Y528060D01*
X216033Y527971D01*
X215745Y527888D01*
X215693Y527866D01*
X215639Y527850D01*
X215365Y527730D01*
X215087Y527614D01*
X215038Y527587D01*
X214987Y527564D01*
X214727Y527414D01*
X214464Y527269D01*
X214419Y527236D01*
X214370Y527208D01*
X214128Y527029D01*
X213884Y526855D01*
X213842Y526818D01*
X213797Y526784D01*
X213591Y526593D01*
X213362Y526388D01*
X211402Y524428D01*
X206080Y522223D01*
X200320Y522223D01*
X194999Y524427D01*
X194990Y524436D01*
X194987Y524438D01*
X194986Y524440D01*
X194724Y524674D01*
X194458Y524911D01*
X194456Y524913D01*
X194454Y524915D01*
X194160Y525123D01*
X193877Y525323D01*
X193875Y525325D01*
X193872Y525326D01*
X193562Y525497D01*
X193254Y525668D01*
X193251Y525669D01*
X193249Y525670D01*
X192925Y525804D01*
X192596Y525940D01*
X192593Y525941D01*
X192590Y525942D01*
X192264Y526036D01*
X191911Y526137D01*
X191908Y526138D01*
X191905Y526139D01*
X191558Y526197D01*
X191209Y526256D01*
X191206Y526257D01*
X191203Y526257D01*
X190843Y526277D01*
X190497Y526296D01*
X190494Y526296D01*
X190491Y526296D01*
X190135Y526276D01*
X189786Y526256D01*
X189783Y526255D01*
X189780Y526255D01*
X189437Y526196D01*
X189084Y526136D01*
X189081Y526135D01*
X189078Y526135D01*
X188730Y526034D01*
X188399Y525938D01*
X188397Y525937D01*
X188394Y525937D01*
X188054Y525795D01*
X187741Y525665D01*
X187739Y525664D01*
X187736Y525663D01*
X187418Y525486D01*
X187118Y525320D01*
X187116Y525319D01*
X187113Y525317D01*
X186821Y525109D01*
X186537Y524908D01*
X186535Y524906D01*
X186533Y524904D01*
X186010Y524436D01*
X186002Y524428D01*
X180680Y522223D01*
X174920Y522223D01*
X169598Y524428D01*
X169590Y524436D01*
X169587Y524438D01*
X169585Y524441D01*
X169324Y524674D01*
X169058Y524911D01*
X169056Y524913D01*
X169054Y524915D01*
X168770Y525115D01*
X168477Y525323D01*
X168475Y525325D01*
X168472Y525326D01*
X168162Y525498D01*
X167854Y525668D01*
X167851Y525669D01*
X167848Y525670D01*
X167525Y525804D01*
X167195Y525940D01*
X167193Y525941D01*
X167190Y525942D01*
X166848Y526040D01*
X166511Y526137D01*
X166508Y526138D01*
X166505Y526139D01*
X166144Y526199D01*
X165808Y526256D01*
X165806Y526257D01*
X165803Y526257D01*
X165443Y526277D01*
X165097Y526296D01*
X165094Y526296D01*
X165091Y526296D01*
X164735Y526276D01*
X164386Y526256D01*
X164383Y526255D01*
X164380Y526255D01*
X164036Y526196D01*
X163684Y526136D01*
X163681Y526135D01*
X163678Y526135D01*
X163350Y526040D01*
X162999Y525938D01*
X162996Y525937D01*
X162994Y525936D01*
X162668Y525801D01*
X162341Y525665D01*
X162339Y525664D01*
X162336Y525663D01*
X162031Y525494D01*
X161718Y525320D01*
X161715Y525319D01*
X161713Y525317D01*
X161421Y525109D01*
X161137Y524908D01*
X161135Y524906D01*
X161133Y524904D01*
X160610Y524436D01*
X160601Y524427D01*
X155280Y522223D01*
X149520Y522223D01*
G37*
%LPD*%
%LPC*%
G36*
X84809Y107949D02*
X84809Y107949D01*
X84809Y115352D01*
X85071Y117340D01*
X85590Y119276D01*
X86357Y121127D01*
X87359Y122863D01*
X88579Y124454D01*
X89996Y125871D01*
X91587Y127091D01*
X93323Y128093D01*
X93751Y128271D01*
X93751Y107949D01*
X84809Y107949D01*
G37*
%LPD*%
%LPC*%
G36*
X93323Y75107D02*
X93323Y75107D01*
X91587Y76109D01*
X89996Y77329D01*
X88579Y78746D01*
X87359Y80337D01*
X86357Y82073D01*
X85590Y83924D01*
X85071Y85860D01*
X84809Y87848D01*
X84809Y95251D01*
X93751Y95251D01*
X93751Y74929D01*
X93323Y75107D01*
G37*
%LPD*%
%LPC*%
G36*
X374649Y69849D02*
X374649Y69849D01*
X374649Y83018D01*
X374947Y82846D01*
X376189Y81893D01*
X376510Y81572D01*
X376512Y81570D01*
X376514Y81567D01*
X376788Y81324D01*
X377041Y81097D01*
X377044Y81095D01*
X377046Y81093D01*
X377347Y80880D01*
X377623Y80685D01*
X377625Y80683D01*
X377628Y80682D01*
X377950Y80504D01*
X378246Y80340D01*
X378249Y80339D01*
X378251Y80338D01*
X378591Y80197D01*
X378904Y80068D01*
X378907Y80067D01*
X378910Y80066D01*
X379259Y79966D01*
X379589Y79871D01*
X379592Y79870D01*
X379595Y79869D01*
X379950Y79809D01*
X380291Y79752D01*
X380294Y79751D01*
X380297Y79751D01*
X380654Y79731D01*
X381003Y79712D01*
X381006Y79712D01*
X381009Y79712D01*
X381369Y79733D01*
X381714Y79752D01*
X381717Y79753D01*
X381720Y79753D01*
X382072Y79813D01*
X382416Y79872D01*
X382419Y79873D01*
X382422Y79873D01*
X382768Y79973D01*
X383101Y80069D01*
X383103Y80071D01*
X383106Y80071D01*
X383435Y80208D01*
X383759Y80343D01*
X383761Y80344D01*
X383764Y80345D01*
X384066Y80513D01*
X384382Y80688D01*
X384384Y80689D01*
X384387Y80691D01*
X384671Y80893D01*
X384963Y81100D01*
X384965Y81102D01*
X384967Y81104D01*
X385490Y81572D01*
X385811Y81893D01*
X387053Y82846D01*
X387351Y83018D01*
X387351Y69849D01*
X374649Y69849D01*
G37*
%LPD*%
%LPC*%
G36*
X387053Y44154D02*
X387053Y44154D01*
X385811Y45107D01*
X385490Y45428D01*
X385487Y45430D01*
X385485Y45433D01*
X385222Y45668D01*
X384958Y45903D01*
X384956Y45905D01*
X384954Y45907D01*
X384664Y46112D01*
X384377Y46315D01*
X384375Y46317D01*
X384372Y46319D01*
X384050Y46496D01*
X383754Y46660D01*
X383751Y46661D01*
X383748Y46662D01*
X383408Y46803D01*
X383095Y46932D01*
X383093Y46933D01*
X383090Y46934D01*
X382741Y47034D01*
X382411Y47129D01*
X382408Y47130D01*
X382405Y47131D01*
X382050Y47191D01*
X381708Y47248D01*
X381706Y47249D01*
X381703Y47249D01*
X381345Y47269D01*
X380997Y47288D01*
X380994Y47288D01*
X380991Y47288D01*
X380648Y47268D01*
X380286Y47248D01*
X380283Y47247D01*
X380280Y47247D01*
X379945Y47190D01*
X379584Y47128D01*
X379581Y47127D01*
X379578Y47127D01*
X379232Y47027D01*
X378899Y46930D01*
X378897Y46929D01*
X378894Y46929D01*
X378559Y46789D01*
X378241Y46657D01*
X378239Y46656D01*
X378236Y46655D01*
X377929Y46485D01*
X377618Y46312D01*
X377615Y46311D01*
X377613Y46309D01*
X377329Y46107D01*
X377037Y45900D01*
X377035Y45898D01*
X377033Y45896D01*
X376510Y45428D01*
X376189Y45107D01*
X374947Y44154D01*
X374649Y43982D01*
X374649Y57151D01*
X387351Y57151D01*
X387351Y43982D01*
X387053Y44154D01*
G37*
%LPD*%
%LPC*%
G36*
X933449Y102361D02*
X933449Y102361D01*
X933449Y107951D01*
X956016Y107951D01*
X955844Y107653D01*
X954891Y106411D01*
X953785Y105305D01*
X952543Y104352D01*
X951188Y103569D01*
X949742Y102971D01*
X948230Y102566D01*
X946679Y102361D01*
X933449Y102361D01*
G37*
%LPD*%
%LPC*%
G36*
X882121Y102361D02*
X882121Y102361D01*
X880570Y102566D01*
X879058Y102971D01*
X877612Y103569D01*
X876257Y104352D01*
X875015Y105305D01*
X873909Y106411D01*
X872956Y107653D01*
X872784Y107951D01*
X895351Y107951D01*
X895351Y102361D01*
X882121Y102361D01*
G37*
%LPD*%
%LPC*%
G36*
X920453Y104352D02*
X920453Y104352D01*
X919211Y105305D01*
X918890Y105626D01*
X918887Y105628D01*
X918885Y105631D01*
X918622Y105866D01*
X918358Y106101D01*
X918356Y106103D01*
X918354Y106105D01*
X918069Y106307D01*
X917777Y106513D01*
X917775Y106515D01*
X917772Y106517D01*
X917450Y106694D01*
X917154Y106858D01*
X917151Y106859D01*
X917148Y106860D01*
X916808Y107001D01*
X916495Y107130D01*
X916493Y107131D01*
X916490Y107132D01*
X916141Y107232D01*
X915811Y107327D01*
X915808Y107328D01*
X915805Y107329D01*
X915450Y107389D01*
X915108Y107446D01*
X915106Y107447D01*
X915103Y107447D01*
X914745Y107467D01*
X914397Y107486D01*
X914394Y107486D01*
X914391Y107486D01*
X914048Y107466D01*
X913686Y107446D01*
X913683Y107445D01*
X913680Y107445D01*
X913345Y107388D01*
X912984Y107326D01*
X912981Y107325D01*
X912978Y107325D01*
X912632Y107225D01*
X912299Y107128D01*
X912297Y107127D01*
X912294Y107127D01*
X911959Y106987D01*
X911641Y106855D01*
X911639Y106854D01*
X911636Y106853D01*
X911326Y106681D01*
X911018Y106510D01*
X911015Y106509D01*
X911013Y106507D01*
X910729Y106305D01*
X910437Y106098D01*
X910435Y106096D01*
X910433Y106094D01*
X909910Y105626D01*
X909589Y105305D01*
X908347Y104352D01*
X908049Y104180D01*
X908049Y107951D01*
X920751Y107951D01*
X920751Y104180D01*
X920453Y104352D01*
G37*
%LPD*%
%LPC*%
G36*
X273049Y133351D02*
X273049Y133351D01*
X273283Y133351D01*
X273049Y133117D01*
X273049Y133351D01*
G37*
%LPD*%
D10*
X723900Y54102D02*
X723900Y72898D01*
X749300Y72898D02*
X749300Y54102D01*
X774700Y54102D02*
X774700Y72898D01*
X800100Y72898D02*
X800100Y54102D01*
X825500Y54102D02*
X825500Y72898D01*
X850900Y72898D02*
X850900Y54102D01*
X876300Y54102D02*
X876300Y72898D01*
X698500Y72898D02*
X698500Y54102D01*
X673100Y536702D02*
X673100Y555498D01*
X698500Y555498D02*
X698500Y536702D01*
X723900Y536702D02*
X723900Y555498D01*
X749300Y555498D02*
X749300Y536702D01*
X774700Y536702D02*
X774700Y555498D01*
X800100Y555498D02*
X800100Y536702D01*
X825500Y536702D02*
X825500Y555498D01*
X647700Y555498D02*
X647700Y536702D01*
X495300Y72898D02*
X495300Y54102D01*
X520700Y54102D02*
X520700Y72898D01*
X546100Y72898D02*
X546100Y54102D01*
X571500Y54102D02*
X571500Y72898D01*
X596900Y72898D02*
X596900Y54102D01*
X622300Y54102D02*
X622300Y72898D01*
X647700Y72898D02*
X647700Y54102D01*
X469900Y54102D02*
X469900Y72898D01*
X444500Y536702D02*
X444500Y555498D01*
X469900Y555498D02*
X469900Y536702D01*
X495300Y536702D02*
X495300Y555498D01*
X520700Y555498D02*
X520700Y536702D01*
X546100Y536702D02*
X546100Y555498D01*
X571500Y555498D02*
X571500Y536702D01*
X596900Y536702D02*
X596900Y555498D01*
X419100Y555498D02*
X419100Y536702D01*
X228600Y536702D02*
X228600Y555498D01*
X254000Y555498D02*
X254000Y536702D01*
X279400Y536702D02*
X279400Y555498D01*
X304800Y555498D02*
X304800Y536702D01*
X330200Y536702D02*
X330200Y555498D01*
X355600Y555498D02*
X355600Y536702D01*
X381000Y536702D02*
X381000Y555498D01*
X203200Y555498D02*
X203200Y536702D01*
X927100Y342900D02*
X945896Y342900D01*
X901700Y342900D02*
X882904Y342900D01*
X927100Y368300D02*
X945896Y368300D01*
X901700Y368300D02*
X882904Y368300D01*
X927100Y393700D02*
X945896Y393700D01*
X901700Y393700D02*
X882904Y393700D01*
X927100Y419100D02*
X945896Y419100D01*
X901700Y419100D02*
X882904Y419100D01*
X927100Y444500D02*
X945896Y444500D01*
X901700Y444500D02*
X882904Y444500D01*
X927100Y469900D02*
X945896Y469900D01*
X901700Y469900D02*
X882904Y469900D01*
X927100Y495300D02*
X945896Y495300D01*
X901700Y495300D02*
X882904Y495300D01*
X927100Y520700D02*
X945896Y520700D01*
X901700Y520700D02*
X882904Y520700D01*
X927100Y139700D02*
X945896Y139700D01*
X901700Y139700D02*
X882904Y139700D01*
X927100Y165100D02*
X945896Y165100D01*
X901700Y165100D02*
X882904Y165100D01*
X927100Y190500D02*
X945896Y190500D01*
X901700Y190500D02*
X882904Y190500D01*
X927100Y215900D02*
X945896Y215900D01*
X901700Y215900D02*
X882904Y215900D01*
X927100Y241300D02*
X945896Y241300D01*
X901700Y241300D02*
X882904Y241300D01*
X927100Y266700D02*
X945896Y266700D01*
X901700Y266700D02*
X882904Y266700D01*
X927100Y292100D02*
X945896Y292100D01*
X901700Y292100D02*
X882904Y292100D01*
X927100Y317500D02*
X945896Y317500D01*
X901700Y317500D02*
X882904Y317500D01*
X882904Y114300D02*
X901700Y114300D01*
X927100Y114300D02*
X945896Y114300D01*
X901700Y546100D02*
X882904Y546100D01*
X927100Y546100D02*
X945896Y546100D01*
X292100Y72898D02*
X292100Y54102D01*
X317500Y54102D02*
X317500Y72898D01*
X342900Y72898D02*
X342900Y54102D01*
X368300Y54102D02*
X368300Y72898D01*
X393700Y72898D02*
X393700Y54102D01*
X419100Y54102D02*
X419100Y72898D01*
X177800Y536702D02*
X177800Y555498D01*
X152400Y555498D02*
X152400Y536702D01*
X266700Y72898D02*
X266700Y54102D01*
X241300Y54102D02*
X241300Y72898D01*
D11*
X100100Y88850D02*
X100100Y114350D01*
X139700Y114350D02*
X139700Y88850D01*
X179300Y88850D02*
X179300Y114350D01*
D12*
X469900Y462280D02*
X469900Y477520D01*
X444500Y477520D02*
X444500Y462280D01*
X419100Y462280D02*
X419100Y477520D01*
X495300Y477520D02*
X495300Y462280D01*
X469900Y134620D02*
X469900Y119380D01*
X444500Y119380D02*
X444500Y134620D01*
X419100Y134620D02*
X419100Y119380D01*
X495300Y119380D02*
X495300Y134620D01*
X749300Y134620D02*
X749300Y119380D01*
X723900Y119380D02*
X723900Y134620D01*
X698500Y134620D02*
X698500Y119380D01*
X774700Y119380D02*
X774700Y134620D01*
X609600Y134620D02*
X609600Y119380D01*
X584200Y119380D02*
X584200Y134620D01*
X558800Y134620D02*
X558800Y119380D01*
X635000Y119380D02*
X635000Y134620D01*
X381000Y398780D02*
X381000Y414020D01*
X355600Y414020D02*
X355600Y398780D01*
X292100Y398780D02*
X292100Y414020D01*
X266700Y414020D02*
X266700Y398780D01*
X812800Y462280D02*
X812800Y477520D01*
X787400Y477520D02*
X787400Y462280D01*
X762000Y462280D02*
X762000Y477520D01*
X812800Y414020D02*
X812800Y398780D01*
X787400Y398780D02*
X787400Y414020D01*
X762000Y414020D02*
X762000Y398780D01*
X812800Y350520D02*
X812800Y335280D01*
X787400Y335280D02*
X787400Y350520D01*
X762000Y350520D02*
X762000Y335280D01*
X609600Y462280D02*
X609600Y477520D01*
X584200Y477520D02*
X584200Y462280D01*
X558800Y462280D02*
X558800Y477520D01*
X609600Y414020D02*
X609600Y398780D01*
X584200Y398780D02*
X584200Y414020D01*
X558800Y414020D02*
X558800Y398780D01*
X609600Y350520D02*
X609600Y335280D01*
X584200Y335280D02*
X584200Y350520D01*
X558800Y350520D02*
X558800Y335280D01*
X266700Y474980D02*
X266700Y490220D01*
X241300Y490220D02*
X241300Y474980D01*
D13*
X241300Y139700D03*
X266700Y139700D03*
X215900Y203200D03*
X292100Y203200D03*
D14*
X419100Y63500D02*
X419100Y29210D01*
X406400Y16510D01*
X220472Y60428D02*
X179300Y101600D01*
X220472Y60428D02*
X220472Y45475D01*
X249437Y16510D01*
X406400Y16510D01*
X901700Y546100D02*
X927100Y546100D01*
X139700Y114300D02*
X139700Y101600D01*
X139700Y114300D02*
X165100Y139700D01*
X190500Y139700D01*
X203200Y139700D01*
X241300Y101600D01*
X330200Y101600D01*
X342900Y88900D01*
X342900Y63500D01*
X215900Y203200D02*
X190500Y177800D01*
X190500Y139700D01*
X419100Y469900D02*
X419100Y546100D01*
X444500Y546100D02*
X444500Y469900D01*
X469900Y469900D02*
X469900Y546100D01*
X495300Y546100D02*
X495300Y469900D01*
X897128Y312928D02*
X901700Y317500D01*
X897128Y312928D02*
X784104Y312928D01*
X692156Y220980D01*
X614680Y220980D02*
X576580Y182880D01*
X450850Y133350D02*
X444500Y127000D01*
X450850Y158495D02*
X475235Y182880D01*
X450850Y158495D02*
X450850Y133350D01*
X614680Y220980D02*
X692156Y220980D01*
X576580Y182880D02*
X475235Y182880D01*
X897128Y287528D02*
X901700Y292100D01*
X897128Y287528D02*
X783849Y287528D01*
X699521Y203200D01*
X622300Y203200D02*
X584200Y165100D01*
X482600Y165100D01*
X469900Y152400D01*
X469900Y127000D01*
X622300Y203200D02*
X699521Y203200D01*
X897128Y262128D02*
X901700Y266700D01*
X897128Y262128D02*
X783594Y262128D01*
X704346Y182880D01*
X630919Y182880D02*
X584200Y136161D01*
X584200Y127000D01*
X630919Y182880D02*
X704346Y182880D01*
X897128Y236728D02*
X901700Y241300D01*
X897128Y236728D02*
X783339Y236728D01*
X711711Y165100D01*
X615950Y142511D02*
X615950Y133350D01*
X609600Y127000D01*
X615950Y142511D02*
X638539Y165100D01*
X711711Y165100D01*
X897128Y211328D02*
X901700Y215900D01*
X730250Y133350D02*
X723900Y127000D01*
X783083Y211328D02*
X897128Y211328D01*
X783083Y211328D02*
X730250Y158495D01*
X730250Y133350D01*
X749300Y127000D02*
X749300Y152400D01*
X787400Y190500D02*
X901700Y190500D01*
X787400Y190500D02*
X749300Y152400D01*
X419100Y127000D02*
X419100Y101600D01*
X426974Y93726D01*
X427727Y93726D01*
X457953Y63500D02*
X469900Y63500D01*
X457953Y63500D02*
X427727Y93726D01*
X495300Y63500D02*
X495300Y127000D01*
X533400Y127000D02*
X558800Y127000D01*
X533400Y127000D02*
X520700Y114300D01*
X520700Y63500D01*
X635000Y101600D02*
X635000Y127000D01*
X635000Y101600D02*
X627126Y93726D01*
X562873Y93726D02*
X550672Y81525D01*
X550672Y68072D01*
X546100Y63500D01*
X562873Y93726D02*
X627126Y93726D01*
X800100Y520700D02*
X800100Y546100D01*
X800100Y520700D02*
X762000Y482600D01*
X762000Y469900D01*
X762000Y406400D01*
X762000Y342900D01*
X576309Y316230D02*
X575039Y317500D01*
X571500Y317500D01*
X735330Y316230D02*
X762000Y342900D01*
X735330Y316230D02*
X576309Y316230D01*
X571500Y317500D02*
X558800Y330200D01*
X558800Y342900D01*
X558800Y406400D02*
X558800Y469900D01*
X558800Y406400D02*
X558800Y342900D01*
X825500Y520700D02*
X825500Y546100D01*
X825500Y520700D02*
X787400Y482600D01*
X787400Y469900D01*
X787400Y406400D01*
X787400Y342900D01*
X820928Y564125D02*
X808727Y576326D01*
X639073Y576326D02*
X626872Y564125D01*
X820928Y550672D02*
X825500Y546100D01*
X820928Y550672D02*
X820928Y564125D01*
X626872Y525272D02*
X584200Y482600D01*
X639073Y576326D02*
X808727Y576326D01*
X626872Y564125D02*
X626872Y525272D01*
X584200Y482600D02*
X584200Y469900D01*
X584200Y406400D01*
X584200Y342900D01*
X304800Y457200D02*
X304800Y546100D01*
X304800Y457200D02*
X266700Y419100D01*
X266700Y406400D01*
X330200Y444500D02*
X330200Y546100D01*
X330200Y444500D02*
X292100Y406400D01*
X355600Y406400D02*
X355600Y546100D01*
X381000Y546100D02*
X381000Y406400D01*
X812800Y469900D02*
X901700Y469900D01*
X866149Y406400D02*
X812800Y406400D01*
X866149Y406400D02*
X874277Y398272D01*
X897128Y398272D01*
X901700Y393700D01*
X901700Y342900D02*
X812800Y342900D01*
X656327Y515874D02*
X655574Y515874D01*
X609600Y469900D01*
X673100Y532647D02*
X673100Y546100D01*
X673100Y532647D02*
X656327Y515874D01*
X698500Y495300D02*
X698500Y546100D01*
X698500Y495300D02*
X609600Y406400D01*
X723900Y457200D02*
X723900Y546100D01*
X723900Y457200D02*
X609600Y342900D01*
X254000Y504461D02*
X254000Y546100D01*
X254000Y504461D02*
X247650Y498111D01*
X247650Y488950D01*
X241300Y482600D01*
X279400Y495300D02*
X279400Y546100D01*
X279400Y495300D02*
X266700Y482600D01*
X248666Y147066D02*
X241300Y139700D01*
X248666Y147066D02*
X248666Y147170D01*
X292100Y190604D02*
X292100Y203200D01*
X292100Y190604D02*
X248666Y147170D01*
X698500Y127000D02*
X698500Y63500D01*
X768350Y120650D02*
X774700Y127000D01*
X768350Y120650D02*
X768350Y111489D01*
X750587Y93726D01*
X740673Y93726D01*
X723900Y76953D01*
X723900Y63500D01*
M02*
