G04 EAGLE Gerber RS-274X export*
G75*
%MOMM*%
%FSLAX34Y34*%
%LPD*%
%INSilkscreen Top*%
%IPPOS*%
%AMOC8*
5,1,8,0,0,1.08239X$1,22.5*%
G01*
%ADD10C,0.127000*%
%ADD11C,0.203200*%
%ADD12C,0.101600*%
%ADD13C,0.254000*%
%ADD14C,0.200000*%
%ADD15C,0.152400*%


D10*
X465981Y587516D02*
X467322Y587516D01*
X467322Y587517D02*
X467393Y587515D01*
X467465Y587509D01*
X467535Y587500D01*
X467605Y587487D01*
X467675Y587470D01*
X467743Y587449D01*
X467810Y587425D01*
X467876Y587397D01*
X467940Y587366D01*
X468003Y587331D01*
X468063Y587293D01*
X468122Y587252D01*
X468178Y587208D01*
X468232Y587161D01*
X468283Y587112D01*
X468331Y587059D01*
X468377Y587004D01*
X468419Y586947D01*
X468459Y586887D01*
X468495Y586826D01*
X468528Y586762D01*
X468557Y586697D01*
X468583Y586631D01*
X468606Y586563D01*
X468625Y586494D01*
X468640Y586424D01*
X468651Y586354D01*
X468659Y586283D01*
X468663Y586212D01*
X468663Y586140D01*
X468659Y586069D01*
X468651Y585998D01*
X468640Y585928D01*
X468625Y585858D01*
X468606Y585789D01*
X468583Y585721D01*
X468557Y585655D01*
X468528Y585590D01*
X468495Y585526D01*
X468459Y585465D01*
X468419Y585405D01*
X468377Y585348D01*
X468331Y585293D01*
X468283Y585240D01*
X468232Y585191D01*
X468178Y585144D01*
X468122Y585100D01*
X468063Y585059D01*
X468003Y585021D01*
X467940Y584986D01*
X467876Y584955D01*
X467810Y584927D01*
X467743Y584903D01*
X467675Y584882D01*
X467605Y584865D01*
X467535Y584852D01*
X467465Y584843D01*
X467393Y584837D01*
X467322Y584835D01*
X465981Y584835D01*
X465981Y589661D01*
X467322Y589661D01*
X467387Y589659D01*
X467451Y589653D01*
X467515Y589643D01*
X467579Y589630D01*
X467641Y589612D01*
X467702Y589591D01*
X467762Y589567D01*
X467820Y589538D01*
X467877Y589506D01*
X467931Y589471D01*
X467983Y589433D01*
X468033Y589391D01*
X468080Y589347D01*
X468124Y589300D01*
X468166Y589250D01*
X468204Y589198D01*
X468239Y589144D01*
X468271Y589087D01*
X468300Y589029D01*
X468324Y588969D01*
X468345Y588908D01*
X468363Y588846D01*
X468376Y588782D01*
X468386Y588718D01*
X468392Y588654D01*
X468394Y588589D01*
X468392Y588524D01*
X468386Y588460D01*
X468376Y588396D01*
X468363Y588332D01*
X468345Y588270D01*
X468324Y588209D01*
X468300Y588149D01*
X468271Y588091D01*
X468239Y588034D01*
X468204Y587980D01*
X468166Y587928D01*
X468124Y587878D01*
X468080Y587831D01*
X468033Y587787D01*
X467983Y587745D01*
X467931Y587707D01*
X467877Y587672D01*
X467820Y587640D01*
X467762Y587611D01*
X467702Y587587D01*
X467641Y587566D01*
X467579Y587548D01*
X467515Y587535D01*
X467451Y587525D01*
X467387Y587519D01*
X467322Y587517D01*
X472613Y589661D02*
X472681Y589659D01*
X472748Y589653D01*
X472815Y589644D01*
X472882Y589631D01*
X472947Y589614D01*
X473012Y589593D01*
X473075Y589569D01*
X473137Y589541D01*
X473197Y589510D01*
X473255Y589476D01*
X473311Y589438D01*
X473366Y589398D01*
X473417Y589354D01*
X473466Y589307D01*
X473513Y589258D01*
X473557Y589207D01*
X473597Y589152D01*
X473635Y589096D01*
X473669Y589038D01*
X473700Y588978D01*
X473728Y588916D01*
X473752Y588853D01*
X473773Y588788D01*
X473790Y588723D01*
X473803Y588656D01*
X473812Y588589D01*
X473818Y588522D01*
X473820Y588454D01*
X472613Y589661D02*
X472535Y589659D01*
X472457Y589653D01*
X472380Y589643D01*
X472303Y589630D01*
X472227Y589612D01*
X472152Y589591D01*
X472078Y589566D01*
X472006Y589537D01*
X471935Y589505D01*
X471866Y589469D01*
X471798Y589430D01*
X471733Y589387D01*
X471670Y589341D01*
X471609Y589292D01*
X471551Y589240D01*
X471496Y589185D01*
X471443Y589128D01*
X471394Y589068D01*
X471347Y589005D01*
X471304Y588941D01*
X471264Y588874D01*
X471227Y588805D01*
X471194Y588734D01*
X471164Y588662D01*
X471138Y588589D01*
X473417Y587516D02*
X473466Y587565D01*
X473513Y587617D01*
X473556Y587672D01*
X473597Y587729D01*
X473635Y587788D01*
X473669Y587849D01*
X473700Y587912D01*
X473728Y587976D01*
X473752Y588042D01*
X473772Y588108D01*
X473789Y588176D01*
X473802Y588245D01*
X473811Y588314D01*
X473817Y588384D01*
X473819Y588454D01*
X473417Y587516D02*
X471138Y584835D01*
X473819Y584835D01*
D11*
X197600Y151100D02*
X179600Y151100D01*
X100050Y151100D01*
X82050Y151100D01*
X82050Y53350D01*
X197600Y53350D01*
X197600Y151100D01*
X179600Y126850D02*
X100050Y126850D01*
X179600Y126850D02*
X179600Y151100D01*
X100050Y151100D02*
X100050Y126850D01*
D12*
X74592Y58956D02*
X62908Y58956D01*
X74592Y57658D02*
X74592Y60254D01*
X62908Y60254D02*
X62908Y57658D01*
X62908Y65236D02*
X74592Y65236D01*
X74592Y71727D02*
X62908Y65236D01*
X62908Y71727D02*
X74592Y71727D01*
X74592Y77597D02*
X62908Y77597D01*
X62908Y80843D01*
X62910Y80956D01*
X62916Y81069D01*
X62926Y81182D01*
X62940Y81295D01*
X62957Y81407D01*
X62979Y81518D01*
X63004Y81628D01*
X63034Y81738D01*
X63067Y81846D01*
X63104Y81953D01*
X63144Y82059D01*
X63189Y82163D01*
X63237Y82266D01*
X63288Y82367D01*
X63343Y82466D01*
X63401Y82563D01*
X63463Y82658D01*
X63528Y82751D01*
X63596Y82841D01*
X63667Y82929D01*
X63742Y83015D01*
X63819Y83098D01*
X63899Y83178D01*
X63982Y83255D01*
X64068Y83330D01*
X64156Y83401D01*
X64246Y83469D01*
X64339Y83534D01*
X64434Y83596D01*
X64531Y83654D01*
X64630Y83709D01*
X64731Y83760D01*
X64834Y83808D01*
X64938Y83853D01*
X65044Y83893D01*
X65151Y83930D01*
X65259Y83963D01*
X65369Y83993D01*
X65479Y84018D01*
X65590Y84040D01*
X65702Y84057D01*
X65815Y84071D01*
X65928Y84081D01*
X66041Y84087D01*
X66154Y84089D01*
X66267Y84087D01*
X66380Y84081D01*
X66493Y84071D01*
X66606Y84057D01*
X66718Y84040D01*
X66829Y84018D01*
X66939Y83993D01*
X67049Y83963D01*
X67157Y83930D01*
X67264Y83893D01*
X67370Y83853D01*
X67474Y83808D01*
X67577Y83760D01*
X67678Y83709D01*
X67777Y83654D01*
X67874Y83596D01*
X67969Y83534D01*
X68062Y83469D01*
X68152Y83401D01*
X68240Y83330D01*
X68326Y83255D01*
X68409Y83178D01*
X68489Y83098D01*
X68566Y83015D01*
X68641Y82929D01*
X68712Y82841D01*
X68780Y82751D01*
X68845Y82658D01*
X68907Y82563D01*
X68965Y82466D01*
X69020Y82367D01*
X69071Y82266D01*
X69119Y82163D01*
X69164Y82059D01*
X69204Y81953D01*
X69241Y81846D01*
X69274Y81738D01*
X69304Y81628D01*
X69329Y81518D01*
X69351Y81407D01*
X69368Y81295D01*
X69382Y81182D01*
X69392Y81069D01*
X69398Y80956D01*
X69400Y80843D01*
X69399Y80843D02*
X69399Y77597D01*
X71346Y88858D02*
X62908Y88858D01*
X71346Y88857D02*
X71459Y88859D01*
X71572Y88865D01*
X71685Y88875D01*
X71798Y88889D01*
X71910Y88906D01*
X72021Y88928D01*
X72131Y88953D01*
X72241Y88983D01*
X72349Y89016D01*
X72456Y89053D01*
X72562Y89093D01*
X72666Y89138D01*
X72769Y89186D01*
X72870Y89237D01*
X72969Y89292D01*
X73066Y89350D01*
X73161Y89412D01*
X73254Y89477D01*
X73344Y89545D01*
X73432Y89616D01*
X73518Y89691D01*
X73601Y89768D01*
X73681Y89848D01*
X73758Y89931D01*
X73833Y90017D01*
X73904Y90105D01*
X73972Y90195D01*
X74037Y90288D01*
X74099Y90383D01*
X74157Y90480D01*
X74212Y90579D01*
X74263Y90680D01*
X74311Y90783D01*
X74356Y90887D01*
X74396Y90993D01*
X74433Y91100D01*
X74466Y91208D01*
X74496Y91318D01*
X74521Y91428D01*
X74543Y91539D01*
X74560Y91651D01*
X74574Y91764D01*
X74584Y91877D01*
X74590Y91990D01*
X74592Y92103D01*
X74590Y92216D01*
X74584Y92329D01*
X74574Y92442D01*
X74560Y92555D01*
X74543Y92667D01*
X74521Y92778D01*
X74496Y92888D01*
X74466Y92998D01*
X74433Y93106D01*
X74396Y93213D01*
X74356Y93319D01*
X74311Y93423D01*
X74263Y93526D01*
X74212Y93627D01*
X74157Y93726D01*
X74099Y93823D01*
X74037Y93918D01*
X73972Y94011D01*
X73904Y94101D01*
X73833Y94189D01*
X73758Y94275D01*
X73681Y94358D01*
X73601Y94438D01*
X73518Y94515D01*
X73432Y94590D01*
X73344Y94661D01*
X73254Y94729D01*
X73161Y94794D01*
X73066Y94856D01*
X72969Y94914D01*
X72870Y94969D01*
X72769Y95020D01*
X72666Y95068D01*
X72562Y95113D01*
X72456Y95153D01*
X72349Y95190D01*
X72241Y95223D01*
X72131Y95253D01*
X72021Y95278D01*
X71910Y95300D01*
X71798Y95317D01*
X71685Y95331D01*
X71572Y95341D01*
X71459Y95347D01*
X71346Y95349D01*
X62908Y95349D01*
X62908Y103152D02*
X74592Y103152D01*
X62908Y99907D02*
X62908Y106398D01*
D13*
X519200Y446325D02*
X519200Y503825D01*
X395200Y503825D01*
X395200Y446325D01*
X519200Y446325D01*
X419200Y446900D02*
X419200Y451900D01*
X496200Y451900D02*
X496200Y446900D01*
D12*
X390142Y450008D02*
X380998Y450008D01*
X380998Y452548D01*
X381000Y452648D01*
X381006Y452747D01*
X381016Y452847D01*
X381029Y452945D01*
X381047Y453044D01*
X381068Y453141D01*
X381093Y453237D01*
X381122Y453333D01*
X381155Y453427D01*
X381191Y453520D01*
X381231Y453611D01*
X381275Y453701D01*
X381322Y453789D01*
X381372Y453875D01*
X381426Y453959D01*
X381483Y454041D01*
X381543Y454120D01*
X381607Y454198D01*
X381673Y454272D01*
X381742Y454344D01*
X381814Y454413D01*
X381888Y454479D01*
X381966Y454543D01*
X382045Y454603D01*
X382127Y454660D01*
X382211Y454714D01*
X382297Y454764D01*
X382385Y454811D01*
X382475Y454855D01*
X382566Y454895D01*
X382659Y454931D01*
X382753Y454964D01*
X382849Y454993D01*
X382945Y455018D01*
X383042Y455039D01*
X383141Y455057D01*
X383239Y455070D01*
X383339Y455080D01*
X383438Y455086D01*
X383538Y455088D01*
X383638Y455086D01*
X383737Y455080D01*
X383837Y455070D01*
X383935Y455057D01*
X384034Y455039D01*
X384131Y455018D01*
X384227Y454993D01*
X384323Y454964D01*
X384417Y454931D01*
X384510Y454895D01*
X384601Y454855D01*
X384691Y454811D01*
X384779Y454764D01*
X384865Y454714D01*
X384949Y454660D01*
X385031Y454603D01*
X385110Y454543D01*
X385188Y454479D01*
X385262Y454413D01*
X385334Y454344D01*
X385403Y454272D01*
X385469Y454198D01*
X385533Y454120D01*
X385593Y454041D01*
X385650Y453959D01*
X385704Y453875D01*
X385754Y453789D01*
X385801Y453701D01*
X385845Y453611D01*
X385885Y453520D01*
X385921Y453427D01*
X385954Y453333D01*
X385983Y453237D01*
X386008Y453141D01*
X386029Y453044D01*
X386047Y452945D01*
X386060Y452847D01*
X386070Y452747D01*
X386076Y452648D01*
X386078Y452548D01*
X386078Y450008D01*
X387602Y458695D02*
X383538Y458695D01*
X383438Y458697D01*
X383339Y458703D01*
X383239Y458713D01*
X383141Y458726D01*
X383042Y458744D01*
X382945Y458765D01*
X382849Y458790D01*
X382753Y458819D01*
X382659Y458852D01*
X382566Y458888D01*
X382475Y458928D01*
X382385Y458972D01*
X382297Y459019D01*
X382211Y459069D01*
X382127Y459123D01*
X382045Y459180D01*
X381966Y459240D01*
X381888Y459304D01*
X381814Y459370D01*
X381742Y459439D01*
X381673Y459511D01*
X381607Y459585D01*
X381543Y459663D01*
X381483Y459742D01*
X381426Y459824D01*
X381372Y459908D01*
X381322Y459994D01*
X381275Y460082D01*
X381231Y460172D01*
X381191Y460263D01*
X381155Y460356D01*
X381122Y460450D01*
X381093Y460546D01*
X381068Y460642D01*
X381047Y460739D01*
X381029Y460838D01*
X381016Y460936D01*
X381006Y461036D01*
X381000Y461135D01*
X380998Y461235D01*
X381000Y461335D01*
X381006Y461434D01*
X381016Y461534D01*
X381029Y461632D01*
X381047Y461731D01*
X381068Y461828D01*
X381093Y461924D01*
X381122Y462020D01*
X381155Y462114D01*
X381191Y462207D01*
X381231Y462298D01*
X381275Y462388D01*
X381322Y462476D01*
X381372Y462562D01*
X381426Y462646D01*
X381483Y462728D01*
X381543Y462807D01*
X381607Y462885D01*
X381673Y462959D01*
X381742Y463031D01*
X381814Y463100D01*
X381888Y463166D01*
X381966Y463230D01*
X382045Y463290D01*
X382127Y463347D01*
X382211Y463401D01*
X382297Y463451D01*
X382385Y463498D01*
X382475Y463542D01*
X382566Y463582D01*
X382659Y463618D01*
X382753Y463651D01*
X382849Y463680D01*
X382945Y463705D01*
X383042Y463726D01*
X383141Y463744D01*
X383239Y463757D01*
X383339Y463767D01*
X383438Y463773D01*
X383538Y463775D01*
X387602Y463775D01*
X387702Y463773D01*
X387801Y463767D01*
X387901Y463757D01*
X387999Y463744D01*
X388098Y463726D01*
X388195Y463705D01*
X388291Y463680D01*
X388387Y463651D01*
X388481Y463618D01*
X388574Y463582D01*
X388665Y463542D01*
X388755Y463498D01*
X388843Y463451D01*
X388929Y463401D01*
X389013Y463347D01*
X389095Y463290D01*
X389174Y463230D01*
X389252Y463166D01*
X389326Y463100D01*
X389398Y463031D01*
X389467Y462959D01*
X389533Y462885D01*
X389597Y462807D01*
X389657Y462728D01*
X389714Y462646D01*
X389768Y462562D01*
X389818Y462476D01*
X389865Y462388D01*
X389909Y462298D01*
X389949Y462207D01*
X389985Y462114D01*
X390018Y462020D01*
X390047Y461924D01*
X390072Y461828D01*
X390093Y461731D01*
X390111Y461632D01*
X390124Y461534D01*
X390134Y461434D01*
X390140Y461335D01*
X390142Y461235D01*
X390140Y461135D01*
X390134Y461036D01*
X390124Y460936D01*
X390111Y460838D01*
X390093Y460739D01*
X390072Y460642D01*
X390047Y460546D01*
X390018Y460450D01*
X389985Y460356D01*
X389949Y460263D01*
X389909Y460172D01*
X389865Y460082D01*
X389818Y459994D01*
X389768Y459908D01*
X389714Y459824D01*
X389657Y459742D01*
X389597Y459663D01*
X389533Y459585D01*
X389467Y459511D01*
X389398Y459439D01*
X389326Y459370D01*
X389252Y459304D01*
X389174Y459240D01*
X389095Y459180D01*
X389013Y459123D01*
X388929Y459069D01*
X388843Y459019D01*
X388755Y458972D01*
X388665Y458928D01*
X388574Y458888D01*
X388481Y458852D01*
X388387Y458819D01*
X388291Y458790D01*
X388195Y458765D01*
X388098Y458744D01*
X387999Y458726D01*
X387901Y458713D01*
X387801Y458703D01*
X387702Y458697D01*
X387602Y458695D01*
X390142Y468144D02*
X380998Y468144D01*
X390142Y473224D01*
X380998Y473224D01*
X380998Y479523D02*
X390142Y479523D01*
X380998Y476983D02*
X380998Y482063D01*
X390142Y485842D02*
X390142Y489906D01*
X390142Y485842D02*
X380998Y485842D01*
X380998Y489906D01*
X385062Y488890D02*
X385062Y485842D01*
X386586Y493543D02*
X386586Y499639D01*
X390142Y504110D02*
X380998Y504110D01*
X385062Y504110D02*
X385062Y509190D01*
X380998Y509190D02*
X390142Y509190D01*
D13*
X519200Y160925D02*
X519200Y103425D01*
X519200Y160925D02*
X395200Y160925D01*
X395200Y103425D01*
X519200Y103425D01*
X419200Y104000D02*
X419200Y109000D01*
X496200Y109000D02*
X496200Y104000D01*
D12*
X390142Y109140D02*
X390142Y111172D01*
X390142Y109140D02*
X390140Y109051D01*
X390134Y108963D01*
X390125Y108875D01*
X390111Y108787D01*
X390094Y108700D01*
X390073Y108614D01*
X390048Y108529D01*
X390019Y108445D01*
X389987Y108362D01*
X389952Y108281D01*
X389912Y108202D01*
X389870Y108124D01*
X389824Y108048D01*
X389775Y107974D01*
X389722Y107903D01*
X389667Y107834D01*
X389608Y107767D01*
X389547Y107703D01*
X389483Y107642D01*
X389416Y107583D01*
X389347Y107528D01*
X389276Y107475D01*
X389202Y107426D01*
X389126Y107380D01*
X389048Y107338D01*
X388969Y107298D01*
X388888Y107263D01*
X388805Y107231D01*
X388721Y107202D01*
X388636Y107177D01*
X388550Y107156D01*
X388463Y107139D01*
X388375Y107125D01*
X388287Y107116D01*
X388199Y107110D01*
X388110Y107108D01*
X383030Y107108D01*
X382941Y107110D01*
X382853Y107116D01*
X382765Y107125D01*
X382677Y107139D01*
X382590Y107156D01*
X382504Y107177D01*
X382419Y107202D01*
X382335Y107231D01*
X382252Y107263D01*
X382171Y107298D01*
X382092Y107338D01*
X382014Y107380D01*
X381938Y107426D01*
X381864Y107475D01*
X381793Y107528D01*
X381724Y107583D01*
X381657Y107642D01*
X381593Y107703D01*
X381532Y107767D01*
X381473Y107834D01*
X381418Y107903D01*
X381365Y107974D01*
X381316Y108048D01*
X381270Y108124D01*
X381228Y108202D01*
X381188Y108281D01*
X381153Y108362D01*
X381121Y108445D01*
X381092Y108529D01*
X381067Y108614D01*
X381046Y108700D01*
X381029Y108787D01*
X381015Y108875D01*
X381006Y108963D01*
X381000Y109051D01*
X380998Y109140D01*
X380998Y111172D01*
X383538Y114758D02*
X387602Y114758D01*
X383538Y114758D02*
X383438Y114760D01*
X383339Y114766D01*
X383239Y114776D01*
X383141Y114789D01*
X383042Y114807D01*
X382945Y114828D01*
X382849Y114853D01*
X382753Y114882D01*
X382659Y114915D01*
X382566Y114951D01*
X382475Y114991D01*
X382385Y115035D01*
X382297Y115082D01*
X382211Y115132D01*
X382127Y115186D01*
X382045Y115243D01*
X381966Y115303D01*
X381888Y115367D01*
X381814Y115433D01*
X381742Y115502D01*
X381673Y115574D01*
X381607Y115648D01*
X381543Y115726D01*
X381483Y115805D01*
X381426Y115887D01*
X381372Y115971D01*
X381322Y116057D01*
X381275Y116145D01*
X381231Y116235D01*
X381191Y116326D01*
X381155Y116419D01*
X381122Y116513D01*
X381093Y116609D01*
X381068Y116705D01*
X381047Y116802D01*
X381029Y116901D01*
X381016Y116999D01*
X381006Y117099D01*
X381000Y117198D01*
X380998Y117298D01*
X381000Y117398D01*
X381006Y117497D01*
X381016Y117597D01*
X381029Y117695D01*
X381047Y117794D01*
X381068Y117891D01*
X381093Y117987D01*
X381122Y118083D01*
X381155Y118177D01*
X381191Y118270D01*
X381231Y118361D01*
X381275Y118451D01*
X381322Y118539D01*
X381372Y118625D01*
X381426Y118709D01*
X381483Y118791D01*
X381543Y118870D01*
X381607Y118948D01*
X381673Y119022D01*
X381742Y119094D01*
X381814Y119163D01*
X381888Y119229D01*
X381966Y119293D01*
X382045Y119353D01*
X382127Y119410D01*
X382211Y119464D01*
X382297Y119514D01*
X382385Y119561D01*
X382475Y119605D01*
X382566Y119645D01*
X382659Y119681D01*
X382753Y119714D01*
X382849Y119743D01*
X382945Y119768D01*
X383042Y119789D01*
X383141Y119807D01*
X383239Y119820D01*
X383339Y119830D01*
X383438Y119836D01*
X383538Y119838D01*
X387602Y119838D01*
X387702Y119836D01*
X387801Y119830D01*
X387901Y119820D01*
X387999Y119807D01*
X388098Y119789D01*
X388195Y119768D01*
X388291Y119743D01*
X388387Y119714D01*
X388481Y119681D01*
X388574Y119645D01*
X388665Y119605D01*
X388755Y119561D01*
X388843Y119514D01*
X388929Y119464D01*
X389013Y119410D01*
X389095Y119353D01*
X389174Y119293D01*
X389252Y119229D01*
X389326Y119163D01*
X389398Y119094D01*
X389467Y119022D01*
X389533Y118948D01*
X389597Y118870D01*
X389657Y118791D01*
X389714Y118709D01*
X389768Y118625D01*
X389818Y118539D01*
X389865Y118451D01*
X389909Y118361D01*
X389949Y118270D01*
X389985Y118177D01*
X390018Y118083D01*
X390047Y117987D01*
X390072Y117891D01*
X390093Y117794D01*
X390111Y117695D01*
X390124Y117597D01*
X390134Y117497D01*
X390140Y117398D01*
X390142Y117298D01*
X390140Y117198D01*
X390134Y117099D01*
X390124Y116999D01*
X390111Y116901D01*
X390093Y116802D01*
X390072Y116705D01*
X390047Y116609D01*
X390018Y116513D01*
X389985Y116419D01*
X389949Y116326D01*
X389909Y116235D01*
X389865Y116145D01*
X389818Y116057D01*
X389768Y115971D01*
X389714Y115887D01*
X389657Y115805D01*
X389597Y115726D01*
X389533Y115648D01*
X389467Y115574D01*
X389398Y115502D01*
X389326Y115433D01*
X389252Y115367D01*
X389174Y115303D01*
X389095Y115243D01*
X389013Y115186D01*
X388929Y115132D01*
X388843Y115082D01*
X388755Y115035D01*
X388665Y114991D01*
X388574Y114951D01*
X388481Y114915D01*
X388387Y114882D01*
X388291Y114853D01*
X388195Y114828D01*
X388098Y114807D01*
X387999Y114789D01*
X387901Y114776D01*
X387801Y114766D01*
X387702Y114760D01*
X387602Y114758D01*
X390142Y124207D02*
X380998Y124207D01*
X390142Y129287D01*
X380998Y129287D01*
X386586Y133757D02*
X386586Y139853D01*
X390142Y144323D02*
X380998Y144323D01*
X380998Y146863D01*
X381000Y146963D01*
X381006Y147062D01*
X381016Y147162D01*
X381029Y147260D01*
X381047Y147359D01*
X381068Y147456D01*
X381093Y147552D01*
X381122Y147648D01*
X381155Y147742D01*
X381191Y147835D01*
X381231Y147926D01*
X381275Y148016D01*
X381322Y148104D01*
X381372Y148190D01*
X381426Y148274D01*
X381483Y148356D01*
X381543Y148435D01*
X381607Y148513D01*
X381673Y148587D01*
X381742Y148659D01*
X381814Y148728D01*
X381888Y148794D01*
X381966Y148858D01*
X382045Y148918D01*
X382127Y148975D01*
X382211Y149029D01*
X382297Y149079D01*
X382385Y149126D01*
X382475Y149170D01*
X382566Y149210D01*
X382659Y149246D01*
X382753Y149279D01*
X382849Y149308D01*
X382945Y149333D01*
X383042Y149354D01*
X383141Y149372D01*
X383239Y149385D01*
X383339Y149395D01*
X383438Y149401D01*
X383538Y149403D01*
X387602Y149403D01*
X387702Y149401D01*
X387801Y149395D01*
X387901Y149385D01*
X387999Y149372D01*
X388098Y149354D01*
X388195Y149333D01*
X388291Y149308D01*
X388387Y149279D01*
X388481Y149246D01*
X388574Y149210D01*
X388665Y149170D01*
X388755Y149126D01*
X388843Y149079D01*
X388929Y149029D01*
X389013Y148975D01*
X389095Y148918D01*
X389174Y148858D01*
X389252Y148794D01*
X389326Y148728D01*
X389398Y148659D01*
X389467Y148587D01*
X389533Y148513D01*
X389597Y148435D01*
X389657Y148356D01*
X389714Y148274D01*
X389768Y148190D01*
X389818Y148104D01*
X389865Y148016D01*
X389909Y147926D01*
X389949Y147835D01*
X389985Y147742D01*
X390018Y147648D01*
X390047Y147552D01*
X390072Y147456D01*
X390093Y147359D01*
X390111Y147260D01*
X390124Y147162D01*
X390134Y147062D01*
X390140Y146963D01*
X390142Y146863D01*
X390142Y144323D01*
X390142Y154483D02*
X380998Y154483D01*
X390142Y153467D02*
X390142Y155499D01*
X380998Y155499D02*
X380998Y153467D01*
X380998Y159630D02*
X390142Y159630D01*
X380998Y159630D02*
X380998Y162170D01*
X381000Y162270D01*
X381006Y162369D01*
X381016Y162469D01*
X381029Y162567D01*
X381047Y162666D01*
X381068Y162763D01*
X381093Y162859D01*
X381122Y162955D01*
X381155Y163049D01*
X381191Y163142D01*
X381231Y163233D01*
X381275Y163323D01*
X381322Y163411D01*
X381372Y163497D01*
X381426Y163581D01*
X381483Y163663D01*
X381543Y163742D01*
X381607Y163820D01*
X381673Y163894D01*
X381742Y163966D01*
X381814Y164035D01*
X381888Y164101D01*
X381966Y164165D01*
X382045Y164225D01*
X382127Y164282D01*
X382211Y164336D01*
X382297Y164386D01*
X382385Y164433D01*
X382475Y164477D01*
X382566Y164517D01*
X382659Y164553D01*
X382753Y164586D01*
X382849Y164615D01*
X382945Y164640D01*
X383042Y164661D01*
X383141Y164679D01*
X383239Y164692D01*
X383339Y164702D01*
X383438Y164708D01*
X383538Y164710D01*
X383638Y164708D01*
X383737Y164702D01*
X383837Y164692D01*
X383935Y164679D01*
X384034Y164661D01*
X384131Y164640D01*
X384227Y164615D01*
X384323Y164586D01*
X384417Y164553D01*
X384510Y164517D01*
X384601Y164477D01*
X384691Y164433D01*
X384779Y164386D01*
X384865Y164336D01*
X384949Y164282D01*
X385031Y164225D01*
X385110Y164165D01*
X385188Y164101D01*
X385262Y164035D01*
X385334Y163966D01*
X385403Y163894D01*
X385469Y163820D01*
X385533Y163742D01*
X385593Y163663D01*
X385650Y163581D01*
X385704Y163497D01*
X385754Y163411D01*
X385801Y163323D01*
X385845Y163233D01*
X385885Y163142D01*
X385921Y163049D01*
X385954Y162955D01*
X385983Y162859D01*
X386008Y162763D01*
X386029Y162666D01*
X386047Y162567D01*
X386060Y162469D01*
X386070Y162369D01*
X386076Y162270D01*
X386078Y162170D01*
X386078Y159630D01*
X386078Y162678D02*
X390142Y164710D01*
D13*
X798600Y160925D02*
X798600Y103425D01*
X798600Y160925D02*
X674600Y160925D01*
X674600Y103425D01*
X798600Y103425D01*
X698600Y104000D02*
X698600Y109000D01*
X775600Y109000D02*
X775600Y104000D01*
D12*
X669542Y109140D02*
X669542Y111172D01*
X669542Y109140D02*
X669540Y109051D01*
X669534Y108963D01*
X669525Y108875D01*
X669511Y108787D01*
X669494Y108700D01*
X669473Y108614D01*
X669448Y108529D01*
X669419Y108445D01*
X669387Y108362D01*
X669352Y108281D01*
X669312Y108202D01*
X669270Y108124D01*
X669224Y108048D01*
X669175Y107974D01*
X669122Y107903D01*
X669067Y107834D01*
X669008Y107767D01*
X668947Y107703D01*
X668883Y107642D01*
X668816Y107583D01*
X668747Y107528D01*
X668676Y107475D01*
X668602Y107426D01*
X668526Y107380D01*
X668448Y107338D01*
X668369Y107298D01*
X668288Y107263D01*
X668205Y107231D01*
X668121Y107202D01*
X668036Y107177D01*
X667950Y107156D01*
X667863Y107139D01*
X667775Y107125D01*
X667687Y107116D01*
X667599Y107110D01*
X667510Y107108D01*
X662430Y107108D01*
X662341Y107110D01*
X662253Y107116D01*
X662165Y107125D01*
X662077Y107139D01*
X661990Y107156D01*
X661904Y107177D01*
X661819Y107202D01*
X661735Y107231D01*
X661652Y107263D01*
X661571Y107298D01*
X661492Y107338D01*
X661414Y107380D01*
X661338Y107426D01*
X661264Y107475D01*
X661193Y107528D01*
X661124Y107583D01*
X661057Y107642D01*
X660993Y107703D01*
X660932Y107767D01*
X660873Y107834D01*
X660818Y107903D01*
X660765Y107974D01*
X660716Y108048D01*
X660670Y108124D01*
X660628Y108202D01*
X660588Y108281D01*
X660553Y108362D01*
X660521Y108445D01*
X660492Y108529D01*
X660467Y108614D01*
X660446Y108700D01*
X660429Y108787D01*
X660415Y108875D01*
X660406Y108963D01*
X660400Y109051D01*
X660398Y109140D01*
X660398Y111172D01*
X662938Y114758D02*
X667002Y114758D01*
X662938Y114758D02*
X662838Y114760D01*
X662739Y114766D01*
X662639Y114776D01*
X662541Y114789D01*
X662442Y114807D01*
X662345Y114828D01*
X662249Y114853D01*
X662153Y114882D01*
X662059Y114915D01*
X661966Y114951D01*
X661875Y114991D01*
X661785Y115035D01*
X661697Y115082D01*
X661611Y115132D01*
X661527Y115186D01*
X661445Y115243D01*
X661366Y115303D01*
X661288Y115367D01*
X661214Y115433D01*
X661142Y115502D01*
X661073Y115574D01*
X661007Y115648D01*
X660943Y115726D01*
X660883Y115805D01*
X660826Y115887D01*
X660772Y115971D01*
X660722Y116057D01*
X660675Y116145D01*
X660631Y116235D01*
X660591Y116326D01*
X660555Y116419D01*
X660522Y116513D01*
X660493Y116609D01*
X660468Y116705D01*
X660447Y116802D01*
X660429Y116901D01*
X660416Y116999D01*
X660406Y117099D01*
X660400Y117198D01*
X660398Y117298D01*
X660400Y117398D01*
X660406Y117497D01*
X660416Y117597D01*
X660429Y117695D01*
X660447Y117794D01*
X660468Y117891D01*
X660493Y117987D01*
X660522Y118083D01*
X660555Y118177D01*
X660591Y118270D01*
X660631Y118361D01*
X660675Y118451D01*
X660722Y118539D01*
X660772Y118625D01*
X660826Y118709D01*
X660883Y118791D01*
X660943Y118870D01*
X661007Y118948D01*
X661073Y119022D01*
X661142Y119094D01*
X661214Y119163D01*
X661288Y119229D01*
X661366Y119293D01*
X661445Y119353D01*
X661527Y119410D01*
X661611Y119464D01*
X661697Y119514D01*
X661785Y119561D01*
X661875Y119605D01*
X661966Y119645D01*
X662059Y119681D01*
X662153Y119714D01*
X662249Y119743D01*
X662345Y119768D01*
X662442Y119789D01*
X662541Y119807D01*
X662639Y119820D01*
X662739Y119830D01*
X662838Y119836D01*
X662938Y119838D01*
X667002Y119838D01*
X667102Y119836D01*
X667201Y119830D01*
X667301Y119820D01*
X667399Y119807D01*
X667498Y119789D01*
X667595Y119768D01*
X667691Y119743D01*
X667787Y119714D01*
X667881Y119681D01*
X667974Y119645D01*
X668065Y119605D01*
X668155Y119561D01*
X668243Y119514D01*
X668329Y119464D01*
X668413Y119410D01*
X668495Y119353D01*
X668574Y119293D01*
X668652Y119229D01*
X668726Y119163D01*
X668798Y119094D01*
X668867Y119022D01*
X668933Y118948D01*
X668997Y118870D01*
X669057Y118791D01*
X669114Y118709D01*
X669168Y118625D01*
X669218Y118539D01*
X669265Y118451D01*
X669309Y118361D01*
X669349Y118270D01*
X669385Y118177D01*
X669418Y118083D01*
X669447Y117987D01*
X669472Y117891D01*
X669493Y117794D01*
X669511Y117695D01*
X669524Y117597D01*
X669534Y117497D01*
X669540Y117398D01*
X669542Y117298D01*
X669540Y117198D01*
X669534Y117099D01*
X669524Y116999D01*
X669511Y116901D01*
X669493Y116802D01*
X669472Y116705D01*
X669447Y116609D01*
X669418Y116513D01*
X669385Y116419D01*
X669349Y116326D01*
X669309Y116235D01*
X669265Y116145D01*
X669218Y116057D01*
X669168Y115971D01*
X669114Y115887D01*
X669057Y115805D01*
X668997Y115726D01*
X668933Y115648D01*
X668867Y115574D01*
X668798Y115502D01*
X668726Y115433D01*
X668652Y115367D01*
X668574Y115303D01*
X668495Y115243D01*
X668413Y115186D01*
X668329Y115132D01*
X668243Y115082D01*
X668155Y115035D01*
X668065Y114991D01*
X667974Y114951D01*
X667881Y114915D01*
X667787Y114882D01*
X667691Y114853D01*
X667595Y114828D01*
X667498Y114807D01*
X667399Y114789D01*
X667301Y114776D01*
X667201Y114766D01*
X667102Y114760D01*
X667002Y114758D01*
X669542Y124207D02*
X660398Y124207D01*
X669542Y129287D01*
X660398Y129287D01*
X665986Y133757D02*
X665986Y139853D01*
X669542Y144344D02*
X669542Y148408D01*
X669542Y144344D02*
X660398Y144344D01*
X660398Y148408D01*
X664462Y147392D02*
X664462Y144344D01*
X669542Y154687D02*
X669540Y154776D01*
X669534Y154864D01*
X669525Y154952D01*
X669511Y155040D01*
X669494Y155127D01*
X669473Y155213D01*
X669448Y155298D01*
X669419Y155382D01*
X669387Y155465D01*
X669352Y155546D01*
X669312Y155625D01*
X669270Y155703D01*
X669224Y155779D01*
X669175Y155853D01*
X669122Y155924D01*
X669067Y155993D01*
X669008Y156060D01*
X668947Y156124D01*
X668883Y156185D01*
X668816Y156244D01*
X668747Y156299D01*
X668676Y156352D01*
X668602Y156401D01*
X668526Y156447D01*
X668448Y156489D01*
X668369Y156529D01*
X668288Y156564D01*
X668205Y156596D01*
X668121Y156625D01*
X668036Y156650D01*
X667950Y156671D01*
X667863Y156688D01*
X667775Y156702D01*
X667687Y156711D01*
X667599Y156717D01*
X667510Y156719D01*
X669542Y154687D02*
X669540Y154557D01*
X669534Y154426D01*
X669524Y154296D01*
X669510Y154167D01*
X669493Y154038D01*
X669471Y153909D01*
X669445Y153781D01*
X669416Y153654D01*
X669383Y153528D01*
X669346Y153403D01*
X669305Y153279D01*
X669260Y153157D01*
X669212Y153036D01*
X669160Y152916D01*
X669104Y152798D01*
X669045Y152682D01*
X668982Y152568D01*
X668916Y152455D01*
X668847Y152345D01*
X668774Y152237D01*
X668698Y152131D01*
X668619Y152027D01*
X668537Y151926D01*
X668451Y151828D01*
X668363Y151732D01*
X668272Y151639D01*
X662430Y151893D02*
X662341Y151895D01*
X662253Y151901D01*
X662165Y151910D01*
X662077Y151924D01*
X661990Y151941D01*
X661904Y151962D01*
X661819Y151987D01*
X661735Y152016D01*
X661652Y152048D01*
X661571Y152083D01*
X661492Y152123D01*
X661414Y152165D01*
X661338Y152211D01*
X661264Y152260D01*
X661193Y152313D01*
X661124Y152368D01*
X661057Y152427D01*
X660993Y152488D01*
X660932Y152552D01*
X660873Y152619D01*
X660818Y152688D01*
X660765Y152759D01*
X660716Y152833D01*
X660670Y152909D01*
X660628Y152987D01*
X660588Y153066D01*
X660553Y153147D01*
X660521Y153230D01*
X660492Y153314D01*
X660467Y153399D01*
X660446Y153485D01*
X660429Y153572D01*
X660415Y153660D01*
X660406Y153748D01*
X660400Y153836D01*
X660398Y153925D01*
X660400Y154048D01*
X660406Y154170D01*
X660416Y154292D01*
X660430Y154414D01*
X660447Y154535D01*
X660469Y154656D01*
X660494Y154776D01*
X660524Y154895D01*
X660557Y155013D01*
X660594Y155130D01*
X660634Y155245D01*
X660678Y155360D01*
X660726Y155473D01*
X660778Y155584D01*
X660833Y155693D01*
X660892Y155801D01*
X660954Y155907D01*
X661019Y156010D01*
X661088Y156112D01*
X661160Y156211D01*
X664208Y152908D02*
X664161Y152832D01*
X664111Y152758D01*
X664058Y152687D01*
X664001Y152618D01*
X663942Y152551D01*
X663880Y152487D01*
X663815Y152425D01*
X663747Y152367D01*
X663677Y152312D01*
X663605Y152259D01*
X663531Y152210D01*
X663454Y152164D01*
X663376Y152121D01*
X663295Y152082D01*
X663213Y152046D01*
X663130Y152014D01*
X663046Y151986D01*
X662960Y151961D01*
X662873Y151940D01*
X662785Y151923D01*
X662697Y151909D01*
X662608Y151900D01*
X662519Y151894D01*
X662430Y151892D01*
X665732Y155703D02*
X665779Y155779D01*
X665829Y155853D01*
X665882Y155924D01*
X665939Y155993D01*
X665998Y156060D01*
X666060Y156124D01*
X666125Y156186D01*
X666193Y156244D01*
X666263Y156299D01*
X666335Y156352D01*
X666409Y156401D01*
X666486Y156447D01*
X666564Y156490D01*
X666645Y156529D01*
X666727Y156565D01*
X666810Y156597D01*
X666894Y156625D01*
X666980Y156650D01*
X667067Y156671D01*
X667155Y156688D01*
X667243Y156702D01*
X667332Y156711D01*
X667421Y156717D01*
X667510Y156719D01*
X665732Y155703D02*
X664208Y152909D01*
X662938Y161078D02*
X667002Y161078D01*
X662938Y161078D02*
X662838Y161080D01*
X662739Y161086D01*
X662639Y161096D01*
X662541Y161109D01*
X662442Y161127D01*
X662345Y161148D01*
X662249Y161173D01*
X662153Y161202D01*
X662059Y161235D01*
X661966Y161271D01*
X661875Y161311D01*
X661785Y161355D01*
X661697Y161402D01*
X661611Y161452D01*
X661527Y161506D01*
X661445Y161563D01*
X661366Y161623D01*
X661288Y161687D01*
X661214Y161753D01*
X661142Y161822D01*
X661073Y161894D01*
X661007Y161968D01*
X660943Y162046D01*
X660883Y162125D01*
X660826Y162207D01*
X660772Y162291D01*
X660722Y162377D01*
X660675Y162465D01*
X660631Y162555D01*
X660591Y162646D01*
X660555Y162739D01*
X660522Y162833D01*
X660493Y162929D01*
X660468Y163025D01*
X660447Y163122D01*
X660429Y163221D01*
X660416Y163319D01*
X660406Y163419D01*
X660400Y163518D01*
X660398Y163618D01*
X660400Y163718D01*
X660406Y163817D01*
X660416Y163917D01*
X660429Y164015D01*
X660447Y164114D01*
X660468Y164211D01*
X660493Y164307D01*
X660522Y164403D01*
X660555Y164497D01*
X660591Y164590D01*
X660631Y164681D01*
X660675Y164771D01*
X660722Y164859D01*
X660772Y164945D01*
X660826Y165029D01*
X660883Y165111D01*
X660943Y165190D01*
X661007Y165268D01*
X661073Y165342D01*
X661142Y165414D01*
X661214Y165483D01*
X661288Y165549D01*
X661366Y165613D01*
X661445Y165673D01*
X661527Y165730D01*
X661611Y165784D01*
X661697Y165834D01*
X661785Y165881D01*
X661875Y165925D01*
X661966Y165965D01*
X662059Y166001D01*
X662153Y166034D01*
X662249Y166063D01*
X662345Y166088D01*
X662442Y166109D01*
X662541Y166127D01*
X662639Y166140D01*
X662739Y166150D01*
X662838Y166156D01*
X662938Y166158D01*
X667002Y166158D01*
X667102Y166156D01*
X667201Y166150D01*
X667301Y166140D01*
X667399Y166127D01*
X667498Y166109D01*
X667595Y166088D01*
X667691Y166063D01*
X667787Y166034D01*
X667881Y166001D01*
X667974Y165965D01*
X668065Y165925D01*
X668155Y165881D01*
X668243Y165834D01*
X668329Y165784D01*
X668413Y165730D01*
X668495Y165673D01*
X668574Y165613D01*
X668652Y165549D01*
X668726Y165483D01*
X668798Y165414D01*
X668867Y165342D01*
X668933Y165268D01*
X668997Y165190D01*
X669057Y165111D01*
X669114Y165029D01*
X669168Y164945D01*
X669218Y164859D01*
X669265Y164771D01*
X669309Y164681D01*
X669349Y164590D01*
X669385Y164497D01*
X669418Y164403D01*
X669447Y164307D01*
X669472Y164211D01*
X669493Y164114D01*
X669511Y164015D01*
X669524Y163917D01*
X669534Y163817D01*
X669540Y163718D01*
X669542Y163618D01*
X669540Y163518D01*
X669534Y163419D01*
X669524Y163319D01*
X669511Y163221D01*
X669493Y163122D01*
X669472Y163025D01*
X669447Y162929D01*
X669418Y162833D01*
X669385Y162739D01*
X669349Y162646D01*
X669309Y162555D01*
X669265Y162465D01*
X669218Y162377D01*
X669168Y162291D01*
X669114Y162207D01*
X669057Y162125D01*
X668997Y162046D01*
X668933Y161968D01*
X668867Y161894D01*
X668798Y161822D01*
X668726Y161753D01*
X668652Y161687D01*
X668574Y161623D01*
X668495Y161563D01*
X668413Y161506D01*
X668329Y161452D01*
X668243Y161402D01*
X668155Y161355D01*
X668065Y161311D01*
X667974Y161271D01*
X667881Y161235D01*
X667787Y161202D01*
X667691Y161173D01*
X667595Y161148D01*
X667498Y161127D01*
X667399Y161109D01*
X667301Y161096D01*
X667201Y161086D01*
X667102Y161080D01*
X667002Y161078D01*
X667510Y165142D02*
X669542Y167174D01*
D13*
X658900Y160925D02*
X658900Y103425D01*
X658900Y160925D02*
X534900Y160925D01*
X534900Y103425D01*
X658900Y103425D01*
X558900Y104000D02*
X558900Y109000D01*
X635900Y109000D02*
X635900Y104000D01*
D12*
X529842Y109140D02*
X529842Y111172D01*
X529842Y109140D02*
X529840Y109051D01*
X529834Y108963D01*
X529825Y108875D01*
X529811Y108787D01*
X529794Y108700D01*
X529773Y108614D01*
X529748Y108529D01*
X529719Y108445D01*
X529687Y108362D01*
X529652Y108281D01*
X529612Y108202D01*
X529570Y108124D01*
X529524Y108048D01*
X529475Y107974D01*
X529422Y107903D01*
X529367Y107834D01*
X529308Y107767D01*
X529247Y107703D01*
X529183Y107642D01*
X529116Y107583D01*
X529047Y107528D01*
X528976Y107475D01*
X528902Y107426D01*
X528826Y107380D01*
X528748Y107338D01*
X528669Y107298D01*
X528588Y107263D01*
X528505Y107231D01*
X528421Y107202D01*
X528336Y107177D01*
X528250Y107156D01*
X528163Y107139D01*
X528075Y107125D01*
X527987Y107116D01*
X527899Y107110D01*
X527810Y107108D01*
X522730Y107108D01*
X522641Y107110D01*
X522553Y107116D01*
X522465Y107125D01*
X522377Y107139D01*
X522290Y107156D01*
X522204Y107177D01*
X522119Y107202D01*
X522035Y107231D01*
X521952Y107263D01*
X521871Y107298D01*
X521792Y107338D01*
X521714Y107380D01*
X521638Y107426D01*
X521564Y107475D01*
X521493Y107528D01*
X521424Y107583D01*
X521357Y107642D01*
X521293Y107703D01*
X521232Y107767D01*
X521173Y107834D01*
X521118Y107903D01*
X521065Y107974D01*
X521016Y108048D01*
X520970Y108124D01*
X520928Y108202D01*
X520888Y108281D01*
X520853Y108362D01*
X520821Y108445D01*
X520792Y108529D01*
X520767Y108614D01*
X520746Y108700D01*
X520729Y108787D01*
X520715Y108875D01*
X520706Y108963D01*
X520700Y109051D01*
X520698Y109140D01*
X520698Y111172D01*
X523238Y114758D02*
X527302Y114758D01*
X523238Y114758D02*
X523138Y114760D01*
X523039Y114766D01*
X522939Y114776D01*
X522841Y114789D01*
X522742Y114807D01*
X522645Y114828D01*
X522549Y114853D01*
X522453Y114882D01*
X522359Y114915D01*
X522266Y114951D01*
X522175Y114991D01*
X522085Y115035D01*
X521997Y115082D01*
X521911Y115132D01*
X521827Y115186D01*
X521745Y115243D01*
X521666Y115303D01*
X521588Y115367D01*
X521514Y115433D01*
X521442Y115502D01*
X521373Y115574D01*
X521307Y115648D01*
X521243Y115726D01*
X521183Y115805D01*
X521126Y115887D01*
X521072Y115971D01*
X521022Y116057D01*
X520975Y116145D01*
X520931Y116235D01*
X520891Y116326D01*
X520855Y116419D01*
X520822Y116513D01*
X520793Y116609D01*
X520768Y116705D01*
X520747Y116802D01*
X520729Y116901D01*
X520716Y116999D01*
X520706Y117099D01*
X520700Y117198D01*
X520698Y117298D01*
X520700Y117398D01*
X520706Y117497D01*
X520716Y117597D01*
X520729Y117695D01*
X520747Y117794D01*
X520768Y117891D01*
X520793Y117987D01*
X520822Y118083D01*
X520855Y118177D01*
X520891Y118270D01*
X520931Y118361D01*
X520975Y118451D01*
X521022Y118539D01*
X521072Y118625D01*
X521126Y118709D01*
X521183Y118791D01*
X521243Y118870D01*
X521307Y118948D01*
X521373Y119022D01*
X521442Y119094D01*
X521514Y119163D01*
X521588Y119229D01*
X521666Y119293D01*
X521745Y119353D01*
X521827Y119410D01*
X521911Y119464D01*
X521997Y119514D01*
X522085Y119561D01*
X522175Y119605D01*
X522266Y119645D01*
X522359Y119681D01*
X522453Y119714D01*
X522549Y119743D01*
X522645Y119768D01*
X522742Y119789D01*
X522841Y119807D01*
X522939Y119820D01*
X523039Y119830D01*
X523138Y119836D01*
X523238Y119838D01*
X527302Y119838D01*
X527402Y119836D01*
X527501Y119830D01*
X527601Y119820D01*
X527699Y119807D01*
X527798Y119789D01*
X527895Y119768D01*
X527991Y119743D01*
X528087Y119714D01*
X528181Y119681D01*
X528274Y119645D01*
X528365Y119605D01*
X528455Y119561D01*
X528543Y119514D01*
X528629Y119464D01*
X528713Y119410D01*
X528795Y119353D01*
X528874Y119293D01*
X528952Y119229D01*
X529026Y119163D01*
X529098Y119094D01*
X529167Y119022D01*
X529233Y118948D01*
X529297Y118870D01*
X529357Y118791D01*
X529414Y118709D01*
X529468Y118625D01*
X529518Y118539D01*
X529565Y118451D01*
X529609Y118361D01*
X529649Y118270D01*
X529685Y118177D01*
X529718Y118083D01*
X529747Y117987D01*
X529772Y117891D01*
X529793Y117794D01*
X529811Y117695D01*
X529824Y117597D01*
X529834Y117497D01*
X529840Y117398D01*
X529842Y117298D01*
X529840Y117198D01*
X529834Y117099D01*
X529824Y116999D01*
X529811Y116901D01*
X529793Y116802D01*
X529772Y116705D01*
X529747Y116609D01*
X529718Y116513D01*
X529685Y116419D01*
X529649Y116326D01*
X529609Y116235D01*
X529565Y116145D01*
X529518Y116057D01*
X529468Y115971D01*
X529414Y115887D01*
X529357Y115805D01*
X529297Y115726D01*
X529233Y115648D01*
X529167Y115574D01*
X529098Y115502D01*
X529026Y115433D01*
X528952Y115367D01*
X528874Y115303D01*
X528795Y115243D01*
X528713Y115186D01*
X528629Y115132D01*
X528543Y115082D01*
X528455Y115035D01*
X528365Y114991D01*
X528274Y114951D01*
X528181Y114915D01*
X528087Y114882D01*
X527991Y114853D01*
X527895Y114828D01*
X527798Y114807D01*
X527699Y114789D01*
X527601Y114776D01*
X527501Y114766D01*
X527402Y114760D01*
X527302Y114758D01*
X529842Y124207D02*
X520698Y124207D01*
X529842Y129287D01*
X520698Y129287D01*
X526286Y133757D02*
X526286Y139853D01*
X529842Y146021D02*
X529842Y148053D01*
X529842Y146021D02*
X529840Y145932D01*
X529834Y145844D01*
X529825Y145756D01*
X529811Y145668D01*
X529794Y145581D01*
X529773Y145495D01*
X529748Y145410D01*
X529719Y145326D01*
X529687Y145243D01*
X529652Y145162D01*
X529612Y145083D01*
X529570Y145005D01*
X529524Y144929D01*
X529475Y144855D01*
X529422Y144784D01*
X529367Y144715D01*
X529308Y144648D01*
X529247Y144584D01*
X529183Y144523D01*
X529116Y144464D01*
X529047Y144409D01*
X528976Y144356D01*
X528902Y144307D01*
X528826Y144261D01*
X528748Y144219D01*
X528669Y144179D01*
X528588Y144144D01*
X528505Y144112D01*
X528421Y144083D01*
X528336Y144058D01*
X528250Y144037D01*
X528163Y144020D01*
X528075Y144006D01*
X527987Y143997D01*
X527899Y143991D01*
X527810Y143989D01*
X522730Y143989D01*
X522641Y143991D01*
X522553Y143997D01*
X522465Y144006D01*
X522377Y144020D01*
X522290Y144037D01*
X522204Y144058D01*
X522119Y144083D01*
X522035Y144112D01*
X521952Y144144D01*
X521871Y144179D01*
X521792Y144219D01*
X521714Y144261D01*
X521638Y144307D01*
X521564Y144356D01*
X521493Y144409D01*
X521424Y144464D01*
X521357Y144523D01*
X521293Y144584D01*
X521232Y144648D01*
X521173Y144715D01*
X521118Y144784D01*
X521065Y144855D01*
X521016Y144929D01*
X520970Y145005D01*
X520928Y145083D01*
X520888Y145162D01*
X520853Y145243D01*
X520821Y145326D01*
X520792Y145410D01*
X520767Y145495D01*
X520746Y145581D01*
X520729Y145668D01*
X520715Y145756D01*
X520706Y145844D01*
X520700Y145932D01*
X520698Y146021D01*
X520698Y148053D01*
X529842Y151964D02*
X529842Y156028D01*
X529842Y151964D02*
X520698Y151964D01*
X520698Y156028D01*
X524762Y155012D02*
X524762Y151964D01*
X520698Y159868D02*
X529842Y159868D01*
X529842Y164948D02*
X520698Y159868D01*
X520698Y164948D02*
X529842Y164948D01*
D13*
X405300Y382825D02*
X405300Y440325D01*
X331300Y440325D01*
X331300Y382825D01*
X405300Y382825D01*
D14*
X355300Y383400D02*
X355300Y388400D01*
X381300Y388400D02*
X381300Y383400D01*
X381300Y388400D02*
X355300Y388400D01*
D12*
X325242Y389556D02*
X325240Y389645D01*
X325234Y389733D01*
X325225Y389821D01*
X325211Y389909D01*
X325194Y389996D01*
X325173Y390082D01*
X325148Y390167D01*
X325119Y390251D01*
X325087Y390334D01*
X325052Y390415D01*
X325012Y390494D01*
X324970Y390572D01*
X324924Y390648D01*
X324875Y390722D01*
X324822Y390793D01*
X324767Y390862D01*
X324708Y390929D01*
X324647Y390993D01*
X324583Y391054D01*
X324516Y391113D01*
X324447Y391168D01*
X324376Y391221D01*
X324302Y391270D01*
X324226Y391316D01*
X324148Y391358D01*
X324069Y391398D01*
X323988Y391433D01*
X323905Y391465D01*
X323821Y391494D01*
X323736Y391519D01*
X323650Y391540D01*
X323563Y391557D01*
X323475Y391571D01*
X323387Y391580D01*
X323299Y391586D01*
X323210Y391588D01*
X325242Y389556D02*
X325240Y389426D01*
X325234Y389295D01*
X325224Y389165D01*
X325210Y389036D01*
X325193Y388907D01*
X325171Y388778D01*
X325145Y388650D01*
X325116Y388523D01*
X325083Y388397D01*
X325046Y388272D01*
X325005Y388148D01*
X324960Y388026D01*
X324912Y387905D01*
X324860Y387785D01*
X324804Y387667D01*
X324745Y387551D01*
X324682Y387437D01*
X324616Y387324D01*
X324547Y387214D01*
X324474Y387106D01*
X324398Y387000D01*
X324319Y386896D01*
X324237Y386795D01*
X324151Y386697D01*
X324063Y386601D01*
X323972Y386508D01*
X318130Y386762D02*
X318041Y386764D01*
X317953Y386770D01*
X317865Y386779D01*
X317777Y386793D01*
X317690Y386810D01*
X317604Y386831D01*
X317519Y386856D01*
X317435Y386885D01*
X317352Y386917D01*
X317271Y386952D01*
X317192Y386992D01*
X317114Y387034D01*
X317038Y387080D01*
X316964Y387129D01*
X316893Y387182D01*
X316824Y387237D01*
X316757Y387296D01*
X316693Y387357D01*
X316632Y387421D01*
X316573Y387488D01*
X316518Y387557D01*
X316465Y387628D01*
X316416Y387702D01*
X316370Y387778D01*
X316328Y387856D01*
X316288Y387935D01*
X316253Y388016D01*
X316221Y388099D01*
X316192Y388183D01*
X316167Y388268D01*
X316146Y388354D01*
X316129Y388441D01*
X316115Y388529D01*
X316106Y388617D01*
X316100Y388705D01*
X316098Y388794D01*
X316100Y388917D01*
X316106Y389039D01*
X316116Y389161D01*
X316130Y389283D01*
X316147Y389404D01*
X316169Y389525D01*
X316194Y389645D01*
X316224Y389764D01*
X316257Y389882D01*
X316294Y389999D01*
X316334Y390114D01*
X316378Y390229D01*
X316426Y390342D01*
X316478Y390453D01*
X316533Y390562D01*
X316592Y390670D01*
X316654Y390776D01*
X316719Y390879D01*
X316788Y390981D01*
X316860Y391080D01*
X319908Y387778D02*
X319861Y387702D01*
X319811Y387628D01*
X319758Y387557D01*
X319701Y387488D01*
X319642Y387421D01*
X319580Y387357D01*
X319515Y387295D01*
X319447Y387237D01*
X319377Y387182D01*
X319305Y387129D01*
X319231Y387080D01*
X319154Y387034D01*
X319076Y386991D01*
X318995Y386952D01*
X318913Y386916D01*
X318830Y386884D01*
X318746Y386856D01*
X318660Y386831D01*
X318573Y386810D01*
X318485Y386793D01*
X318397Y386779D01*
X318308Y386770D01*
X318219Y386764D01*
X318130Y386762D01*
X321432Y390572D02*
X321479Y390648D01*
X321529Y390722D01*
X321582Y390793D01*
X321639Y390862D01*
X321698Y390929D01*
X321760Y390993D01*
X321825Y391055D01*
X321893Y391113D01*
X321963Y391168D01*
X322035Y391221D01*
X322109Y391270D01*
X322186Y391316D01*
X322264Y391359D01*
X322345Y391398D01*
X322427Y391434D01*
X322510Y391466D01*
X322594Y391494D01*
X322680Y391519D01*
X322767Y391540D01*
X322855Y391557D01*
X322943Y391571D01*
X323032Y391580D01*
X323121Y391586D01*
X323210Y391588D01*
X321432Y390572D02*
X319908Y387778D01*
X318638Y395347D02*
X322702Y395347D01*
X318638Y395347D02*
X318538Y395349D01*
X318439Y395355D01*
X318339Y395365D01*
X318241Y395378D01*
X318142Y395396D01*
X318045Y395417D01*
X317949Y395442D01*
X317853Y395471D01*
X317759Y395504D01*
X317666Y395540D01*
X317575Y395580D01*
X317485Y395624D01*
X317397Y395671D01*
X317311Y395721D01*
X317227Y395775D01*
X317145Y395832D01*
X317066Y395892D01*
X316988Y395956D01*
X316914Y396022D01*
X316842Y396091D01*
X316773Y396163D01*
X316707Y396237D01*
X316643Y396315D01*
X316583Y396394D01*
X316526Y396476D01*
X316472Y396560D01*
X316422Y396646D01*
X316375Y396734D01*
X316331Y396824D01*
X316291Y396915D01*
X316255Y397008D01*
X316222Y397102D01*
X316193Y397198D01*
X316168Y397294D01*
X316147Y397391D01*
X316129Y397490D01*
X316116Y397588D01*
X316106Y397688D01*
X316100Y397787D01*
X316098Y397887D01*
X316100Y397987D01*
X316106Y398086D01*
X316116Y398186D01*
X316129Y398284D01*
X316147Y398383D01*
X316168Y398480D01*
X316193Y398576D01*
X316222Y398672D01*
X316255Y398766D01*
X316291Y398859D01*
X316331Y398950D01*
X316375Y399040D01*
X316422Y399128D01*
X316472Y399214D01*
X316526Y399298D01*
X316583Y399380D01*
X316643Y399459D01*
X316707Y399537D01*
X316773Y399611D01*
X316842Y399683D01*
X316914Y399752D01*
X316988Y399818D01*
X317066Y399882D01*
X317145Y399942D01*
X317227Y399999D01*
X317311Y400053D01*
X317397Y400103D01*
X317485Y400150D01*
X317575Y400194D01*
X317666Y400234D01*
X317759Y400270D01*
X317853Y400303D01*
X317949Y400332D01*
X318045Y400357D01*
X318142Y400378D01*
X318241Y400396D01*
X318339Y400409D01*
X318439Y400419D01*
X318538Y400425D01*
X318638Y400427D01*
X322702Y400427D01*
X322802Y400425D01*
X322901Y400419D01*
X323001Y400409D01*
X323099Y400396D01*
X323198Y400378D01*
X323295Y400357D01*
X323391Y400332D01*
X323487Y400303D01*
X323581Y400270D01*
X323674Y400234D01*
X323765Y400194D01*
X323855Y400150D01*
X323943Y400103D01*
X324029Y400053D01*
X324113Y399999D01*
X324195Y399942D01*
X324274Y399882D01*
X324352Y399818D01*
X324426Y399752D01*
X324498Y399683D01*
X324567Y399611D01*
X324633Y399537D01*
X324697Y399459D01*
X324757Y399380D01*
X324814Y399298D01*
X324868Y399214D01*
X324918Y399128D01*
X324965Y399040D01*
X325009Y398950D01*
X325049Y398859D01*
X325085Y398766D01*
X325118Y398672D01*
X325147Y398576D01*
X325172Y398480D01*
X325193Y398383D01*
X325211Y398284D01*
X325224Y398186D01*
X325234Y398086D01*
X325240Y397987D01*
X325242Y397887D01*
X325240Y397787D01*
X325234Y397688D01*
X325224Y397588D01*
X325211Y397490D01*
X325193Y397391D01*
X325172Y397294D01*
X325147Y397198D01*
X325118Y397102D01*
X325085Y397008D01*
X325049Y396915D01*
X325009Y396824D01*
X324965Y396734D01*
X324918Y396646D01*
X324868Y396560D01*
X324814Y396476D01*
X324757Y396394D01*
X324697Y396315D01*
X324633Y396237D01*
X324567Y396163D01*
X324498Y396091D01*
X324426Y396022D01*
X324352Y395956D01*
X324274Y395892D01*
X324195Y395832D01*
X324113Y395775D01*
X324029Y395721D01*
X323943Y395671D01*
X323855Y395624D01*
X323765Y395580D01*
X323674Y395540D01*
X323581Y395504D01*
X323487Y395471D01*
X323391Y395442D01*
X323295Y395417D01*
X323198Y395396D01*
X323099Y395378D01*
X323001Y395365D01*
X322901Y395355D01*
X322802Y395349D01*
X322702Y395347D01*
X325242Y404796D02*
X316098Y404796D01*
X325242Y409876D01*
X316098Y409876D01*
X316098Y416785D02*
X325242Y413737D01*
X325242Y419833D02*
X316098Y416785D01*
X322956Y419071D02*
X322956Y414499D01*
X325242Y423760D02*
X316098Y423760D01*
X316098Y426300D01*
X316100Y426400D01*
X316106Y426499D01*
X316116Y426599D01*
X316129Y426697D01*
X316147Y426796D01*
X316168Y426893D01*
X316193Y426989D01*
X316222Y427085D01*
X316255Y427179D01*
X316291Y427272D01*
X316331Y427363D01*
X316375Y427453D01*
X316422Y427541D01*
X316472Y427627D01*
X316526Y427711D01*
X316583Y427793D01*
X316643Y427872D01*
X316707Y427950D01*
X316773Y428024D01*
X316842Y428096D01*
X316914Y428165D01*
X316988Y428231D01*
X317066Y428295D01*
X317145Y428355D01*
X317227Y428412D01*
X317311Y428466D01*
X317397Y428516D01*
X317485Y428563D01*
X317575Y428607D01*
X317666Y428647D01*
X317759Y428683D01*
X317853Y428716D01*
X317949Y428745D01*
X318045Y428770D01*
X318142Y428791D01*
X318241Y428809D01*
X318339Y428822D01*
X318439Y428832D01*
X318538Y428838D01*
X318638Y428840D01*
X318738Y428838D01*
X318837Y428832D01*
X318937Y428822D01*
X319035Y428809D01*
X319134Y428791D01*
X319231Y428770D01*
X319327Y428745D01*
X319423Y428716D01*
X319517Y428683D01*
X319610Y428647D01*
X319701Y428607D01*
X319791Y428563D01*
X319879Y428516D01*
X319965Y428466D01*
X320049Y428412D01*
X320131Y428355D01*
X320210Y428295D01*
X320288Y428231D01*
X320362Y428165D01*
X320434Y428096D01*
X320503Y428024D01*
X320569Y427950D01*
X320633Y427872D01*
X320693Y427793D01*
X320750Y427711D01*
X320804Y427627D01*
X320854Y427541D01*
X320901Y427453D01*
X320945Y427363D01*
X320985Y427272D01*
X321021Y427179D01*
X321054Y427085D01*
X321083Y426989D01*
X321108Y426893D01*
X321129Y426796D01*
X321147Y426697D01*
X321160Y426599D01*
X321170Y426499D01*
X321176Y426400D01*
X321178Y426300D01*
X321178Y423760D01*
X321178Y426808D02*
X325242Y428840D01*
X318130Y432837D02*
X316098Y435377D01*
X325242Y435377D01*
X325242Y432837D02*
X325242Y437917D01*
D13*
X316400Y440325D02*
X316400Y382825D01*
X316400Y440325D02*
X242400Y440325D01*
X242400Y382825D01*
X316400Y382825D01*
D14*
X266400Y383400D02*
X266400Y388400D01*
X292400Y388400D02*
X292400Y383400D01*
X292400Y388400D02*
X266400Y388400D01*
D12*
X236342Y389556D02*
X236340Y389645D01*
X236334Y389733D01*
X236325Y389821D01*
X236311Y389909D01*
X236294Y389996D01*
X236273Y390082D01*
X236248Y390167D01*
X236219Y390251D01*
X236187Y390334D01*
X236152Y390415D01*
X236112Y390494D01*
X236070Y390572D01*
X236024Y390648D01*
X235975Y390722D01*
X235922Y390793D01*
X235867Y390862D01*
X235808Y390929D01*
X235747Y390993D01*
X235683Y391054D01*
X235616Y391113D01*
X235547Y391168D01*
X235476Y391221D01*
X235402Y391270D01*
X235326Y391316D01*
X235248Y391358D01*
X235169Y391398D01*
X235088Y391433D01*
X235005Y391465D01*
X234921Y391494D01*
X234836Y391519D01*
X234750Y391540D01*
X234663Y391557D01*
X234575Y391571D01*
X234487Y391580D01*
X234399Y391586D01*
X234310Y391588D01*
X236342Y389556D02*
X236340Y389426D01*
X236334Y389295D01*
X236324Y389165D01*
X236310Y389036D01*
X236293Y388907D01*
X236271Y388778D01*
X236245Y388650D01*
X236216Y388523D01*
X236183Y388397D01*
X236146Y388272D01*
X236105Y388148D01*
X236060Y388026D01*
X236012Y387905D01*
X235960Y387785D01*
X235904Y387667D01*
X235845Y387551D01*
X235782Y387437D01*
X235716Y387324D01*
X235647Y387214D01*
X235574Y387106D01*
X235498Y387000D01*
X235419Y386896D01*
X235337Y386795D01*
X235251Y386697D01*
X235163Y386601D01*
X235072Y386508D01*
X229230Y386762D02*
X229141Y386764D01*
X229053Y386770D01*
X228965Y386779D01*
X228877Y386793D01*
X228790Y386810D01*
X228704Y386831D01*
X228619Y386856D01*
X228535Y386885D01*
X228452Y386917D01*
X228371Y386952D01*
X228292Y386992D01*
X228214Y387034D01*
X228138Y387080D01*
X228064Y387129D01*
X227993Y387182D01*
X227924Y387237D01*
X227857Y387296D01*
X227793Y387357D01*
X227732Y387421D01*
X227673Y387488D01*
X227618Y387557D01*
X227565Y387628D01*
X227516Y387702D01*
X227470Y387778D01*
X227428Y387856D01*
X227388Y387935D01*
X227353Y388016D01*
X227321Y388099D01*
X227292Y388183D01*
X227267Y388268D01*
X227246Y388354D01*
X227229Y388441D01*
X227215Y388529D01*
X227206Y388617D01*
X227200Y388705D01*
X227198Y388794D01*
X227200Y388917D01*
X227206Y389039D01*
X227216Y389161D01*
X227230Y389283D01*
X227247Y389404D01*
X227269Y389525D01*
X227294Y389645D01*
X227324Y389764D01*
X227357Y389882D01*
X227394Y389999D01*
X227434Y390114D01*
X227478Y390229D01*
X227526Y390342D01*
X227578Y390453D01*
X227633Y390562D01*
X227692Y390670D01*
X227754Y390776D01*
X227819Y390879D01*
X227888Y390981D01*
X227960Y391080D01*
X231008Y387778D02*
X230961Y387702D01*
X230911Y387628D01*
X230858Y387557D01*
X230801Y387488D01*
X230742Y387421D01*
X230680Y387357D01*
X230615Y387295D01*
X230547Y387237D01*
X230477Y387182D01*
X230405Y387129D01*
X230331Y387080D01*
X230254Y387034D01*
X230176Y386991D01*
X230095Y386952D01*
X230013Y386916D01*
X229930Y386884D01*
X229846Y386856D01*
X229760Y386831D01*
X229673Y386810D01*
X229585Y386793D01*
X229497Y386779D01*
X229408Y386770D01*
X229319Y386764D01*
X229230Y386762D01*
X232532Y390572D02*
X232579Y390648D01*
X232629Y390722D01*
X232682Y390793D01*
X232739Y390862D01*
X232798Y390929D01*
X232860Y390993D01*
X232925Y391055D01*
X232993Y391113D01*
X233063Y391168D01*
X233135Y391221D01*
X233209Y391270D01*
X233286Y391316D01*
X233364Y391359D01*
X233445Y391398D01*
X233527Y391434D01*
X233610Y391466D01*
X233694Y391494D01*
X233780Y391519D01*
X233867Y391540D01*
X233955Y391557D01*
X234043Y391571D01*
X234132Y391580D01*
X234221Y391586D01*
X234310Y391588D01*
X232532Y390572D02*
X231008Y387778D01*
X229738Y395347D02*
X233802Y395347D01*
X229738Y395347D02*
X229638Y395349D01*
X229539Y395355D01*
X229439Y395365D01*
X229341Y395378D01*
X229242Y395396D01*
X229145Y395417D01*
X229049Y395442D01*
X228953Y395471D01*
X228859Y395504D01*
X228766Y395540D01*
X228675Y395580D01*
X228585Y395624D01*
X228497Y395671D01*
X228411Y395721D01*
X228327Y395775D01*
X228245Y395832D01*
X228166Y395892D01*
X228088Y395956D01*
X228014Y396022D01*
X227942Y396091D01*
X227873Y396163D01*
X227807Y396237D01*
X227743Y396315D01*
X227683Y396394D01*
X227626Y396476D01*
X227572Y396560D01*
X227522Y396646D01*
X227475Y396734D01*
X227431Y396824D01*
X227391Y396915D01*
X227355Y397008D01*
X227322Y397102D01*
X227293Y397198D01*
X227268Y397294D01*
X227247Y397391D01*
X227229Y397490D01*
X227216Y397588D01*
X227206Y397688D01*
X227200Y397787D01*
X227198Y397887D01*
X227200Y397987D01*
X227206Y398086D01*
X227216Y398186D01*
X227229Y398284D01*
X227247Y398383D01*
X227268Y398480D01*
X227293Y398576D01*
X227322Y398672D01*
X227355Y398766D01*
X227391Y398859D01*
X227431Y398950D01*
X227475Y399040D01*
X227522Y399128D01*
X227572Y399214D01*
X227626Y399298D01*
X227683Y399380D01*
X227743Y399459D01*
X227807Y399537D01*
X227873Y399611D01*
X227942Y399683D01*
X228014Y399752D01*
X228088Y399818D01*
X228166Y399882D01*
X228245Y399942D01*
X228327Y399999D01*
X228411Y400053D01*
X228497Y400103D01*
X228585Y400150D01*
X228675Y400194D01*
X228766Y400234D01*
X228859Y400270D01*
X228953Y400303D01*
X229049Y400332D01*
X229145Y400357D01*
X229242Y400378D01*
X229341Y400396D01*
X229439Y400409D01*
X229539Y400419D01*
X229638Y400425D01*
X229738Y400427D01*
X233802Y400427D01*
X233902Y400425D01*
X234001Y400419D01*
X234101Y400409D01*
X234199Y400396D01*
X234298Y400378D01*
X234395Y400357D01*
X234491Y400332D01*
X234587Y400303D01*
X234681Y400270D01*
X234774Y400234D01*
X234865Y400194D01*
X234955Y400150D01*
X235043Y400103D01*
X235129Y400053D01*
X235213Y399999D01*
X235295Y399942D01*
X235374Y399882D01*
X235452Y399818D01*
X235526Y399752D01*
X235598Y399683D01*
X235667Y399611D01*
X235733Y399537D01*
X235797Y399459D01*
X235857Y399380D01*
X235914Y399298D01*
X235968Y399214D01*
X236018Y399128D01*
X236065Y399040D01*
X236109Y398950D01*
X236149Y398859D01*
X236185Y398766D01*
X236218Y398672D01*
X236247Y398576D01*
X236272Y398480D01*
X236293Y398383D01*
X236311Y398284D01*
X236324Y398186D01*
X236334Y398086D01*
X236340Y397987D01*
X236342Y397887D01*
X236340Y397787D01*
X236334Y397688D01*
X236324Y397588D01*
X236311Y397490D01*
X236293Y397391D01*
X236272Y397294D01*
X236247Y397198D01*
X236218Y397102D01*
X236185Y397008D01*
X236149Y396915D01*
X236109Y396824D01*
X236065Y396734D01*
X236018Y396646D01*
X235968Y396560D01*
X235914Y396476D01*
X235857Y396394D01*
X235797Y396315D01*
X235733Y396237D01*
X235667Y396163D01*
X235598Y396091D01*
X235526Y396022D01*
X235452Y395956D01*
X235374Y395892D01*
X235295Y395832D01*
X235213Y395775D01*
X235129Y395721D01*
X235043Y395671D01*
X234955Y395624D01*
X234865Y395580D01*
X234774Y395540D01*
X234681Y395504D01*
X234587Y395471D01*
X234491Y395442D01*
X234395Y395417D01*
X234298Y395396D01*
X234199Y395378D01*
X234101Y395365D01*
X234001Y395355D01*
X233902Y395349D01*
X233802Y395347D01*
X236342Y404796D02*
X227198Y404796D01*
X236342Y409876D01*
X227198Y409876D01*
X227198Y416785D02*
X236342Y413737D01*
X236342Y419833D02*
X227198Y416785D01*
X234056Y419071D02*
X234056Y414499D01*
X236342Y423760D02*
X227198Y423760D01*
X227198Y426300D01*
X227200Y426400D01*
X227206Y426499D01*
X227216Y426599D01*
X227229Y426697D01*
X227247Y426796D01*
X227268Y426893D01*
X227293Y426989D01*
X227322Y427085D01*
X227355Y427179D01*
X227391Y427272D01*
X227431Y427363D01*
X227475Y427453D01*
X227522Y427541D01*
X227572Y427627D01*
X227626Y427711D01*
X227683Y427793D01*
X227743Y427872D01*
X227807Y427950D01*
X227873Y428024D01*
X227942Y428096D01*
X228014Y428165D01*
X228088Y428231D01*
X228166Y428295D01*
X228245Y428355D01*
X228327Y428412D01*
X228411Y428466D01*
X228497Y428516D01*
X228585Y428563D01*
X228675Y428607D01*
X228766Y428647D01*
X228859Y428683D01*
X228953Y428716D01*
X229049Y428745D01*
X229145Y428770D01*
X229242Y428791D01*
X229341Y428809D01*
X229439Y428822D01*
X229539Y428832D01*
X229638Y428838D01*
X229738Y428840D01*
X229838Y428838D01*
X229937Y428832D01*
X230037Y428822D01*
X230135Y428809D01*
X230234Y428791D01*
X230331Y428770D01*
X230427Y428745D01*
X230523Y428716D01*
X230617Y428683D01*
X230710Y428647D01*
X230801Y428607D01*
X230891Y428563D01*
X230979Y428516D01*
X231065Y428466D01*
X231149Y428412D01*
X231231Y428355D01*
X231310Y428295D01*
X231388Y428231D01*
X231462Y428165D01*
X231534Y428096D01*
X231603Y428024D01*
X231669Y427950D01*
X231733Y427872D01*
X231793Y427793D01*
X231850Y427711D01*
X231904Y427627D01*
X231954Y427541D01*
X232001Y427453D01*
X232045Y427363D01*
X232085Y427272D01*
X232121Y427179D01*
X232154Y427085D01*
X232183Y426989D01*
X232208Y426893D01*
X232229Y426796D01*
X232247Y426697D01*
X232260Y426599D01*
X232270Y426499D01*
X232276Y426400D01*
X232278Y426300D01*
X232278Y423760D01*
X232278Y426808D02*
X236342Y428840D01*
X229484Y437917D02*
X229390Y437915D01*
X229295Y437909D01*
X229201Y437899D01*
X229108Y437886D01*
X229015Y437868D01*
X228923Y437847D01*
X228832Y437822D01*
X228742Y437793D01*
X228653Y437761D01*
X228566Y437724D01*
X228480Y437685D01*
X228396Y437641D01*
X228314Y437595D01*
X228234Y437545D01*
X228156Y437491D01*
X228080Y437435D01*
X228007Y437375D01*
X227936Y437313D01*
X227868Y437247D01*
X227802Y437179D01*
X227740Y437108D01*
X227680Y437035D01*
X227624Y436959D01*
X227570Y436881D01*
X227520Y436801D01*
X227474Y436719D01*
X227430Y436635D01*
X227391Y436549D01*
X227354Y436462D01*
X227322Y436373D01*
X227293Y436283D01*
X227268Y436192D01*
X227247Y436100D01*
X227229Y436007D01*
X227216Y435914D01*
X227206Y435820D01*
X227200Y435725D01*
X227198Y435631D01*
X227200Y435525D01*
X227206Y435420D01*
X227215Y435315D01*
X227228Y435210D01*
X227245Y435106D01*
X227266Y435003D01*
X227290Y434900D01*
X227319Y434798D01*
X227350Y434698D01*
X227386Y434598D01*
X227424Y434500D01*
X227467Y434404D01*
X227513Y434308D01*
X227562Y434215D01*
X227614Y434124D01*
X227670Y434034D01*
X227729Y433946D01*
X227791Y433861D01*
X227856Y433778D01*
X227924Y433697D01*
X227995Y433619D01*
X228069Y433544D01*
X228145Y433471D01*
X228224Y433401D01*
X228305Y433334D01*
X228389Y433269D01*
X228475Y433208D01*
X228563Y433150D01*
X228653Y433095D01*
X228745Y433044D01*
X228839Y432995D01*
X228935Y432950D01*
X229032Y432909D01*
X229130Y432871D01*
X229230Y432837D01*
X231262Y437155D02*
X231195Y437222D01*
X231126Y437287D01*
X231054Y437349D01*
X230981Y437408D01*
X230904Y437464D01*
X230826Y437518D01*
X230746Y437568D01*
X230664Y437615D01*
X230580Y437659D01*
X230494Y437699D01*
X230407Y437737D01*
X230319Y437771D01*
X230229Y437801D01*
X230139Y437828D01*
X230047Y437852D01*
X229954Y437872D01*
X229861Y437888D01*
X229767Y437901D01*
X229673Y437910D01*
X229579Y437915D01*
X229484Y437917D01*
X231262Y437155D02*
X236342Y432837D01*
X236342Y437917D01*
D13*
X836900Y446325D02*
X836900Y503825D01*
X737900Y503825D01*
X737900Y446325D01*
X836900Y446325D01*
X761400Y446900D02*
X761400Y451900D01*
X812400Y451900D02*
X812400Y446900D01*
D12*
X731342Y451024D02*
X722198Y451024D01*
X731342Y450008D02*
X731342Y452040D01*
X722198Y452040D02*
X722198Y450008D01*
X722198Y458593D02*
X722200Y458687D01*
X722206Y458782D01*
X722216Y458876D01*
X722229Y458969D01*
X722247Y459062D01*
X722268Y459154D01*
X722293Y459245D01*
X722322Y459335D01*
X722354Y459424D01*
X722391Y459511D01*
X722430Y459597D01*
X722474Y459681D01*
X722520Y459763D01*
X722570Y459843D01*
X722624Y459921D01*
X722680Y459997D01*
X722740Y460070D01*
X722802Y460141D01*
X722868Y460209D01*
X722936Y460275D01*
X723007Y460337D01*
X723080Y460397D01*
X723156Y460453D01*
X723234Y460507D01*
X723314Y460557D01*
X723396Y460603D01*
X723480Y460647D01*
X723566Y460686D01*
X723653Y460723D01*
X723742Y460755D01*
X723832Y460784D01*
X723923Y460809D01*
X724015Y460830D01*
X724108Y460848D01*
X724201Y460861D01*
X724295Y460871D01*
X724390Y460877D01*
X724484Y460879D01*
X722198Y458593D02*
X722200Y458487D01*
X722206Y458382D01*
X722215Y458277D01*
X722228Y458172D01*
X722245Y458068D01*
X722266Y457965D01*
X722290Y457862D01*
X722319Y457760D01*
X722350Y457660D01*
X722386Y457560D01*
X722424Y457462D01*
X722467Y457366D01*
X722513Y457270D01*
X722562Y457177D01*
X722614Y457086D01*
X722670Y456996D01*
X722729Y456908D01*
X722791Y456823D01*
X722856Y456740D01*
X722924Y456659D01*
X722995Y456581D01*
X723069Y456506D01*
X723145Y456433D01*
X723224Y456363D01*
X723305Y456296D01*
X723389Y456231D01*
X723475Y456170D01*
X723563Y456112D01*
X723653Y456057D01*
X723745Y456006D01*
X723839Y455957D01*
X723935Y455912D01*
X724032Y455871D01*
X724130Y455833D01*
X724230Y455799D01*
X726262Y460117D02*
X726195Y460184D01*
X726126Y460249D01*
X726054Y460311D01*
X725981Y460370D01*
X725904Y460426D01*
X725826Y460480D01*
X725746Y460530D01*
X725664Y460577D01*
X725580Y460621D01*
X725494Y460661D01*
X725407Y460699D01*
X725319Y460733D01*
X725229Y460763D01*
X725139Y460790D01*
X725047Y460814D01*
X724954Y460834D01*
X724861Y460850D01*
X724767Y460863D01*
X724673Y460872D01*
X724579Y460877D01*
X724484Y460879D01*
X726262Y460117D02*
X731342Y455799D01*
X731342Y460879D01*
X731342Y466945D02*
X731342Y468977D01*
X731342Y466945D02*
X731340Y466856D01*
X731334Y466768D01*
X731325Y466680D01*
X731311Y466592D01*
X731294Y466505D01*
X731273Y466419D01*
X731248Y466334D01*
X731219Y466250D01*
X731187Y466167D01*
X731152Y466086D01*
X731112Y466007D01*
X731070Y465929D01*
X731024Y465853D01*
X730975Y465779D01*
X730922Y465708D01*
X730867Y465639D01*
X730808Y465572D01*
X730747Y465508D01*
X730683Y465447D01*
X730616Y465388D01*
X730547Y465333D01*
X730476Y465280D01*
X730402Y465231D01*
X730326Y465185D01*
X730248Y465143D01*
X730169Y465103D01*
X730088Y465068D01*
X730005Y465036D01*
X729921Y465007D01*
X729836Y464982D01*
X729750Y464961D01*
X729663Y464944D01*
X729575Y464930D01*
X729487Y464921D01*
X729399Y464915D01*
X729310Y464913D01*
X724230Y464913D01*
X724141Y464915D01*
X724053Y464921D01*
X723965Y464930D01*
X723877Y464944D01*
X723790Y464961D01*
X723704Y464982D01*
X723619Y465007D01*
X723535Y465036D01*
X723452Y465068D01*
X723371Y465103D01*
X723292Y465143D01*
X723214Y465185D01*
X723138Y465231D01*
X723064Y465280D01*
X722993Y465333D01*
X722924Y465388D01*
X722857Y465447D01*
X722793Y465508D01*
X722732Y465572D01*
X722673Y465639D01*
X722618Y465708D01*
X722565Y465779D01*
X722516Y465853D01*
X722470Y465929D01*
X722428Y466007D01*
X722388Y466086D01*
X722353Y466167D01*
X722321Y466250D01*
X722292Y466334D01*
X722267Y466419D01*
X722246Y466505D01*
X722229Y466592D01*
X722215Y466680D01*
X722206Y466768D01*
X722200Y466856D01*
X722198Y466945D01*
X722198Y468977D01*
X724230Y472563D02*
X722198Y475103D01*
X731342Y475103D01*
X731342Y472563D02*
X731342Y477643D01*
D13*
X836900Y440325D02*
X836900Y382825D01*
X836900Y440325D02*
X737900Y440325D01*
X737900Y382825D01*
X836900Y382825D01*
X761400Y383400D02*
X761400Y388400D01*
X812400Y388400D02*
X812400Y383400D01*
D12*
X731342Y387524D02*
X722198Y387524D01*
X731342Y386508D02*
X731342Y388540D01*
X722198Y388540D02*
X722198Y386508D01*
X722198Y395093D02*
X722200Y395187D01*
X722206Y395282D01*
X722216Y395376D01*
X722229Y395469D01*
X722247Y395562D01*
X722268Y395654D01*
X722293Y395745D01*
X722322Y395835D01*
X722354Y395924D01*
X722391Y396011D01*
X722430Y396097D01*
X722474Y396181D01*
X722520Y396263D01*
X722570Y396343D01*
X722624Y396421D01*
X722680Y396497D01*
X722740Y396570D01*
X722802Y396641D01*
X722868Y396709D01*
X722936Y396775D01*
X723007Y396837D01*
X723080Y396897D01*
X723156Y396953D01*
X723234Y397007D01*
X723314Y397057D01*
X723396Y397103D01*
X723480Y397147D01*
X723566Y397186D01*
X723653Y397223D01*
X723742Y397255D01*
X723832Y397284D01*
X723923Y397309D01*
X724015Y397330D01*
X724108Y397348D01*
X724201Y397361D01*
X724295Y397371D01*
X724390Y397377D01*
X724484Y397379D01*
X722198Y395093D02*
X722200Y394987D01*
X722206Y394882D01*
X722215Y394777D01*
X722228Y394672D01*
X722245Y394568D01*
X722266Y394465D01*
X722290Y394362D01*
X722319Y394260D01*
X722350Y394160D01*
X722386Y394060D01*
X722424Y393962D01*
X722467Y393866D01*
X722513Y393770D01*
X722562Y393677D01*
X722614Y393586D01*
X722670Y393496D01*
X722729Y393408D01*
X722791Y393323D01*
X722856Y393240D01*
X722924Y393159D01*
X722995Y393081D01*
X723069Y393006D01*
X723145Y392933D01*
X723224Y392863D01*
X723305Y392796D01*
X723389Y392731D01*
X723475Y392670D01*
X723563Y392612D01*
X723653Y392557D01*
X723745Y392506D01*
X723839Y392457D01*
X723935Y392412D01*
X724032Y392371D01*
X724130Y392333D01*
X724230Y392299D01*
X726262Y396617D02*
X726195Y396684D01*
X726126Y396749D01*
X726054Y396811D01*
X725981Y396870D01*
X725904Y396926D01*
X725826Y396980D01*
X725746Y397030D01*
X725664Y397077D01*
X725580Y397121D01*
X725494Y397161D01*
X725407Y397199D01*
X725319Y397233D01*
X725229Y397263D01*
X725139Y397290D01*
X725047Y397314D01*
X724954Y397334D01*
X724861Y397350D01*
X724767Y397363D01*
X724673Y397372D01*
X724579Y397377D01*
X724484Y397379D01*
X726262Y396617D02*
X731342Y392299D01*
X731342Y397379D01*
X731342Y403445D02*
X731342Y405477D01*
X731342Y403445D02*
X731340Y403356D01*
X731334Y403268D01*
X731325Y403180D01*
X731311Y403092D01*
X731294Y403005D01*
X731273Y402919D01*
X731248Y402834D01*
X731219Y402750D01*
X731187Y402667D01*
X731152Y402586D01*
X731112Y402507D01*
X731070Y402429D01*
X731024Y402353D01*
X730975Y402279D01*
X730922Y402208D01*
X730867Y402139D01*
X730808Y402072D01*
X730747Y402008D01*
X730683Y401947D01*
X730616Y401888D01*
X730547Y401833D01*
X730476Y401780D01*
X730402Y401731D01*
X730326Y401685D01*
X730248Y401643D01*
X730169Y401603D01*
X730088Y401568D01*
X730005Y401536D01*
X729921Y401507D01*
X729836Y401482D01*
X729750Y401461D01*
X729663Y401444D01*
X729575Y401430D01*
X729487Y401421D01*
X729399Y401415D01*
X729310Y401413D01*
X724230Y401413D01*
X724141Y401415D01*
X724053Y401421D01*
X723965Y401430D01*
X723877Y401444D01*
X723790Y401461D01*
X723704Y401482D01*
X723619Y401507D01*
X723535Y401536D01*
X723452Y401568D01*
X723371Y401603D01*
X723292Y401643D01*
X723214Y401685D01*
X723138Y401731D01*
X723064Y401780D01*
X722993Y401833D01*
X722924Y401888D01*
X722857Y401947D01*
X722793Y402008D01*
X722732Y402072D01*
X722673Y402139D01*
X722618Y402208D01*
X722565Y402279D01*
X722516Y402353D01*
X722470Y402429D01*
X722428Y402507D01*
X722388Y402586D01*
X722353Y402667D01*
X722321Y402750D01*
X722292Y402834D01*
X722267Y402919D01*
X722246Y403005D01*
X722229Y403092D01*
X722215Y403180D01*
X722206Y403268D01*
X722200Y403356D01*
X722198Y403445D01*
X722198Y405477D01*
X722198Y411857D02*
X722200Y411951D01*
X722206Y412046D01*
X722216Y412140D01*
X722229Y412233D01*
X722247Y412326D01*
X722268Y412418D01*
X722293Y412509D01*
X722322Y412599D01*
X722354Y412688D01*
X722391Y412775D01*
X722430Y412861D01*
X722474Y412945D01*
X722520Y413027D01*
X722570Y413107D01*
X722624Y413185D01*
X722680Y413261D01*
X722740Y413334D01*
X722802Y413405D01*
X722868Y413473D01*
X722936Y413539D01*
X723007Y413601D01*
X723080Y413661D01*
X723156Y413717D01*
X723234Y413771D01*
X723314Y413821D01*
X723396Y413867D01*
X723480Y413911D01*
X723566Y413950D01*
X723653Y413987D01*
X723742Y414019D01*
X723832Y414048D01*
X723923Y414073D01*
X724015Y414094D01*
X724108Y414112D01*
X724201Y414125D01*
X724295Y414135D01*
X724390Y414141D01*
X724484Y414143D01*
X722198Y411857D02*
X722200Y411751D01*
X722206Y411646D01*
X722215Y411541D01*
X722228Y411436D01*
X722245Y411332D01*
X722266Y411229D01*
X722290Y411126D01*
X722319Y411024D01*
X722350Y410924D01*
X722386Y410824D01*
X722424Y410726D01*
X722467Y410630D01*
X722513Y410534D01*
X722562Y410441D01*
X722614Y410350D01*
X722670Y410260D01*
X722729Y410172D01*
X722791Y410087D01*
X722856Y410004D01*
X722924Y409923D01*
X722995Y409845D01*
X723069Y409770D01*
X723145Y409697D01*
X723224Y409627D01*
X723305Y409560D01*
X723389Y409495D01*
X723475Y409434D01*
X723563Y409376D01*
X723653Y409321D01*
X723745Y409270D01*
X723839Y409221D01*
X723935Y409176D01*
X724032Y409135D01*
X724130Y409097D01*
X724230Y409063D01*
X726262Y413381D02*
X726195Y413448D01*
X726126Y413513D01*
X726054Y413575D01*
X725981Y413634D01*
X725904Y413690D01*
X725826Y413744D01*
X725746Y413794D01*
X725664Y413841D01*
X725580Y413885D01*
X725494Y413925D01*
X725407Y413963D01*
X725319Y413997D01*
X725229Y414027D01*
X725139Y414054D01*
X725047Y414078D01*
X724954Y414098D01*
X724861Y414114D01*
X724767Y414127D01*
X724673Y414136D01*
X724579Y414141D01*
X724484Y414143D01*
X726262Y413381D02*
X731342Y409063D01*
X731342Y414143D01*
D13*
X836900Y376825D02*
X836900Y319325D01*
X836900Y376825D02*
X737900Y376825D01*
X737900Y319325D01*
X836900Y319325D01*
X761400Y319900D02*
X761400Y324900D01*
X812400Y324900D02*
X812400Y319900D01*
D12*
X731342Y324024D02*
X722198Y324024D01*
X731342Y323008D02*
X731342Y325040D01*
X722198Y325040D02*
X722198Y323008D01*
X722198Y331593D02*
X722200Y331687D01*
X722206Y331782D01*
X722216Y331876D01*
X722229Y331969D01*
X722247Y332062D01*
X722268Y332154D01*
X722293Y332245D01*
X722322Y332335D01*
X722354Y332424D01*
X722391Y332511D01*
X722430Y332597D01*
X722474Y332681D01*
X722520Y332763D01*
X722570Y332843D01*
X722624Y332921D01*
X722680Y332997D01*
X722740Y333070D01*
X722802Y333141D01*
X722868Y333209D01*
X722936Y333275D01*
X723007Y333337D01*
X723080Y333397D01*
X723156Y333453D01*
X723234Y333507D01*
X723314Y333557D01*
X723396Y333603D01*
X723480Y333647D01*
X723566Y333686D01*
X723653Y333723D01*
X723742Y333755D01*
X723832Y333784D01*
X723923Y333809D01*
X724015Y333830D01*
X724108Y333848D01*
X724201Y333861D01*
X724295Y333871D01*
X724390Y333877D01*
X724484Y333879D01*
X722198Y331593D02*
X722200Y331487D01*
X722206Y331382D01*
X722215Y331277D01*
X722228Y331172D01*
X722245Y331068D01*
X722266Y330965D01*
X722290Y330862D01*
X722319Y330760D01*
X722350Y330660D01*
X722386Y330560D01*
X722424Y330462D01*
X722467Y330366D01*
X722513Y330270D01*
X722562Y330177D01*
X722614Y330086D01*
X722670Y329996D01*
X722729Y329908D01*
X722791Y329823D01*
X722856Y329740D01*
X722924Y329659D01*
X722995Y329581D01*
X723069Y329506D01*
X723145Y329433D01*
X723224Y329363D01*
X723305Y329296D01*
X723389Y329231D01*
X723475Y329170D01*
X723563Y329112D01*
X723653Y329057D01*
X723745Y329006D01*
X723839Y328957D01*
X723935Y328912D01*
X724032Y328871D01*
X724130Y328833D01*
X724230Y328799D01*
X726262Y333117D02*
X726195Y333184D01*
X726126Y333249D01*
X726054Y333311D01*
X725981Y333370D01*
X725904Y333426D01*
X725826Y333480D01*
X725746Y333530D01*
X725664Y333577D01*
X725580Y333621D01*
X725494Y333661D01*
X725407Y333699D01*
X725319Y333733D01*
X725229Y333763D01*
X725139Y333790D01*
X725047Y333814D01*
X724954Y333834D01*
X724861Y333850D01*
X724767Y333863D01*
X724673Y333872D01*
X724579Y333877D01*
X724484Y333879D01*
X726262Y333117D02*
X731342Y328799D01*
X731342Y333879D01*
X731342Y339945D02*
X731342Y341977D01*
X731342Y339945D02*
X731340Y339856D01*
X731334Y339768D01*
X731325Y339680D01*
X731311Y339592D01*
X731294Y339505D01*
X731273Y339419D01*
X731248Y339334D01*
X731219Y339250D01*
X731187Y339167D01*
X731152Y339086D01*
X731112Y339007D01*
X731070Y338929D01*
X731024Y338853D01*
X730975Y338779D01*
X730922Y338708D01*
X730867Y338639D01*
X730808Y338572D01*
X730747Y338508D01*
X730683Y338447D01*
X730616Y338388D01*
X730547Y338333D01*
X730476Y338280D01*
X730402Y338231D01*
X730326Y338185D01*
X730248Y338143D01*
X730169Y338103D01*
X730088Y338068D01*
X730005Y338036D01*
X729921Y338007D01*
X729836Y337982D01*
X729750Y337961D01*
X729663Y337944D01*
X729575Y337930D01*
X729487Y337921D01*
X729399Y337915D01*
X729310Y337913D01*
X724230Y337913D01*
X724141Y337915D01*
X724053Y337921D01*
X723965Y337930D01*
X723877Y337944D01*
X723790Y337961D01*
X723704Y337982D01*
X723619Y338007D01*
X723535Y338036D01*
X723452Y338068D01*
X723371Y338103D01*
X723292Y338143D01*
X723214Y338185D01*
X723138Y338231D01*
X723064Y338280D01*
X722993Y338333D01*
X722924Y338388D01*
X722857Y338447D01*
X722793Y338508D01*
X722732Y338572D01*
X722673Y338639D01*
X722618Y338708D01*
X722565Y338779D01*
X722516Y338853D01*
X722470Y338929D01*
X722428Y339007D01*
X722388Y339086D01*
X722353Y339167D01*
X722321Y339250D01*
X722292Y339334D01*
X722267Y339419D01*
X722246Y339505D01*
X722229Y339592D01*
X722215Y339680D01*
X722206Y339768D01*
X722200Y339856D01*
X722198Y339945D01*
X722198Y341977D01*
X731342Y345563D02*
X731342Y348103D01*
X731340Y348203D01*
X731334Y348302D01*
X731324Y348402D01*
X731311Y348500D01*
X731293Y348599D01*
X731272Y348696D01*
X731247Y348792D01*
X731218Y348888D01*
X731185Y348982D01*
X731149Y349075D01*
X731109Y349166D01*
X731065Y349256D01*
X731018Y349344D01*
X730968Y349430D01*
X730914Y349514D01*
X730857Y349596D01*
X730797Y349675D01*
X730733Y349753D01*
X730667Y349827D01*
X730598Y349899D01*
X730526Y349968D01*
X730452Y350034D01*
X730374Y350098D01*
X730295Y350158D01*
X730213Y350215D01*
X730129Y350269D01*
X730043Y350319D01*
X729955Y350366D01*
X729865Y350410D01*
X729774Y350450D01*
X729681Y350486D01*
X729587Y350519D01*
X729491Y350548D01*
X729395Y350573D01*
X729298Y350594D01*
X729199Y350612D01*
X729101Y350625D01*
X729001Y350635D01*
X728902Y350641D01*
X728802Y350643D01*
X728702Y350641D01*
X728603Y350635D01*
X728503Y350625D01*
X728405Y350612D01*
X728306Y350594D01*
X728209Y350573D01*
X728113Y350548D01*
X728017Y350519D01*
X727923Y350486D01*
X727830Y350450D01*
X727739Y350410D01*
X727649Y350366D01*
X727561Y350319D01*
X727475Y350269D01*
X727391Y350215D01*
X727309Y350158D01*
X727230Y350098D01*
X727152Y350034D01*
X727078Y349968D01*
X727006Y349899D01*
X726937Y349827D01*
X726871Y349753D01*
X726807Y349675D01*
X726747Y349596D01*
X726690Y349514D01*
X726636Y349430D01*
X726586Y349344D01*
X726539Y349256D01*
X726495Y349166D01*
X726455Y349075D01*
X726419Y348982D01*
X726386Y348888D01*
X726357Y348792D01*
X726332Y348696D01*
X726311Y348599D01*
X726293Y348500D01*
X726280Y348402D01*
X726270Y348302D01*
X726264Y348203D01*
X726262Y348103D01*
X722198Y348611D02*
X722198Y345563D01*
X722198Y348611D02*
X722200Y348700D01*
X722206Y348788D01*
X722215Y348876D01*
X722229Y348964D01*
X722246Y349051D01*
X722267Y349137D01*
X722292Y349222D01*
X722321Y349306D01*
X722353Y349389D01*
X722388Y349470D01*
X722428Y349549D01*
X722470Y349627D01*
X722516Y349703D01*
X722565Y349777D01*
X722618Y349848D01*
X722673Y349917D01*
X722732Y349984D01*
X722793Y350048D01*
X722857Y350109D01*
X722924Y350168D01*
X722993Y350223D01*
X723064Y350276D01*
X723138Y350325D01*
X723214Y350371D01*
X723292Y350413D01*
X723371Y350453D01*
X723452Y350488D01*
X723535Y350520D01*
X723619Y350549D01*
X723704Y350574D01*
X723790Y350595D01*
X723877Y350612D01*
X723965Y350626D01*
X724053Y350635D01*
X724141Y350641D01*
X724230Y350643D01*
X724319Y350641D01*
X724407Y350635D01*
X724495Y350626D01*
X724583Y350612D01*
X724670Y350595D01*
X724756Y350574D01*
X724841Y350549D01*
X724925Y350520D01*
X725008Y350488D01*
X725089Y350453D01*
X725168Y350413D01*
X725246Y350371D01*
X725322Y350325D01*
X725396Y350276D01*
X725467Y350223D01*
X725536Y350168D01*
X725603Y350109D01*
X725667Y350048D01*
X725728Y349984D01*
X725787Y349917D01*
X725842Y349848D01*
X725895Y349777D01*
X725944Y349703D01*
X725990Y349627D01*
X726032Y349549D01*
X726072Y349470D01*
X726107Y349389D01*
X726139Y349306D01*
X726168Y349222D01*
X726193Y349137D01*
X726214Y349051D01*
X726231Y348964D01*
X726245Y348876D01*
X726254Y348788D01*
X726260Y348700D01*
X726262Y348611D01*
X726262Y346579D01*
D13*
X633700Y446325D02*
X633700Y503825D01*
X534700Y503825D01*
X534700Y446325D01*
X633700Y446325D01*
X558200Y446900D02*
X558200Y451900D01*
X609200Y451900D02*
X609200Y446900D01*
D12*
X528142Y451024D02*
X518998Y451024D01*
X528142Y450008D02*
X528142Y452040D01*
X518998Y452040D02*
X518998Y450008D01*
X518998Y458593D02*
X519000Y458687D01*
X519006Y458782D01*
X519016Y458876D01*
X519029Y458969D01*
X519047Y459062D01*
X519068Y459154D01*
X519093Y459245D01*
X519122Y459335D01*
X519154Y459424D01*
X519191Y459511D01*
X519230Y459597D01*
X519274Y459681D01*
X519320Y459763D01*
X519370Y459843D01*
X519424Y459921D01*
X519480Y459997D01*
X519540Y460070D01*
X519602Y460141D01*
X519668Y460209D01*
X519736Y460275D01*
X519807Y460337D01*
X519880Y460397D01*
X519956Y460453D01*
X520034Y460507D01*
X520114Y460557D01*
X520196Y460603D01*
X520280Y460647D01*
X520366Y460686D01*
X520453Y460723D01*
X520542Y460755D01*
X520632Y460784D01*
X520723Y460809D01*
X520815Y460830D01*
X520908Y460848D01*
X521001Y460861D01*
X521095Y460871D01*
X521190Y460877D01*
X521284Y460879D01*
X518998Y458593D02*
X519000Y458487D01*
X519006Y458382D01*
X519015Y458277D01*
X519028Y458172D01*
X519045Y458068D01*
X519066Y457965D01*
X519090Y457862D01*
X519119Y457760D01*
X519150Y457660D01*
X519186Y457560D01*
X519224Y457462D01*
X519267Y457366D01*
X519313Y457270D01*
X519362Y457177D01*
X519414Y457086D01*
X519470Y456996D01*
X519529Y456908D01*
X519591Y456823D01*
X519656Y456740D01*
X519724Y456659D01*
X519795Y456581D01*
X519869Y456506D01*
X519945Y456433D01*
X520024Y456363D01*
X520105Y456296D01*
X520189Y456231D01*
X520275Y456170D01*
X520363Y456112D01*
X520453Y456057D01*
X520545Y456006D01*
X520639Y455957D01*
X520735Y455912D01*
X520832Y455871D01*
X520930Y455833D01*
X521030Y455799D01*
X523062Y460117D02*
X522995Y460184D01*
X522926Y460249D01*
X522854Y460311D01*
X522781Y460370D01*
X522704Y460426D01*
X522626Y460480D01*
X522546Y460530D01*
X522464Y460577D01*
X522380Y460621D01*
X522294Y460661D01*
X522207Y460699D01*
X522119Y460733D01*
X522029Y460763D01*
X521939Y460790D01*
X521847Y460814D01*
X521754Y460834D01*
X521661Y460850D01*
X521567Y460863D01*
X521473Y460872D01*
X521379Y460877D01*
X521284Y460879D01*
X523062Y460117D02*
X528142Y455799D01*
X528142Y460879D01*
X528142Y466945D02*
X528142Y468977D01*
X528142Y466945D02*
X528140Y466856D01*
X528134Y466768D01*
X528125Y466680D01*
X528111Y466592D01*
X528094Y466505D01*
X528073Y466419D01*
X528048Y466334D01*
X528019Y466250D01*
X527987Y466167D01*
X527952Y466086D01*
X527912Y466007D01*
X527870Y465929D01*
X527824Y465853D01*
X527775Y465779D01*
X527722Y465708D01*
X527667Y465639D01*
X527608Y465572D01*
X527547Y465508D01*
X527483Y465447D01*
X527416Y465388D01*
X527347Y465333D01*
X527276Y465280D01*
X527202Y465231D01*
X527126Y465185D01*
X527048Y465143D01*
X526969Y465103D01*
X526888Y465068D01*
X526805Y465036D01*
X526721Y465007D01*
X526636Y464982D01*
X526550Y464961D01*
X526463Y464944D01*
X526375Y464930D01*
X526287Y464921D01*
X526199Y464915D01*
X526110Y464913D01*
X521030Y464913D01*
X520941Y464915D01*
X520853Y464921D01*
X520765Y464930D01*
X520677Y464944D01*
X520590Y464961D01*
X520504Y464982D01*
X520419Y465007D01*
X520335Y465036D01*
X520252Y465068D01*
X520171Y465103D01*
X520092Y465143D01*
X520014Y465185D01*
X519938Y465231D01*
X519864Y465280D01*
X519793Y465333D01*
X519724Y465388D01*
X519657Y465447D01*
X519593Y465508D01*
X519532Y465572D01*
X519473Y465639D01*
X519418Y465708D01*
X519365Y465779D01*
X519316Y465853D01*
X519270Y465929D01*
X519228Y466007D01*
X519188Y466086D01*
X519153Y466167D01*
X519121Y466250D01*
X519092Y466334D01*
X519067Y466419D01*
X519046Y466505D01*
X519029Y466592D01*
X519015Y466680D01*
X519006Y466768D01*
X519000Y466856D01*
X518998Y466945D01*
X518998Y468977D01*
X518998Y474595D02*
X526110Y472563D01*
X526110Y477643D01*
X524078Y476119D02*
X528142Y476119D01*
D13*
X633700Y440325D02*
X633700Y382825D01*
X633700Y440325D02*
X534700Y440325D01*
X534700Y382825D01*
X633700Y382825D01*
X558200Y383400D02*
X558200Y388400D01*
X609200Y388400D02*
X609200Y383400D01*
D12*
X528142Y387524D02*
X518998Y387524D01*
X528142Y386508D02*
X528142Y388540D01*
X518998Y388540D02*
X518998Y386508D01*
X518998Y395093D02*
X519000Y395187D01*
X519006Y395282D01*
X519016Y395376D01*
X519029Y395469D01*
X519047Y395562D01*
X519068Y395654D01*
X519093Y395745D01*
X519122Y395835D01*
X519154Y395924D01*
X519191Y396011D01*
X519230Y396097D01*
X519274Y396181D01*
X519320Y396263D01*
X519370Y396343D01*
X519424Y396421D01*
X519480Y396497D01*
X519540Y396570D01*
X519602Y396641D01*
X519668Y396709D01*
X519736Y396775D01*
X519807Y396837D01*
X519880Y396897D01*
X519956Y396953D01*
X520034Y397007D01*
X520114Y397057D01*
X520196Y397103D01*
X520280Y397147D01*
X520366Y397186D01*
X520453Y397223D01*
X520542Y397255D01*
X520632Y397284D01*
X520723Y397309D01*
X520815Y397330D01*
X520908Y397348D01*
X521001Y397361D01*
X521095Y397371D01*
X521190Y397377D01*
X521284Y397379D01*
X518998Y395093D02*
X519000Y394987D01*
X519006Y394882D01*
X519015Y394777D01*
X519028Y394672D01*
X519045Y394568D01*
X519066Y394465D01*
X519090Y394362D01*
X519119Y394260D01*
X519150Y394160D01*
X519186Y394060D01*
X519224Y393962D01*
X519267Y393866D01*
X519313Y393770D01*
X519362Y393677D01*
X519414Y393586D01*
X519470Y393496D01*
X519529Y393408D01*
X519591Y393323D01*
X519656Y393240D01*
X519724Y393159D01*
X519795Y393081D01*
X519869Y393006D01*
X519945Y392933D01*
X520024Y392863D01*
X520105Y392796D01*
X520189Y392731D01*
X520275Y392670D01*
X520363Y392612D01*
X520453Y392557D01*
X520545Y392506D01*
X520639Y392457D01*
X520735Y392412D01*
X520832Y392371D01*
X520930Y392333D01*
X521030Y392299D01*
X523062Y396617D02*
X522995Y396684D01*
X522926Y396749D01*
X522854Y396811D01*
X522781Y396870D01*
X522704Y396926D01*
X522626Y396980D01*
X522546Y397030D01*
X522464Y397077D01*
X522380Y397121D01*
X522294Y397161D01*
X522207Y397199D01*
X522119Y397233D01*
X522029Y397263D01*
X521939Y397290D01*
X521847Y397314D01*
X521754Y397334D01*
X521661Y397350D01*
X521567Y397363D01*
X521473Y397372D01*
X521379Y397377D01*
X521284Y397379D01*
X523062Y396617D02*
X528142Y392299D01*
X528142Y397379D01*
X528142Y403445D02*
X528142Y405477D01*
X528142Y403445D02*
X528140Y403356D01*
X528134Y403268D01*
X528125Y403180D01*
X528111Y403092D01*
X528094Y403005D01*
X528073Y402919D01*
X528048Y402834D01*
X528019Y402750D01*
X527987Y402667D01*
X527952Y402586D01*
X527912Y402507D01*
X527870Y402429D01*
X527824Y402353D01*
X527775Y402279D01*
X527722Y402208D01*
X527667Y402139D01*
X527608Y402072D01*
X527547Y402008D01*
X527483Y401947D01*
X527416Y401888D01*
X527347Y401833D01*
X527276Y401780D01*
X527202Y401731D01*
X527126Y401685D01*
X527048Y401643D01*
X526969Y401603D01*
X526888Y401568D01*
X526805Y401536D01*
X526721Y401507D01*
X526636Y401482D01*
X526550Y401461D01*
X526463Y401444D01*
X526375Y401430D01*
X526287Y401421D01*
X526199Y401415D01*
X526110Y401413D01*
X521030Y401413D01*
X520941Y401415D01*
X520853Y401421D01*
X520765Y401430D01*
X520677Y401444D01*
X520590Y401461D01*
X520504Y401482D01*
X520419Y401507D01*
X520335Y401536D01*
X520252Y401568D01*
X520171Y401603D01*
X520092Y401643D01*
X520014Y401685D01*
X519938Y401731D01*
X519864Y401780D01*
X519793Y401833D01*
X519724Y401888D01*
X519657Y401947D01*
X519593Y402008D01*
X519532Y402072D01*
X519473Y402139D01*
X519418Y402208D01*
X519365Y402279D01*
X519316Y402353D01*
X519270Y402429D01*
X519228Y402507D01*
X519188Y402586D01*
X519153Y402667D01*
X519121Y402750D01*
X519092Y402834D01*
X519067Y402919D01*
X519046Y403005D01*
X519029Y403092D01*
X519015Y403180D01*
X519006Y403268D01*
X519000Y403356D01*
X518998Y403445D01*
X518998Y405477D01*
X528142Y409063D02*
X528142Y412111D01*
X528140Y412200D01*
X528134Y412288D01*
X528125Y412376D01*
X528111Y412464D01*
X528094Y412551D01*
X528073Y412637D01*
X528048Y412722D01*
X528019Y412806D01*
X527987Y412889D01*
X527952Y412970D01*
X527912Y413049D01*
X527870Y413127D01*
X527824Y413203D01*
X527775Y413277D01*
X527722Y413348D01*
X527667Y413417D01*
X527608Y413484D01*
X527547Y413548D01*
X527483Y413609D01*
X527416Y413668D01*
X527347Y413723D01*
X527276Y413776D01*
X527202Y413825D01*
X527126Y413871D01*
X527048Y413913D01*
X526969Y413953D01*
X526888Y413988D01*
X526805Y414020D01*
X526721Y414049D01*
X526636Y414074D01*
X526550Y414095D01*
X526463Y414112D01*
X526375Y414126D01*
X526287Y414135D01*
X526199Y414141D01*
X526110Y414143D01*
X525094Y414143D01*
X525005Y414141D01*
X524917Y414135D01*
X524829Y414126D01*
X524741Y414112D01*
X524654Y414095D01*
X524568Y414074D01*
X524483Y414049D01*
X524399Y414020D01*
X524316Y413988D01*
X524235Y413953D01*
X524156Y413913D01*
X524078Y413871D01*
X524002Y413825D01*
X523928Y413776D01*
X523857Y413723D01*
X523788Y413668D01*
X523721Y413609D01*
X523657Y413548D01*
X523596Y413484D01*
X523537Y413417D01*
X523482Y413348D01*
X523429Y413277D01*
X523380Y413203D01*
X523334Y413127D01*
X523292Y413049D01*
X523252Y412970D01*
X523217Y412889D01*
X523185Y412806D01*
X523156Y412722D01*
X523131Y412637D01*
X523110Y412551D01*
X523093Y412464D01*
X523079Y412376D01*
X523070Y412288D01*
X523064Y412200D01*
X523062Y412111D01*
X523062Y409063D01*
X518998Y409063D01*
X518998Y414143D01*
D13*
X633700Y376825D02*
X633700Y319325D01*
X633700Y376825D02*
X534700Y376825D01*
X534700Y319325D01*
X633700Y319325D01*
X558200Y319900D02*
X558200Y324900D01*
X609200Y324900D02*
X609200Y319900D01*
D12*
X528142Y324024D02*
X518998Y324024D01*
X528142Y323008D02*
X528142Y325040D01*
X518998Y325040D02*
X518998Y323008D01*
X518998Y331593D02*
X519000Y331687D01*
X519006Y331782D01*
X519016Y331876D01*
X519029Y331969D01*
X519047Y332062D01*
X519068Y332154D01*
X519093Y332245D01*
X519122Y332335D01*
X519154Y332424D01*
X519191Y332511D01*
X519230Y332597D01*
X519274Y332681D01*
X519320Y332763D01*
X519370Y332843D01*
X519424Y332921D01*
X519480Y332997D01*
X519540Y333070D01*
X519602Y333141D01*
X519668Y333209D01*
X519736Y333275D01*
X519807Y333337D01*
X519880Y333397D01*
X519956Y333453D01*
X520034Y333507D01*
X520114Y333557D01*
X520196Y333603D01*
X520280Y333647D01*
X520366Y333686D01*
X520453Y333723D01*
X520542Y333755D01*
X520632Y333784D01*
X520723Y333809D01*
X520815Y333830D01*
X520908Y333848D01*
X521001Y333861D01*
X521095Y333871D01*
X521190Y333877D01*
X521284Y333879D01*
X518998Y331593D02*
X519000Y331487D01*
X519006Y331382D01*
X519015Y331277D01*
X519028Y331172D01*
X519045Y331068D01*
X519066Y330965D01*
X519090Y330862D01*
X519119Y330760D01*
X519150Y330660D01*
X519186Y330560D01*
X519224Y330462D01*
X519267Y330366D01*
X519313Y330270D01*
X519362Y330177D01*
X519414Y330086D01*
X519470Y329996D01*
X519529Y329908D01*
X519591Y329823D01*
X519656Y329740D01*
X519724Y329659D01*
X519795Y329581D01*
X519869Y329506D01*
X519945Y329433D01*
X520024Y329363D01*
X520105Y329296D01*
X520189Y329231D01*
X520275Y329170D01*
X520363Y329112D01*
X520453Y329057D01*
X520545Y329006D01*
X520639Y328957D01*
X520735Y328912D01*
X520832Y328871D01*
X520930Y328833D01*
X521030Y328799D01*
X523062Y333117D02*
X522995Y333184D01*
X522926Y333249D01*
X522854Y333311D01*
X522781Y333370D01*
X522704Y333426D01*
X522626Y333480D01*
X522546Y333530D01*
X522464Y333577D01*
X522380Y333621D01*
X522294Y333661D01*
X522207Y333699D01*
X522119Y333733D01*
X522029Y333763D01*
X521939Y333790D01*
X521847Y333814D01*
X521754Y333834D01*
X521661Y333850D01*
X521567Y333863D01*
X521473Y333872D01*
X521379Y333877D01*
X521284Y333879D01*
X523062Y333117D02*
X528142Y328799D01*
X528142Y333879D01*
X528142Y339945D02*
X528142Y341977D01*
X528142Y339945D02*
X528140Y339856D01*
X528134Y339768D01*
X528125Y339680D01*
X528111Y339592D01*
X528094Y339505D01*
X528073Y339419D01*
X528048Y339334D01*
X528019Y339250D01*
X527987Y339167D01*
X527952Y339086D01*
X527912Y339007D01*
X527870Y338929D01*
X527824Y338853D01*
X527775Y338779D01*
X527722Y338708D01*
X527667Y338639D01*
X527608Y338572D01*
X527547Y338508D01*
X527483Y338447D01*
X527416Y338388D01*
X527347Y338333D01*
X527276Y338280D01*
X527202Y338231D01*
X527126Y338185D01*
X527048Y338143D01*
X526969Y338103D01*
X526888Y338068D01*
X526805Y338036D01*
X526721Y338007D01*
X526636Y337982D01*
X526550Y337961D01*
X526463Y337944D01*
X526375Y337930D01*
X526287Y337921D01*
X526199Y337915D01*
X526110Y337913D01*
X521030Y337913D01*
X520941Y337915D01*
X520853Y337921D01*
X520765Y337930D01*
X520677Y337944D01*
X520590Y337961D01*
X520504Y337982D01*
X520419Y338007D01*
X520335Y338036D01*
X520252Y338068D01*
X520171Y338103D01*
X520092Y338143D01*
X520014Y338185D01*
X519938Y338231D01*
X519864Y338280D01*
X519793Y338333D01*
X519724Y338388D01*
X519657Y338447D01*
X519593Y338508D01*
X519532Y338572D01*
X519473Y338639D01*
X519418Y338708D01*
X519365Y338779D01*
X519316Y338853D01*
X519270Y338929D01*
X519228Y339007D01*
X519188Y339086D01*
X519153Y339167D01*
X519121Y339250D01*
X519092Y339334D01*
X519067Y339419D01*
X519046Y339505D01*
X519029Y339592D01*
X519015Y339680D01*
X519006Y339768D01*
X519000Y339856D01*
X518998Y339945D01*
X518998Y341977D01*
X523062Y345563D02*
X523062Y348611D01*
X523064Y348700D01*
X523070Y348788D01*
X523079Y348876D01*
X523093Y348964D01*
X523110Y349051D01*
X523131Y349137D01*
X523156Y349222D01*
X523185Y349306D01*
X523217Y349389D01*
X523252Y349470D01*
X523292Y349549D01*
X523334Y349627D01*
X523380Y349703D01*
X523429Y349777D01*
X523482Y349848D01*
X523537Y349917D01*
X523596Y349984D01*
X523657Y350048D01*
X523721Y350109D01*
X523788Y350168D01*
X523857Y350223D01*
X523928Y350276D01*
X524002Y350325D01*
X524078Y350371D01*
X524156Y350413D01*
X524235Y350453D01*
X524316Y350488D01*
X524399Y350520D01*
X524483Y350549D01*
X524568Y350574D01*
X524654Y350595D01*
X524741Y350612D01*
X524829Y350626D01*
X524917Y350635D01*
X525005Y350641D01*
X525094Y350643D01*
X525602Y350643D01*
X525702Y350641D01*
X525801Y350635D01*
X525901Y350625D01*
X525999Y350612D01*
X526098Y350594D01*
X526195Y350573D01*
X526291Y350548D01*
X526387Y350519D01*
X526481Y350486D01*
X526574Y350450D01*
X526665Y350410D01*
X526755Y350366D01*
X526843Y350319D01*
X526929Y350269D01*
X527013Y350215D01*
X527095Y350158D01*
X527174Y350098D01*
X527252Y350034D01*
X527326Y349968D01*
X527398Y349899D01*
X527467Y349827D01*
X527533Y349753D01*
X527597Y349675D01*
X527657Y349596D01*
X527714Y349514D01*
X527768Y349430D01*
X527818Y349344D01*
X527865Y349256D01*
X527909Y349166D01*
X527949Y349075D01*
X527985Y348982D01*
X528018Y348888D01*
X528047Y348792D01*
X528072Y348696D01*
X528093Y348599D01*
X528111Y348500D01*
X528124Y348402D01*
X528134Y348302D01*
X528140Y348203D01*
X528142Y348103D01*
X528140Y348003D01*
X528134Y347904D01*
X528124Y347804D01*
X528111Y347706D01*
X528093Y347607D01*
X528072Y347510D01*
X528047Y347414D01*
X528018Y347318D01*
X527985Y347224D01*
X527949Y347131D01*
X527909Y347040D01*
X527865Y346950D01*
X527818Y346862D01*
X527768Y346776D01*
X527714Y346692D01*
X527657Y346610D01*
X527597Y346531D01*
X527533Y346453D01*
X527467Y346379D01*
X527398Y346307D01*
X527326Y346238D01*
X527252Y346172D01*
X527174Y346108D01*
X527095Y346048D01*
X527013Y345991D01*
X526929Y345937D01*
X526843Y345887D01*
X526755Y345840D01*
X526665Y345796D01*
X526574Y345756D01*
X526481Y345720D01*
X526387Y345687D01*
X526291Y345658D01*
X526195Y345633D01*
X526098Y345612D01*
X525999Y345594D01*
X525901Y345581D01*
X525801Y345571D01*
X525702Y345565D01*
X525602Y345563D01*
X523062Y345563D01*
X522937Y345565D01*
X522812Y345571D01*
X522687Y345580D01*
X522563Y345594D01*
X522439Y345611D01*
X522315Y345632D01*
X522193Y345657D01*
X522071Y345686D01*
X521950Y345718D01*
X521830Y345754D01*
X521711Y345794D01*
X521594Y345837D01*
X521478Y345884D01*
X521363Y345935D01*
X521251Y345989D01*
X521139Y346047D01*
X521030Y346107D01*
X520923Y346172D01*
X520817Y346239D01*
X520714Y346310D01*
X520613Y346384D01*
X520514Y346461D01*
X520418Y346541D01*
X520324Y346624D01*
X520233Y346709D01*
X520144Y346798D01*
X520059Y346889D01*
X519976Y346983D01*
X519896Y347079D01*
X519819Y347178D01*
X519745Y347279D01*
X519674Y347382D01*
X519607Y347488D01*
X519542Y347595D01*
X519482Y347704D01*
X519424Y347816D01*
X519370Y347928D01*
X519319Y348043D01*
X519272Y348159D01*
X519229Y348276D01*
X519189Y348395D01*
X519153Y348515D01*
X519121Y348636D01*
X519092Y348758D01*
X519067Y348880D01*
X519046Y349004D01*
X519029Y349128D01*
X519015Y349252D01*
X519006Y349377D01*
X519000Y349502D01*
X518998Y349627D01*
D13*
X291000Y459025D02*
X291000Y516525D01*
X217000Y516525D01*
X217000Y459025D01*
X291000Y459025D01*
D14*
X241000Y459600D02*
X241000Y464600D01*
X267000Y464600D02*
X267000Y459600D01*
X267000Y464600D02*
X241000Y464600D01*
D12*
X210942Y465756D02*
X210940Y465845D01*
X210934Y465933D01*
X210925Y466021D01*
X210911Y466109D01*
X210894Y466196D01*
X210873Y466282D01*
X210848Y466367D01*
X210819Y466451D01*
X210787Y466534D01*
X210752Y466615D01*
X210712Y466694D01*
X210670Y466772D01*
X210624Y466848D01*
X210575Y466922D01*
X210522Y466993D01*
X210467Y467062D01*
X210408Y467129D01*
X210347Y467193D01*
X210283Y467254D01*
X210216Y467313D01*
X210147Y467368D01*
X210076Y467421D01*
X210002Y467470D01*
X209926Y467516D01*
X209848Y467558D01*
X209769Y467598D01*
X209688Y467633D01*
X209605Y467665D01*
X209521Y467694D01*
X209436Y467719D01*
X209350Y467740D01*
X209263Y467757D01*
X209175Y467771D01*
X209087Y467780D01*
X208999Y467786D01*
X208910Y467788D01*
X210942Y465756D02*
X210940Y465626D01*
X210934Y465495D01*
X210924Y465365D01*
X210910Y465236D01*
X210893Y465107D01*
X210871Y464978D01*
X210845Y464850D01*
X210816Y464723D01*
X210783Y464597D01*
X210746Y464472D01*
X210705Y464348D01*
X210660Y464226D01*
X210612Y464105D01*
X210560Y463985D01*
X210504Y463867D01*
X210445Y463751D01*
X210382Y463637D01*
X210316Y463524D01*
X210247Y463414D01*
X210174Y463306D01*
X210098Y463200D01*
X210019Y463096D01*
X209937Y462995D01*
X209851Y462897D01*
X209763Y462801D01*
X209672Y462708D01*
X203830Y462962D02*
X203741Y462964D01*
X203653Y462970D01*
X203565Y462979D01*
X203477Y462993D01*
X203390Y463010D01*
X203304Y463031D01*
X203219Y463056D01*
X203135Y463085D01*
X203052Y463117D01*
X202971Y463152D01*
X202892Y463192D01*
X202814Y463234D01*
X202738Y463280D01*
X202664Y463329D01*
X202593Y463382D01*
X202524Y463437D01*
X202457Y463496D01*
X202393Y463557D01*
X202332Y463621D01*
X202273Y463688D01*
X202218Y463757D01*
X202165Y463828D01*
X202116Y463902D01*
X202070Y463978D01*
X202028Y464056D01*
X201988Y464135D01*
X201953Y464216D01*
X201921Y464299D01*
X201892Y464383D01*
X201867Y464468D01*
X201846Y464554D01*
X201829Y464641D01*
X201815Y464729D01*
X201806Y464817D01*
X201800Y464905D01*
X201798Y464994D01*
X201800Y465117D01*
X201806Y465239D01*
X201816Y465361D01*
X201830Y465483D01*
X201847Y465604D01*
X201869Y465725D01*
X201894Y465845D01*
X201924Y465964D01*
X201957Y466082D01*
X201994Y466199D01*
X202034Y466314D01*
X202078Y466429D01*
X202126Y466542D01*
X202178Y466653D01*
X202233Y466762D01*
X202292Y466870D01*
X202354Y466976D01*
X202419Y467079D01*
X202488Y467181D01*
X202560Y467280D01*
X205608Y463978D02*
X205561Y463902D01*
X205511Y463828D01*
X205458Y463757D01*
X205401Y463688D01*
X205342Y463621D01*
X205280Y463557D01*
X205215Y463495D01*
X205147Y463437D01*
X205077Y463382D01*
X205005Y463329D01*
X204931Y463280D01*
X204854Y463234D01*
X204776Y463191D01*
X204695Y463152D01*
X204613Y463116D01*
X204530Y463084D01*
X204446Y463056D01*
X204360Y463031D01*
X204273Y463010D01*
X204185Y462993D01*
X204097Y462979D01*
X204008Y462970D01*
X203919Y462964D01*
X203830Y462962D01*
X207132Y466772D02*
X207179Y466848D01*
X207229Y466922D01*
X207282Y466993D01*
X207339Y467062D01*
X207398Y467129D01*
X207460Y467193D01*
X207525Y467255D01*
X207593Y467313D01*
X207663Y467368D01*
X207735Y467421D01*
X207809Y467470D01*
X207886Y467516D01*
X207964Y467559D01*
X208045Y467598D01*
X208127Y467634D01*
X208210Y467666D01*
X208294Y467694D01*
X208380Y467719D01*
X208467Y467740D01*
X208555Y467757D01*
X208643Y467771D01*
X208732Y467780D01*
X208821Y467786D01*
X208910Y467788D01*
X207132Y466772D02*
X205608Y463978D01*
X210942Y471872D02*
X210942Y475936D01*
X210942Y471872D02*
X201798Y471872D01*
X201798Y475936D01*
X205862Y474920D02*
X205862Y471872D01*
X201798Y479843D02*
X210942Y479843D01*
X201798Y479843D02*
X201798Y482383D01*
X201800Y482483D01*
X201806Y482582D01*
X201816Y482682D01*
X201829Y482780D01*
X201847Y482879D01*
X201868Y482976D01*
X201893Y483072D01*
X201922Y483168D01*
X201955Y483262D01*
X201991Y483355D01*
X202031Y483446D01*
X202075Y483536D01*
X202122Y483624D01*
X202172Y483710D01*
X202226Y483794D01*
X202283Y483876D01*
X202343Y483955D01*
X202407Y484033D01*
X202473Y484107D01*
X202542Y484179D01*
X202614Y484248D01*
X202688Y484314D01*
X202766Y484378D01*
X202845Y484438D01*
X202927Y484495D01*
X203011Y484549D01*
X203097Y484599D01*
X203185Y484646D01*
X203275Y484690D01*
X203366Y484730D01*
X203459Y484766D01*
X203553Y484799D01*
X203649Y484828D01*
X203745Y484853D01*
X203842Y484874D01*
X203941Y484892D01*
X204039Y484905D01*
X204139Y484915D01*
X204238Y484921D01*
X204338Y484923D01*
X204438Y484921D01*
X204537Y484915D01*
X204637Y484905D01*
X204735Y484892D01*
X204834Y484874D01*
X204931Y484853D01*
X205027Y484828D01*
X205123Y484799D01*
X205217Y484766D01*
X205310Y484730D01*
X205401Y484690D01*
X205491Y484646D01*
X205579Y484599D01*
X205665Y484549D01*
X205749Y484495D01*
X205831Y484438D01*
X205910Y484378D01*
X205988Y484314D01*
X206062Y484248D01*
X206134Y484179D01*
X206203Y484107D01*
X206269Y484033D01*
X206333Y483955D01*
X206393Y483876D01*
X206450Y483794D01*
X206504Y483710D01*
X206554Y483624D01*
X206601Y483536D01*
X206645Y483446D01*
X206685Y483355D01*
X206721Y483262D01*
X206754Y483168D01*
X206783Y483072D01*
X206808Y482976D01*
X206829Y482879D01*
X206847Y482780D01*
X206860Y482682D01*
X206870Y482582D01*
X206876Y482483D01*
X206878Y482383D01*
X206878Y479843D01*
X206878Y482891D02*
X210942Y484923D01*
X210942Y491461D02*
X201798Y488413D01*
X201798Y494509D02*
X210942Y491461D01*
X208402Y498065D02*
X204338Y498065D01*
X204238Y498067D01*
X204139Y498073D01*
X204039Y498083D01*
X203941Y498096D01*
X203842Y498114D01*
X203745Y498135D01*
X203649Y498160D01*
X203553Y498189D01*
X203459Y498222D01*
X203366Y498258D01*
X203275Y498298D01*
X203185Y498342D01*
X203097Y498389D01*
X203011Y498439D01*
X202927Y498493D01*
X202845Y498550D01*
X202766Y498610D01*
X202688Y498674D01*
X202614Y498740D01*
X202542Y498809D01*
X202473Y498881D01*
X202407Y498955D01*
X202343Y499033D01*
X202283Y499112D01*
X202226Y499194D01*
X202172Y499278D01*
X202122Y499364D01*
X202075Y499452D01*
X202031Y499542D01*
X201991Y499633D01*
X201955Y499726D01*
X201922Y499820D01*
X201893Y499916D01*
X201868Y500012D01*
X201847Y500109D01*
X201829Y500208D01*
X201816Y500306D01*
X201806Y500406D01*
X201800Y500505D01*
X201798Y500605D01*
X201800Y500705D01*
X201806Y500804D01*
X201816Y500904D01*
X201829Y501002D01*
X201847Y501101D01*
X201868Y501198D01*
X201893Y501294D01*
X201922Y501390D01*
X201955Y501484D01*
X201991Y501577D01*
X202031Y501668D01*
X202075Y501758D01*
X202122Y501846D01*
X202172Y501932D01*
X202226Y502016D01*
X202283Y502098D01*
X202343Y502177D01*
X202407Y502255D01*
X202473Y502329D01*
X202542Y502401D01*
X202614Y502470D01*
X202688Y502536D01*
X202766Y502600D01*
X202845Y502660D01*
X202927Y502717D01*
X203011Y502771D01*
X203097Y502821D01*
X203185Y502868D01*
X203275Y502912D01*
X203366Y502952D01*
X203459Y502988D01*
X203553Y503021D01*
X203649Y503050D01*
X203745Y503075D01*
X203842Y503096D01*
X203941Y503114D01*
X204039Y503127D01*
X204139Y503137D01*
X204238Y503143D01*
X204338Y503145D01*
X208402Y503145D01*
X208502Y503143D01*
X208601Y503137D01*
X208701Y503127D01*
X208799Y503114D01*
X208898Y503096D01*
X208995Y503075D01*
X209091Y503050D01*
X209187Y503021D01*
X209281Y502988D01*
X209374Y502952D01*
X209465Y502912D01*
X209555Y502868D01*
X209643Y502821D01*
X209729Y502771D01*
X209813Y502717D01*
X209895Y502660D01*
X209974Y502600D01*
X210052Y502536D01*
X210126Y502470D01*
X210198Y502401D01*
X210267Y502329D01*
X210333Y502255D01*
X210397Y502177D01*
X210457Y502098D01*
X210514Y502016D01*
X210568Y501932D01*
X210618Y501846D01*
X210665Y501758D01*
X210709Y501668D01*
X210749Y501577D01*
X210785Y501484D01*
X210818Y501390D01*
X210847Y501294D01*
X210872Y501198D01*
X210893Y501101D01*
X210911Y501002D01*
X210924Y500904D01*
X210934Y500804D01*
X210940Y500705D01*
X210942Y500605D01*
X210940Y500505D01*
X210934Y500406D01*
X210924Y500306D01*
X210911Y500208D01*
X210893Y500109D01*
X210872Y500012D01*
X210847Y499916D01*
X210818Y499820D01*
X210785Y499726D01*
X210749Y499633D01*
X210709Y499542D01*
X210665Y499452D01*
X210618Y499364D01*
X210568Y499278D01*
X210514Y499194D01*
X210457Y499112D01*
X210397Y499033D01*
X210333Y498955D01*
X210267Y498881D01*
X210198Y498809D01*
X210126Y498740D01*
X210052Y498674D01*
X209974Y498610D01*
X209895Y498550D01*
X209813Y498493D01*
X209729Y498439D01*
X209643Y498389D01*
X209555Y498342D01*
X209465Y498298D01*
X209374Y498258D01*
X209281Y498222D01*
X209187Y498189D01*
X209091Y498160D01*
X208995Y498135D01*
X208898Y498114D01*
X208799Y498096D01*
X208701Y498083D01*
X208601Y498073D01*
X208502Y498067D01*
X208402Y498065D01*
X210942Y509952D02*
X210940Y510041D01*
X210934Y510129D01*
X210925Y510217D01*
X210911Y510305D01*
X210894Y510392D01*
X210873Y510478D01*
X210848Y510563D01*
X210819Y510647D01*
X210787Y510730D01*
X210752Y510811D01*
X210712Y510890D01*
X210670Y510968D01*
X210624Y511044D01*
X210575Y511118D01*
X210522Y511189D01*
X210467Y511258D01*
X210408Y511325D01*
X210347Y511389D01*
X210283Y511450D01*
X210216Y511509D01*
X210147Y511564D01*
X210076Y511617D01*
X210002Y511666D01*
X209926Y511712D01*
X209848Y511754D01*
X209769Y511794D01*
X209688Y511829D01*
X209605Y511861D01*
X209521Y511890D01*
X209436Y511915D01*
X209350Y511936D01*
X209263Y511953D01*
X209175Y511967D01*
X209087Y511976D01*
X208999Y511982D01*
X208910Y511984D01*
X210942Y509952D02*
X210940Y509822D01*
X210934Y509691D01*
X210924Y509561D01*
X210910Y509432D01*
X210893Y509303D01*
X210871Y509174D01*
X210845Y509046D01*
X210816Y508919D01*
X210783Y508793D01*
X210746Y508668D01*
X210705Y508544D01*
X210660Y508422D01*
X210612Y508301D01*
X210560Y508181D01*
X210504Y508063D01*
X210445Y507947D01*
X210382Y507833D01*
X210316Y507720D01*
X210247Y507610D01*
X210174Y507502D01*
X210098Y507396D01*
X210019Y507292D01*
X209937Y507191D01*
X209851Y507093D01*
X209763Y506997D01*
X209672Y506904D01*
X203830Y507158D02*
X203741Y507160D01*
X203653Y507166D01*
X203565Y507175D01*
X203477Y507189D01*
X203390Y507206D01*
X203304Y507227D01*
X203219Y507252D01*
X203135Y507281D01*
X203052Y507313D01*
X202971Y507348D01*
X202892Y507388D01*
X202814Y507430D01*
X202738Y507476D01*
X202664Y507525D01*
X202593Y507578D01*
X202524Y507633D01*
X202457Y507692D01*
X202393Y507753D01*
X202332Y507817D01*
X202273Y507884D01*
X202218Y507953D01*
X202165Y508024D01*
X202116Y508098D01*
X202070Y508174D01*
X202028Y508252D01*
X201988Y508331D01*
X201953Y508412D01*
X201921Y508495D01*
X201892Y508579D01*
X201867Y508664D01*
X201846Y508750D01*
X201829Y508837D01*
X201815Y508925D01*
X201806Y509013D01*
X201800Y509101D01*
X201798Y509190D01*
X201800Y509313D01*
X201806Y509435D01*
X201816Y509557D01*
X201830Y509679D01*
X201847Y509800D01*
X201869Y509921D01*
X201894Y510041D01*
X201924Y510160D01*
X201957Y510278D01*
X201994Y510395D01*
X202034Y510510D01*
X202078Y510625D01*
X202126Y510738D01*
X202178Y510849D01*
X202233Y510958D01*
X202292Y511066D01*
X202354Y511172D01*
X202419Y511275D01*
X202488Y511377D01*
X202560Y511476D01*
X205608Y508174D02*
X205561Y508098D01*
X205511Y508024D01*
X205458Y507953D01*
X205401Y507884D01*
X205342Y507817D01*
X205280Y507753D01*
X205215Y507691D01*
X205147Y507633D01*
X205077Y507578D01*
X205005Y507525D01*
X204931Y507476D01*
X204854Y507430D01*
X204776Y507387D01*
X204695Y507348D01*
X204613Y507312D01*
X204530Y507280D01*
X204446Y507252D01*
X204360Y507227D01*
X204273Y507206D01*
X204185Y507189D01*
X204097Y507175D01*
X204008Y507166D01*
X203919Y507160D01*
X203830Y507158D01*
X207132Y510968D02*
X207179Y511044D01*
X207229Y511118D01*
X207282Y511189D01*
X207339Y511258D01*
X207398Y511325D01*
X207460Y511389D01*
X207525Y511451D01*
X207593Y511509D01*
X207663Y511564D01*
X207735Y511617D01*
X207809Y511666D01*
X207886Y511712D01*
X207964Y511755D01*
X208045Y511794D01*
X208127Y511830D01*
X208210Y511862D01*
X208294Y511890D01*
X208380Y511915D01*
X208467Y511936D01*
X208555Y511953D01*
X208643Y511967D01*
X208732Y511976D01*
X208821Y511982D01*
X208910Y511984D01*
X207132Y510968D02*
X205608Y508174D01*
D11*
X279400Y158750D02*
X279400Y120650D01*
D13*
X278926Y120034D01*
X278437Y119429D01*
X277933Y118837D01*
X277415Y118257D01*
X276883Y117690D01*
X276337Y117136D01*
X275778Y116596D01*
X275205Y116070D01*
X274620Y115557D01*
X274023Y115060D01*
X273414Y114577D01*
X272793Y114109D01*
X272160Y113656D01*
X271517Y113219D01*
X270863Y112798D01*
X270199Y112394D01*
X269526Y112005D01*
X268843Y111633D01*
X268151Y111278D01*
X267451Y110940D01*
X266743Y110619D01*
X266027Y110316D01*
X265303Y110030D01*
X264574Y109762D01*
X263837Y109512D01*
X263095Y109281D01*
X262347Y109067D01*
X261595Y108872D01*
X260837Y108695D01*
X260076Y108537D01*
X259311Y108397D01*
X258543Y108277D01*
X257772Y108175D01*
X256999Y108092D01*
X256224Y108028D01*
X255448Y107983D01*
X254671Y107957D01*
X253893Y107950D01*
X253116Y107962D01*
X252339Y107993D01*
X251563Y108044D01*
X250788Y108113D01*
X250016Y108201D01*
X249246Y108308D01*
X248478Y108434D01*
X247714Y108578D01*
X246954Y108742D01*
X246198Y108924D01*
X245447Y109124D01*
X244700Y109342D01*
X243960Y109579D01*
X243225Y109834D01*
X242497Y110107D01*
X241776Y110398D01*
X241062Y110706D01*
X240356Y111031D01*
X239658Y111374D01*
X238968Y111734D01*
X238288Y112110D01*
X237617Y112503D01*
X236956Y112913D01*
X236305Y113338D01*
X235665Y113779D01*
X235036Y114236D01*
X234418Y114708D01*
X233812Y115195D01*
X233218Y115697D01*
X232636Y116213D01*
X232067Y116743D01*
X231512Y117287D01*
X230969Y117845D01*
X230441Y118415D01*
X229927Y118998D01*
X229427Y119594D01*
X228942Y120202D01*
X228472Y120821D01*
X228018Y121452D01*
X227579Y122094D01*
X227155Y122746D01*
X226748Y123409D01*
X226357Y124081D01*
X225983Y124763D01*
X225626Y125453D01*
X225286Y126152D01*
X224962Y126860D01*
X224657Y127574D01*
X224368Y128297D01*
X224098Y129026D01*
X223846Y129761D01*
X223611Y130503D01*
X223395Y131250D01*
X223197Y132002D01*
X223018Y132758D01*
X222857Y133519D01*
X222715Y134283D01*
X222592Y135051D01*
X222488Y135822D01*
X222402Y136595D01*
X222336Y137369D01*
X222288Y138145D01*
X222260Y138922D01*
X222250Y139700D01*
X222260Y140478D01*
X222288Y141255D01*
X222336Y142031D01*
X222402Y142805D01*
X222488Y143578D01*
X222592Y144349D01*
X222715Y145117D01*
X222857Y145881D01*
X223018Y146642D01*
X223197Y147398D01*
X223395Y148150D01*
X223611Y148897D01*
X223846Y149639D01*
X224098Y150374D01*
X224368Y151103D01*
X224657Y151826D01*
X224962Y152540D01*
X225286Y153248D01*
X225626Y153947D01*
X225983Y154637D01*
X226357Y155319D01*
X226748Y155991D01*
X227155Y156654D01*
X227579Y157306D01*
X228018Y157948D01*
X228472Y158579D01*
X228942Y159198D01*
X229427Y159806D01*
X229927Y160402D01*
X230441Y160985D01*
X230969Y161555D01*
X231512Y162113D01*
X232067Y162657D01*
X232636Y163187D01*
X233218Y163703D01*
X233812Y164205D01*
X234418Y164692D01*
X235036Y165164D01*
X235665Y165621D01*
X236305Y166062D01*
X236956Y166487D01*
X237617Y166897D01*
X238288Y167290D01*
X238968Y167666D01*
X239658Y168026D01*
X240356Y168369D01*
X241062Y168694D01*
X241776Y169002D01*
X242497Y169293D01*
X243225Y169566D01*
X243960Y169821D01*
X244700Y170058D01*
X245447Y170276D01*
X246198Y170476D01*
X246954Y170658D01*
X247714Y170822D01*
X248478Y170966D01*
X249246Y171092D01*
X250016Y171199D01*
X250788Y171287D01*
X251563Y171356D01*
X252339Y171407D01*
X253116Y171438D01*
X253893Y171450D01*
X254671Y171443D01*
X255448Y171417D01*
X256224Y171372D01*
X256999Y171308D01*
X257772Y171225D01*
X258543Y171123D01*
X259311Y171003D01*
X260076Y170863D01*
X260837Y170705D01*
X261595Y170528D01*
X262347Y170333D01*
X263095Y170119D01*
X263837Y169888D01*
X264574Y169638D01*
X265303Y169370D01*
X266027Y169084D01*
X266743Y168781D01*
X267451Y168460D01*
X268151Y168122D01*
X268843Y167767D01*
X269526Y167395D01*
X270199Y167006D01*
X270863Y166602D01*
X271517Y166181D01*
X272160Y165744D01*
X272793Y165291D01*
X273414Y164823D01*
X274023Y164340D01*
X274620Y163843D01*
X275205Y163330D01*
X275778Y162804D01*
X276337Y162264D01*
X276883Y161710D01*
X277415Y161143D01*
X277933Y160563D01*
X278437Y159971D01*
X278926Y159366D01*
X279400Y158750D01*
D15*
X228600Y139700D02*
X228608Y140323D01*
X228631Y140946D01*
X228669Y141569D01*
X228722Y142190D01*
X228791Y142809D01*
X228875Y143427D01*
X228974Y144042D01*
X229088Y144655D01*
X229217Y145265D01*
X229361Y145872D01*
X229520Y146475D01*
X229694Y147073D01*
X229882Y147668D01*
X230085Y148257D01*
X230302Y148841D01*
X230533Y149420D01*
X230779Y149993D01*
X231039Y150560D01*
X231312Y151120D01*
X231599Y151673D01*
X231900Y152220D01*
X232214Y152758D01*
X232541Y153289D01*
X232881Y153811D01*
X233233Y154326D01*
X233599Y154831D01*
X233976Y155327D01*
X234366Y155814D01*
X234767Y156291D01*
X235180Y156758D01*
X235604Y157214D01*
X236039Y157661D01*
X236486Y158096D01*
X236942Y158520D01*
X237409Y158933D01*
X237886Y159334D01*
X238373Y159724D01*
X238869Y160101D01*
X239374Y160467D01*
X239889Y160819D01*
X240411Y161159D01*
X240942Y161486D01*
X241480Y161800D01*
X242027Y162101D01*
X242580Y162388D01*
X243140Y162661D01*
X243707Y162921D01*
X244280Y163167D01*
X244859Y163398D01*
X245443Y163615D01*
X246032Y163818D01*
X246627Y164006D01*
X247225Y164180D01*
X247828Y164339D01*
X248435Y164483D01*
X249045Y164612D01*
X249658Y164726D01*
X250273Y164825D01*
X250891Y164909D01*
X251510Y164978D01*
X252131Y165031D01*
X252754Y165069D01*
X253377Y165092D01*
X254000Y165100D01*
X254623Y165092D01*
X255246Y165069D01*
X255869Y165031D01*
X256490Y164978D01*
X257109Y164909D01*
X257727Y164825D01*
X258342Y164726D01*
X258955Y164612D01*
X259565Y164483D01*
X260172Y164339D01*
X260775Y164180D01*
X261373Y164006D01*
X261968Y163818D01*
X262557Y163615D01*
X263141Y163398D01*
X263720Y163167D01*
X264293Y162921D01*
X264860Y162661D01*
X265420Y162388D01*
X265973Y162101D01*
X266520Y161800D01*
X267058Y161486D01*
X267589Y161159D01*
X268111Y160819D01*
X268626Y160467D01*
X269131Y160101D01*
X269627Y159724D01*
X270114Y159334D01*
X270591Y158933D01*
X271058Y158520D01*
X271514Y158096D01*
X271961Y157661D01*
X272396Y157214D01*
X272820Y156758D01*
X273233Y156291D01*
X273634Y155814D01*
X274024Y155327D01*
X274401Y154831D01*
X274767Y154326D01*
X275119Y153811D01*
X275459Y153289D01*
X275786Y152758D01*
X276100Y152220D01*
X276401Y151673D01*
X276688Y151120D01*
X276961Y150560D01*
X277221Y149993D01*
X277467Y149420D01*
X277698Y148841D01*
X277915Y148257D01*
X278118Y147668D01*
X278306Y147073D01*
X278480Y146475D01*
X278639Y145872D01*
X278783Y145265D01*
X278912Y144655D01*
X279026Y144042D01*
X279125Y143427D01*
X279209Y142809D01*
X279278Y142190D01*
X279331Y141569D01*
X279369Y140946D01*
X279392Y140323D01*
X279400Y139700D01*
X279392Y139077D01*
X279369Y138454D01*
X279331Y137831D01*
X279278Y137210D01*
X279209Y136591D01*
X279125Y135973D01*
X279026Y135358D01*
X278912Y134745D01*
X278783Y134135D01*
X278639Y133528D01*
X278480Y132925D01*
X278306Y132327D01*
X278118Y131732D01*
X277915Y131143D01*
X277698Y130559D01*
X277467Y129980D01*
X277221Y129407D01*
X276961Y128840D01*
X276688Y128280D01*
X276401Y127727D01*
X276100Y127180D01*
X275786Y126642D01*
X275459Y126111D01*
X275119Y125589D01*
X274767Y125074D01*
X274401Y124569D01*
X274024Y124073D01*
X273634Y123586D01*
X273233Y123109D01*
X272820Y122642D01*
X272396Y122186D01*
X271961Y121739D01*
X271514Y121304D01*
X271058Y120880D01*
X270591Y120467D01*
X270114Y120066D01*
X269627Y119676D01*
X269131Y119299D01*
X268626Y118933D01*
X268111Y118581D01*
X267589Y118241D01*
X267058Y117914D01*
X266520Y117600D01*
X265973Y117299D01*
X265420Y117012D01*
X264860Y116739D01*
X264293Y116479D01*
X263720Y116233D01*
X263141Y116002D01*
X262557Y115785D01*
X261968Y115582D01*
X261373Y115394D01*
X260775Y115220D01*
X260172Y115061D01*
X259565Y114917D01*
X258955Y114788D01*
X258342Y114674D01*
X257727Y114575D01*
X257109Y114491D01*
X256490Y114422D01*
X255869Y114369D01*
X255246Y114331D01*
X254623Y114308D01*
X254000Y114300D01*
X253377Y114308D01*
X252754Y114331D01*
X252131Y114369D01*
X251510Y114422D01*
X250891Y114491D01*
X250273Y114575D01*
X249658Y114674D01*
X249045Y114788D01*
X248435Y114917D01*
X247828Y115061D01*
X247225Y115220D01*
X246627Y115394D01*
X246032Y115582D01*
X245443Y115785D01*
X244859Y116002D01*
X244280Y116233D01*
X243707Y116479D01*
X243140Y116739D01*
X242580Y117012D01*
X242027Y117299D01*
X241480Y117600D01*
X240942Y117914D01*
X240411Y118241D01*
X239889Y118581D01*
X239374Y118933D01*
X238869Y119299D01*
X238373Y119676D01*
X237886Y120066D01*
X237409Y120467D01*
X236942Y120880D01*
X236486Y121304D01*
X236039Y121739D01*
X235604Y122186D01*
X235180Y122642D01*
X234767Y123109D01*
X234366Y123586D01*
X233976Y124073D01*
X233599Y124569D01*
X233233Y125074D01*
X232881Y125589D01*
X232541Y126111D01*
X232214Y126642D01*
X231900Y127180D01*
X231599Y127727D01*
X231312Y128280D01*
X231039Y128840D01*
X230779Y129407D01*
X230533Y129980D01*
X230302Y130559D01*
X230085Y131143D01*
X229882Y131732D01*
X229694Y132327D01*
X229520Y132925D01*
X229361Y133528D01*
X229217Y134135D01*
X229088Y134745D01*
X228974Y135358D01*
X228875Y135973D01*
X228791Y136591D01*
X228722Y137210D01*
X228669Y137831D01*
X228631Y138454D01*
X228608Y139077D01*
X228600Y139700D01*
D10*
X286385Y145669D02*
X286385Y157099D01*
X286385Y145669D02*
X291465Y145669D01*
X296291Y145669D02*
X301371Y145669D01*
X296291Y145669D02*
X296291Y157099D01*
X301371Y157099D01*
X300101Y152019D02*
X296291Y152019D01*
X306172Y157099D02*
X306172Y145669D01*
X306172Y157099D02*
X309347Y157099D01*
X309458Y157097D01*
X309568Y157091D01*
X309679Y157082D01*
X309789Y157068D01*
X309898Y157051D01*
X310007Y157030D01*
X310115Y157005D01*
X310222Y156976D01*
X310328Y156944D01*
X310433Y156908D01*
X310536Y156868D01*
X310638Y156825D01*
X310739Y156778D01*
X310838Y156727D01*
X310935Y156674D01*
X311029Y156617D01*
X311122Y156556D01*
X311213Y156493D01*
X311302Y156426D01*
X311388Y156356D01*
X311471Y156283D01*
X311553Y156208D01*
X311631Y156130D01*
X311706Y156048D01*
X311779Y155965D01*
X311849Y155879D01*
X311916Y155790D01*
X311979Y155699D01*
X312040Y155606D01*
X312097Y155512D01*
X312150Y155415D01*
X312201Y155316D01*
X312248Y155215D01*
X312291Y155113D01*
X312331Y155010D01*
X312367Y154905D01*
X312399Y154799D01*
X312428Y154692D01*
X312453Y154584D01*
X312474Y154475D01*
X312491Y154366D01*
X312505Y154256D01*
X312514Y154145D01*
X312520Y154035D01*
X312522Y153924D01*
X312522Y148844D01*
X312520Y148733D01*
X312514Y148623D01*
X312505Y148512D01*
X312491Y148402D01*
X312474Y148293D01*
X312453Y148184D01*
X312428Y148076D01*
X312399Y147969D01*
X312367Y147863D01*
X312331Y147758D01*
X312291Y147655D01*
X312248Y147553D01*
X312201Y147452D01*
X312150Y147353D01*
X312097Y147256D01*
X312040Y147162D01*
X311979Y147069D01*
X311916Y146978D01*
X311849Y146889D01*
X311779Y146803D01*
X311706Y146720D01*
X311631Y146638D01*
X311553Y146560D01*
X311471Y146485D01*
X311388Y146412D01*
X311302Y146342D01*
X311213Y146275D01*
X311122Y146212D01*
X311029Y146151D01*
X310935Y146094D01*
X310838Y146041D01*
X310739Y145990D01*
X310638Y145943D01*
X310536Y145900D01*
X310433Y145860D01*
X310328Y145824D01*
X310222Y145792D01*
X310115Y145763D01*
X310007Y145738D01*
X309898Y145717D01*
X309789Y145700D01*
X309679Y145686D01*
X309568Y145677D01*
X309458Y145671D01*
X309347Y145669D01*
X306172Y145669D01*
X317983Y148209D02*
X320523Y157099D01*
X317983Y148209D02*
X324333Y148209D01*
X322428Y150749D02*
X322428Y145669D01*
D15*
X224790Y214630D02*
X224690Y214628D01*
X224591Y214622D01*
X224491Y214612D01*
X224393Y214599D01*
X224294Y214581D01*
X224197Y214560D01*
X224101Y214535D01*
X224005Y214506D01*
X223911Y214473D01*
X223818Y214437D01*
X223727Y214397D01*
X223637Y214353D01*
X223549Y214306D01*
X223463Y214256D01*
X223379Y214202D01*
X223297Y214145D01*
X223218Y214085D01*
X223140Y214021D01*
X223066Y213955D01*
X222994Y213886D01*
X222925Y213814D01*
X222859Y213740D01*
X222795Y213662D01*
X222735Y213583D01*
X222678Y213501D01*
X222624Y213417D01*
X222574Y213331D01*
X222527Y213243D01*
X222483Y213153D01*
X222443Y213062D01*
X222407Y212969D01*
X222374Y212875D01*
X222345Y212779D01*
X222320Y212683D01*
X222299Y212586D01*
X222281Y212487D01*
X222268Y212389D01*
X222258Y212289D01*
X222252Y212190D01*
X222250Y212090D01*
X222250Y194310D02*
X222252Y194210D01*
X222258Y194111D01*
X222268Y194011D01*
X222281Y193913D01*
X222299Y193814D01*
X222320Y193717D01*
X222345Y193621D01*
X222374Y193525D01*
X222407Y193431D01*
X222443Y193338D01*
X222483Y193247D01*
X222527Y193157D01*
X222574Y193069D01*
X222624Y192983D01*
X222678Y192899D01*
X222735Y192817D01*
X222795Y192738D01*
X222859Y192660D01*
X222925Y192586D01*
X222994Y192514D01*
X223066Y192445D01*
X223140Y192379D01*
X223218Y192315D01*
X223297Y192255D01*
X223379Y192198D01*
X223463Y192144D01*
X223549Y192094D01*
X223637Y192047D01*
X223727Y192003D01*
X223818Y191963D01*
X223911Y191927D01*
X224005Y191894D01*
X224101Y191865D01*
X224197Y191840D01*
X224294Y191819D01*
X224393Y191801D01*
X224491Y191788D01*
X224591Y191778D01*
X224690Y191772D01*
X224790Y191770D01*
X283210Y191770D02*
X283310Y191772D01*
X283409Y191778D01*
X283509Y191788D01*
X283607Y191801D01*
X283706Y191819D01*
X283803Y191840D01*
X283899Y191865D01*
X283995Y191894D01*
X284089Y191927D01*
X284182Y191963D01*
X284273Y192003D01*
X284363Y192047D01*
X284451Y192094D01*
X284537Y192144D01*
X284621Y192198D01*
X284703Y192255D01*
X284782Y192315D01*
X284860Y192379D01*
X284934Y192445D01*
X285006Y192514D01*
X285075Y192586D01*
X285141Y192660D01*
X285205Y192738D01*
X285265Y192817D01*
X285322Y192899D01*
X285376Y192983D01*
X285426Y193069D01*
X285473Y193157D01*
X285517Y193247D01*
X285557Y193338D01*
X285593Y193431D01*
X285626Y193525D01*
X285655Y193621D01*
X285680Y193717D01*
X285701Y193814D01*
X285719Y193913D01*
X285732Y194011D01*
X285742Y194111D01*
X285748Y194210D01*
X285750Y194310D01*
X285750Y212090D02*
X285748Y212190D01*
X285742Y212289D01*
X285732Y212389D01*
X285719Y212487D01*
X285701Y212586D01*
X285680Y212683D01*
X285655Y212779D01*
X285626Y212875D01*
X285593Y212969D01*
X285557Y213062D01*
X285517Y213153D01*
X285473Y213243D01*
X285426Y213331D01*
X285376Y213417D01*
X285322Y213501D01*
X285265Y213583D01*
X285205Y213662D01*
X285141Y213740D01*
X285075Y213814D01*
X285006Y213886D01*
X284934Y213955D01*
X284860Y214021D01*
X284782Y214085D01*
X284703Y214145D01*
X284621Y214202D01*
X284537Y214256D01*
X284451Y214306D01*
X284363Y214353D01*
X284273Y214397D01*
X284182Y214437D01*
X284089Y214473D01*
X283995Y214506D01*
X283899Y214535D01*
X283803Y214560D01*
X283706Y214581D01*
X283607Y214599D01*
X283509Y214612D01*
X283409Y214622D01*
X283310Y214628D01*
X283210Y214630D01*
X228600Y214630D02*
X224790Y214630D01*
X228600Y214630D02*
X229870Y213360D01*
X228600Y191770D02*
X224790Y191770D01*
X228600Y191770D02*
X229870Y193040D01*
X278130Y213360D02*
X279400Y214630D01*
X278130Y213360D02*
X229870Y213360D01*
X278130Y193040D02*
X279400Y191770D01*
X278130Y193040D02*
X229870Y193040D01*
X279400Y214630D02*
X283210Y214630D01*
X283210Y191770D02*
X279400Y191770D01*
D10*
X229235Y217805D02*
X229235Y229235D01*
X232410Y229235D01*
X232521Y229233D01*
X232631Y229227D01*
X232742Y229218D01*
X232852Y229204D01*
X232961Y229187D01*
X233070Y229166D01*
X233178Y229141D01*
X233285Y229112D01*
X233391Y229080D01*
X233496Y229044D01*
X233599Y229004D01*
X233701Y228961D01*
X233802Y228914D01*
X233901Y228863D01*
X233998Y228810D01*
X234092Y228753D01*
X234185Y228692D01*
X234276Y228629D01*
X234365Y228562D01*
X234451Y228492D01*
X234534Y228419D01*
X234616Y228344D01*
X234694Y228266D01*
X234769Y228184D01*
X234842Y228101D01*
X234912Y228015D01*
X234979Y227926D01*
X235042Y227835D01*
X235103Y227742D01*
X235160Y227647D01*
X235213Y227551D01*
X235264Y227452D01*
X235311Y227351D01*
X235354Y227249D01*
X235394Y227146D01*
X235430Y227041D01*
X235462Y226935D01*
X235491Y226828D01*
X235516Y226720D01*
X235537Y226611D01*
X235554Y226502D01*
X235568Y226392D01*
X235577Y226281D01*
X235583Y226171D01*
X235585Y226060D01*
X235583Y225949D01*
X235577Y225839D01*
X235568Y225728D01*
X235554Y225618D01*
X235537Y225509D01*
X235516Y225400D01*
X235491Y225292D01*
X235462Y225185D01*
X235430Y225079D01*
X235394Y224974D01*
X235354Y224871D01*
X235311Y224769D01*
X235264Y224668D01*
X235213Y224569D01*
X235160Y224472D01*
X235103Y224378D01*
X235042Y224285D01*
X234979Y224194D01*
X234912Y224105D01*
X234842Y224019D01*
X234769Y223936D01*
X234694Y223854D01*
X234616Y223776D01*
X234534Y223701D01*
X234451Y223628D01*
X234365Y223558D01*
X234276Y223491D01*
X234185Y223428D01*
X234092Y223367D01*
X233997Y223310D01*
X233901Y223257D01*
X233802Y223206D01*
X233701Y223159D01*
X233599Y223116D01*
X233496Y223076D01*
X233391Y223040D01*
X233285Y223008D01*
X233178Y222979D01*
X233070Y222954D01*
X232961Y222933D01*
X232852Y222916D01*
X232742Y222902D01*
X232631Y222893D01*
X232521Y222887D01*
X232410Y222885D01*
X229235Y222885D01*
X233045Y222885D02*
X235585Y217805D01*
X240582Y220345D02*
X243122Y229235D01*
X240582Y220345D02*
X246932Y220345D01*
X245027Y222885D02*
X245027Y217805D01*
M02*
