G04 EAGLE Gerber RS-274X export*
G75*
%MOMM*%
%FSLAX34Y34*%
%LPD*%
%INSoldermask Top*%
%IPPOS*%
%AMOC8*
5,1,8,0,0,1.08239X$1,22.5*%
G01*
%ADD10C,2.082800*%
%ADD11C,2.753200*%
%ADD12C,1.727200*%
%ADD13P,1.649562X8X22.500000*%


D10*
X723900Y54102D02*
X723900Y72898D01*
X749300Y72898D02*
X749300Y54102D01*
X774700Y54102D02*
X774700Y72898D01*
X800100Y72898D02*
X800100Y54102D01*
X825500Y54102D02*
X825500Y72898D01*
X850900Y72898D02*
X850900Y54102D01*
X876300Y54102D02*
X876300Y72898D01*
X698500Y72898D02*
X698500Y54102D01*
X673100Y536702D02*
X673100Y555498D01*
X698500Y555498D02*
X698500Y536702D01*
X723900Y536702D02*
X723900Y555498D01*
X749300Y555498D02*
X749300Y536702D01*
X774700Y536702D02*
X774700Y555498D01*
X800100Y555498D02*
X800100Y536702D01*
X825500Y536702D02*
X825500Y555498D01*
X647700Y555498D02*
X647700Y536702D01*
X495300Y72898D02*
X495300Y54102D01*
X520700Y54102D02*
X520700Y72898D01*
X546100Y72898D02*
X546100Y54102D01*
X571500Y54102D02*
X571500Y72898D01*
X596900Y72898D02*
X596900Y54102D01*
X622300Y54102D02*
X622300Y72898D01*
X647700Y72898D02*
X647700Y54102D01*
X469900Y54102D02*
X469900Y72898D01*
X444500Y536702D02*
X444500Y555498D01*
X469900Y555498D02*
X469900Y536702D01*
X495300Y536702D02*
X495300Y555498D01*
X520700Y555498D02*
X520700Y536702D01*
X546100Y536702D02*
X546100Y555498D01*
X571500Y555498D02*
X571500Y536702D01*
X596900Y536702D02*
X596900Y555498D01*
X419100Y555498D02*
X419100Y536702D01*
X228600Y536702D02*
X228600Y555498D01*
X254000Y555498D02*
X254000Y536702D01*
X279400Y536702D02*
X279400Y555498D01*
X304800Y555498D02*
X304800Y536702D01*
X330200Y536702D02*
X330200Y555498D01*
X355600Y555498D02*
X355600Y536702D01*
X381000Y536702D02*
X381000Y555498D01*
X203200Y555498D02*
X203200Y536702D01*
X927100Y342900D02*
X945896Y342900D01*
X901700Y342900D02*
X882904Y342900D01*
X927100Y368300D02*
X945896Y368300D01*
X901700Y368300D02*
X882904Y368300D01*
X927100Y393700D02*
X945896Y393700D01*
X901700Y393700D02*
X882904Y393700D01*
X927100Y419100D02*
X945896Y419100D01*
X901700Y419100D02*
X882904Y419100D01*
X927100Y444500D02*
X945896Y444500D01*
X901700Y444500D02*
X882904Y444500D01*
X927100Y469900D02*
X945896Y469900D01*
X901700Y469900D02*
X882904Y469900D01*
X927100Y495300D02*
X945896Y495300D01*
X901700Y495300D02*
X882904Y495300D01*
X927100Y520700D02*
X945896Y520700D01*
X901700Y520700D02*
X882904Y520700D01*
X927100Y139700D02*
X945896Y139700D01*
X901700Y139700D02*
X882904Y139700D01*
X927100Y165100D02*
X945896Y165100D01*
X901700Y165100D02*
X882904Y165100D01*
X927100Y190500D02*
X945896Y190500D01*
X901700Y190500D02*
X882904Y190500D01*
X927100Y215900D02*
X945896Y215900D01*
X901700Y215900D02*
X882904Y215900D01*
X927100Y241300D02*
X945896Y241300D01*
X901700Y241300D02*
X882904Y241300D01*
X927100Y266700D02*
X945896Y266700D01*
X901700Y266700D02*
X882904Y266700D01*
X927100Y292100D02*
X945896Y292100D01*
X901700Y292100D02*
X882904Y292100D01*
X927100Y317500D02*
X945896Y317500D01*
X901700Y317500D02*
X882904Y317500D01*
X882904Y114300D02*
X901700Y114300D01*
X927100Y114300D02*
X945896Y114300D01*
X901700Y546100D02*
X882904Y546100D01*
X927100Y546100D02*
X945896Y546100D01*
X292100Y72898D02*
X292100Y54102D01*
X317500Y54102D02*
X317500Y72898D01*
X342900Y72898D02*
X342900Y54102D01*
X368300Y54102D02*
X368300Y72898D01*
X393700Y72898D02*
X393700Y54102D01*
X419100Y54102D02*
X419100Y72898D01*
X177800Y536702D02*
X177800Y555498D01*
X152400Y555498D02*
X152400Y536702D01*
X266700Y72898D02*
X266700Y54102D01*
X241300Y54102D02*
X241300Y72898D01*
D11*
X100100Y88850D02*
X100100Y114350D01*
X139700Y114350D02*
X139700Y88850D01*
X179300Y88850D02*
X179300Y114350D01*
D12*
X469900Y462280D02*
X469900Y477520D01*
X444500Y477520D02*
X444500Y462280D01*
X419100Y462280D02*
X419100Y477520D01*
X495300Y477520D02*
X495300Y462280D01*
X469900Y134620D02*
X469900Y119380D01*
X444500Y119380D02*
X444500Y134620D01*
X419100Y134620D02*
X419100Y119380D01*
X495300Y119380D02*
X495300Y134620D01*
X749300Y134620D02*
X749300Y119380D01*
X723900Y119380D02*
X723900Y134620D01*
X698500Y134620D02*
X698500Y119380D01*
X774700Y119380D02*
X774700Y134620D01*
X609600Y134620D02*
X609600Y119380D01*
X584200Y119380D02*
X584200Y134620D01*
X558800Y134620D02*
X558800Y119380D01*
X635000Y119380D02*
X635000Y134620D01*
X381000Y398780D02*
X381000Y414020D01*
X355600Y414020D02*
X355600Y398780D01*
X292100Y398780D02*
X292100Y414020D01*
X266700Y414020D02*
X266700Y398780D01*
X812800Y462280D02*
X812800Y477520D01*
X787400Y477520D02*
X787400Y462280D01*
X762000Y462280D02*
X762000Y477520D01*
X812800Y414020D02*
X812800Y398780D01*
X787400Y398780D02*
X787400Y414020D01*
X762000Y414020D02*
X762000Y398780D01*
X812800Y350520D02*
X812800Y335280D01*
X787400Y335280D02*
X787400Y350520D01*
X762000Y350520D02*
X762000Y335280D01*
X609600Y462280D02*
X609600Y477520D01*
X584200Y477520D02*
X584200Y462280D01*
X558800Y462280D02*
X558800Y477520D01*
X609600Y414020D02*
X609600Y398780D01*
X584200Y398780D02*
X584200Y414020D01*
X558800Y414020D02*
X558800Y398780D01*
X609600Y350520D02*
X609600Y335280D01*
X584200Y335280D02*
X584200Y350520D01*
X558800Y350520D02*
X558800Y335280D01*
X266700Y474980D02*
X266700Y490220D01*
X241300Y490220D02*
X241300Y474980D01*
D13*
X241300Y139700D03*
X266700Y139700D03*
X215900Y203200D03*
X292100Y203200D03*
M02*
